#N canvas 391 99 660 688 10;
#X obj 321 311 atan2;
#X obj 321 404 * 57.296;
#X text 379 285 180/ PI;
#X obj 222 56 t b f;
#X obj 321 289 f;
#X obj 321 266 t b f;
#X obj 321 60 t b f;
#X obj 321 546 mod 360;
#X obj 321 523 + 270;
#X obj 138 595 *~ 1;
#X obj 153 540 line~;
#X text 359 59 angle = atan2(y2 - y1 \, x2 - x1) * 180 / PI \;;
#X obj 222 33 r listener-y;
#X obj 321 37 r listener-x;
#X obj 92 505 inlet~;
#X obj 321 498 f;
#X obj 333 430 r listener-direction;
#X obj 333 452 + 270;
#X obj 333 474 t b f;
#X obj 367 173 unpack f f;
#X obj 222 238 - 0.5;
#X obj 321 242 - 0.5;
#X obj 321 212 f;
#X obj 222 208 f;
#X obj 367 96 r positions;
#X msg 321 584 azimuth \$1;
#X floatatom 278 226 5 0 0 0 - - -;
#X floatatom 437 215 5 0 0 0 - - -;
#X obj 138 566 *~;
#X obj 138 639 outlet~;
#X obj 321 383 spigot;
#X obj 354 362 > 0;
#X obj 153 471 r total-above-0;
#X obj 153 493 == 0;
#X msg 153 515 \$1 4000;
#X obj 367 119 route object-\$2;
#X obj 249 639 outlet;
#X connect 0 0 30 0;
#X connect 1 0 15 0;
#X connect 3 0 23 0;
#X connect 3 1 20 1;
#X connect 4 0 0 0;
#X connect 5 0 4 0;
#X connect 5 1 0 1;
#X connect 6 0 22 0;
#X connect 6 1 21 1;
#X connect 7 0 25 0;
#X connect 8 0 7 0;
#X connect 9 0 29 0;
#X connect 10 0 28 1;
#X connect 12 0 3 0;
#X connect 13 0 6 0;
#X connect 14 0 28 0;
#X connect 15 0 8 0;
#X connect 16 0 17 0;
#X connect 17 0 18 0;
#X connect 18 0 15 0;
#X connect 18 1 8 1;
#X connect 19 0 22 1;
#X connect 19 1 23 1;
#X connect 19 1 27 0;
#X connect 20 0 26 0;
#X connect 20 0 4 1;
#X connect 21 0 5 0;
#X connect 22 0 21 0;
#X connect 23 0 20 0;
#X connect 24 0 35 0;
#X connect 25 0 36 0;
#X connect 28 0 9 0;
#X connect 30 0 1 0;
#X connect 31 0 30 1;
#X connect 32 0 33 0;
#X connect 33 0 34 0;
#X connect 33 0 31 0;
#X connect 34 0 10 0;
#X connect 35 0 19 0;
