#N canvas 653 72 1003 718 10;
#X obj 321 211 atan2;
#X obj 321 234 * 57.296;
#X text 379 235 180/ PI;
#X obj 86 45 t b f;
#X text 744 575 y2;
#X obj 321 189 f;
#X obj 321 166 t b f;
#X obj 185 49 t b f;
#X text 551 576 x2;
#X obj 516 347 grid grid1 200 0 0.99 200 0 0.99 1 0.01 0.01 10 10 616
407;
#X floatatom 516 576 5 0 0 0 - - -, f 5;
#X floatatom 709 576 5 0 0 0 - - -, f 5;
#X msg 267 563 azimuth \$1;
#X obj 138 597 rm_fir-binaural 1 75 0;
#X obj 321 513 change;
#X obj 321 489 int;
#X obj 321 386 mod 360;
#X obj 321 363 + 270;
#X obj 331 415 swap 360;
#X obj 331 441 -;
#X obj 153 351 sqrt;
#X obj 86 179 *;
#X obj 86 154 t f f;
#X obj 153 306 +;
#X obj 153 281 f;
#X obj 153 223 t b f;
#X obj 153 329 abs;
#X obj 153 399 swap 1;
#X obj 153 425 -;
#X obj 138 575 *~ 1;
#X obj 138 546 *~;
#X obj 153 520 line~;
#X obj 153 173 t f f;
#X obj 153 198 *;
#X obj 153 375 * 1.42857;
#X obj 321 468 / 15.65;
#X text 223 48 angle = atan2(y2 - y1 \, x2 - x1) * 180 / PI \;;
#X obj 86 22 r listener-y;
#X obj 185 26 r listener-x;
#X obj 95 73 r \$0-pos-y;
#X obj 194 74 r \$0-pos-x;
#X obj 92 485 inlet~;
#X text 194 287 a^2 + b^2;
#X obj 185 101 f \$1;
#X obj 86 97 f \$2;
#X obj 516 81 loadbang;
#X obj 516 133 \$1;
#X obj 577 62 bng 15 250 50 0 empty empty empty 17 7 0 10 -262144 -1
-1;
#X msg 516 324 goto \$1 \$2;
#X obj 516 301 pack f f;
#X obj 575 134 \$2;
#X obj 516 103 t b b;
#X obj 575 256 swap 200;
#X obj 575 278 -;
#X floatatom 325 538 5 0 0 0 - - -, f 5;
#X obj 153 454 max 0;
#X obj 321 338 f;
#X obj 333 270 r listener-direction;
#X obj 333 292 + 270;
#X obj 333 314 t b f;
#X obj 647 83 inlet;
#X obj 647 105 unpack f f;
#X obj 599 197 s \$0-pos-y;
#X obj 525 197 s \$0-pos-x;
#X obj 516 232 * 200;
#X obj 575 233 * 200;
#X obj 516 172 f;
#X obj 575 173 f;
#X obj 86 127 - 0.5;
#X obj 185 131 - 0.5;
#X obj 153 476 min 1;
#X obj 153 498 pow 3;
#X connect 0 0 1 0;
#X connect 1 0 56 0;
#X connect 3 0 44 0;
#X connect 3 1 68 1;
#X connect 5 0 0 0;
#X connect 6 0 5 0;
#X connect 6 1 0 1;
#X connect 7 0 43 0;
#X connect 7 1 69 1;
#X connect 9 0 10 0;
#X connect 9 1 11 0;
#X connect 12 0 13 2;
#X connect 14 0 12 0;
#X connect 14 0 54 0;
#X connect 15 0 14 0;
#X connect 16 0 35 0;
#X connect 17 0 16 0;
#X connect 18 0 19 0;
#X connect 18 1 19 1;
#X connect 19 0 35 0;
#X connect 20 0 34 0;
#X connect 21 0 24 0;
#X connect 22 0 21 0;
#X connect 22 1 21 1;
#X connect 23 0 26 0;
#X connect 24 0 23 0;
#X connect 25 0 24 0;
#X connect 25 1 23 1;
#X connect 26 0 20 0;
#X connect 27 0 28 0;
#X connect 27 1 28 1;
#X connect 28 0 55 0;
#X connect 29 0 13 0;
#X connect 29 0 13 1;
#X connect 30 0 29 0;
#X connect 31 0 30 1;
#X connect 32 0 33 0;
#X connect 32 1 33 1;
#X connect 33 0 25 0;
#X connect 34 0 27 0;
#X connect 35 0 15 0;
#X connect 37 0 3 0;
#X connect 38 0 7 0;
#X connect 39 0 44 0;
#X connect 40 0 43 0;
#X connect 41 0 30 0;
#X connect 43 0 69 0;
#X connect 44 0 68 0;
#X connect 45 0 51 0;
#X connect 46 0 66 0;
#X connect 47 0 51 0;
#X connect 48 0 9 0;
#X connect 49 0 48 0;
#X connect 50 0 67 0;
#X connect 51 0 46 0;
#X connect 51 1 50 0;
#X connect 52 0 53 0;
#X connect 52 1 53 1;
#X connect 53 0 49 1;
#X connect 55 0 70 0;
#X connect 56 0 17 0;
#X connect 57 0 58 0;
#X connect 58 0 59 0;
#X connect 59 0 56 0;
#X connect 59 1 17 1;
#X connect 60 0 61 0;
#X connect 61 0 66 0;
#X connect 61 1 67 0;
#X connect 64 0 49 0;
#X connect 65 0 52 0;
#X connect 66 0 64 0;
#X connect 66 0 63 0;
#X connect 67 0 65 0;
#X connect 67 0 62 0;
#X connect 68 0 5 0;
#X connect 68 0 22 0;
#X connect 69 0 6 0;
#X connect 69 0 32 0;
#X connect 70 0 71 0;
#X connect 71 0 31 0;
