#N canvas 384 59 663 743 10;
#X obj 321 311 atan2;
#X obj 321 334 * 57.296;
#X text 379 285 180/ PI;
#X obj 86 45 t b f;
#X obj 321 289 f;
#X obj 321 266 t b f;
#X obj 185 49 t b f;
#X msg 321 661 azimuth \$1;
#X obj 138 697 rm_fir-binaural 1 75 0;
#X obj 321 613 change;
#X obj 321 589 int;
#X obj 321 486 mod 360;
#X obj 321 463 + 270;
#X obj 331 515 swap 360;
#X obj 331 541 -;
#X obj 153 451 sqrt;
#X obj 86 279 *;
#X obj 86 254 t f f;
#X obj 153 406 +;
#X obj 153 381 f;
#X obj 153 323 t b f;
#X obj 153 429 abs;
#X obj 153 499 swap 1;
#X obj 153 525 -;
#X obj 138 675 *~ 1;
#X obj 153 620 line~;
#X obj 153 273 t f f;
#X obj 153 298 *;
#X obj 153 475 * 1.42857;
#X obj 321 568 / 15.65;
#X text 223 48 angle = atan2(y2 - y1 \, x2 - x1) * 180 / PI \;;
#X obj 86 22 r listener-y;
#X obj 185 26 r listener-x;
#X obj 92 585 inlet~;
#X text 194 387 a^2 + b^2;
#X floatatom 329 635 5 0 0 0 - - -;
#X obj 153 554 max 0;
#X obj 321 438 f;
#X obj 333 370 r listener-direction;
#X obj 333 392 + 270;
#X obj 333 414 t b f;
#X obj 243 135 inlet;
#X obj 231 162 unpack f f;
#X obj 86 227 - 0.5;
#X obj 185 231 - 0.5;
#X obj 153 576 min 1;
#X obj 153 598 pow 3;
#X obj 185 201 f;
#X obj 86 197 f;
#X obj 231 85 r positions;
#X obj 231 108 route object-\$1;
#X obj 138 646 *~ 1;
#X connect 0 0 1 0;
#X connect 1 0 37 0;
#X connect 3 0 48 0;
#X connect 3 1 43 1;
#X connect 4 0 0 0;
#X connect 5 0 4 0;
#X connect 5 1 0 1;
#X connect 6 0 47 0;
#X connect 6 1 44 1;
#X connect 7 0 8 2;
#X connect 9 0 7 0;
#X connect 9 0 35 0;
#X connect 10 0 9 0;
#X connect 11 0 29 0;
#X connect 12 0 11 0;
#X connect 13 0 14 0;
#X connect 13 1 14 1;
#X connect 14 0 29 0;
#X connect 15 0 28 0;
#X connect 16 0 19 0;
#X connect 17 0 16 0;
#X connect 17 1 16 1;
#X connect 18 0 21 0;
#X connect 19 0 18 0;
#X connect 20 0 19 0;
#X connect 20 1 18 1;
#X connect 21 0 15 0;
#X connect 22 0 23 0;
#X connect 22 1 23 1;
#X connect 23 0 36 0;
#X connect 24 0 8 0;
#X connect 24 0 8 1;
#X connect 26 0 27 0;
#X connect 26 1 27 1;
#X connect 27 0 20 0;
#X connect 28 0 22 0;
#X connect 29 0 10 0;
#X connect 31 0 3 0;
#X connect 32 0 6 0;
#X connect 33 0 51 0;
#X connect 36 0 45 0;
#X connect 37 0 12 0;
#X connect 38 0 39 0;
#X connect 39 0 40 0;
#X connect 40 0 37 0;
#X connect 40 1 12 1;
#X connect 41 0 42 0;
#X connect 42 0 48 0;
#X connect 42 1 47 0;
#X connect 43 0 4 0;
#X connect 43 0 17 0;
#X connect 44 0 5 0;
#X connect 44 0 26 0;
#X connect 45 0 46 0;
#X connect 46 0 25 0;
#X connect 47 0 44 0;
#X connect 48 0 43 0;
#X connect 49 0 50 0;
#X connect 50 0 42 0;
#X connect 51 0 24 0;
