#N canvas 391 22 537 838 10;
#X obj 321 311 atan2;
#X obj 321 404 * 57.296;
#X text 379 285 180/ PI;
#X obj 86 45 t b f;
#X obj 321 289 f;
#X obj 321 266 t b f;
#X obj 185 49 t b f;
#X obj 321 546 mod 360;
#X obj 321 523 + 270;
#X obj 153 451 sqrt;
#X obj 86 309 *;
#X obj 86 284 t f f;
#X obj 153 406 +;
#X obj 153 381 f;
#X obj 153 343 t b f;
#X obj 153 429 abs;
#X obj 153 609 swap 1;
#X obj 153 635 -;
#X obj 138 785 *~ 1;
#X obj 153 730 line~;
#X obj 153 293 t f f;
#X obj 153 318 *;
#X obj 153 475 * 1.42857;
#X text 223 48 angle = atan2(y2 - y1 \, x2 - x1) * 180 / PI \;;
#X obj 86 22 r listener-y;
#X obj 185 26 r listener-x;
#X obj 92 695 inlet~;
#X text 194 387 a^2 + b^2;
#X obj 153 664 max 0;
#X obj 321 498 f;
#X obj 333 430 r listener-direction;
#X obj 333 452 + 270;
#X obj 333 474 t b f;
#X obj 86 227 - 0.5;
#X obj 185 231 - 0.5;
#X obj 153 686 min 1;
#X obj 153 708 pow 3;
#X obj 185 201 f;
#X obj 86 197 f;
#X obj 231 85 r positions;
#X msg 321 694 azimuth \$1;
#X floatatom 142 215 5 0 0 0 - - -, f 5;
#X obj 86 260 / 32;
#X obj 153 269 / 32;
#X floatatom 257 194 5 0 0 0 - - -, f 5;
#X obj 138 756 *~;
#X obj 153 577 * 2;
#X obj 231 108 route object-\$2;
#X obj 138 807 outlet~;
#X obj 321 716 outlet;
#X obj 231 162 unpack f f f;
#X obj 321 653 spigot;
#X obj 354 632 > 0;
#X obj 367 662 s \$1-vol;
#X obj 250 523 - 180;
#X obj 250 545 abs;
#X obj 250 567 / 180;
#X obj 250 589 swap 1;
#X obj 250 611 -;
#X obj 250 695 min 1;
#X obj 250 717 max 0;
#X obj 410 574 r directionality;
#X obj 410 596 t b f;
#X obj 250 633 f;
#X obj 250 673 pow 0;
#X connect 0 0 1 0;
#X connect 1 0 29 0;
#X connect 3 0 38 0;
#X connect 3 1 33 1;
#X connect 4 0 0 0;
#X connect 5 0 4 0;
#X connect 5 1 0 1;
#X connect 6 0 37 0;
#X connect 6 1 34 1;
#X connect 7 0 51 0;
#X connect 7 0 54 0;
#X connect 8 0 7 0;
#X connect 9 0 22 0;
#X connect 10 0 13 0;
#X connect 11 0 10 0;
#X connect 11 1 10 1;
#X connect 12 0 15 0;
#X connect 13 0 12 0;
#X connect 14 0 13 0;
#X connect 14 1 12 1;
#X connect 15 0 9 0;
#X connect 16 0 17 0;
#X connect 16 1 17 1;
#X connect 17 0 28 0;
#X connect 18 0 48 0;
#X connect 19 0 45 1;
#X connect 20 0 21 0;
#X connect 20 1 21 1;
#X connect 21 0 14 0;
#X connect 22 0 46 0;
#X connect 24 0 3 0;
#X connect 25 0 6 0;
#X connect 26 0 45 0;
#X connect 28 0 35 0;
#X connect 29 0 8 0;
#X connect 30 0 31 0;
#X connect 31 0 32 0;
#X connect 32 0 29 0;
#X connect 32 1 8 1;
#X connect 33 0 41 0;
#X connect 33 0 42 0;
#X connect 33 0 4 1;
#X connect 34 0 5 0;
#X connect 34 0 43 0;
#X connect 35 0 36 0;
#X connect 36 0 19 0;
#X connect 36 0 52 0;
#X connect 37 0 34 0;
#X connect 38 0 33 0;
#X connect 39 0 47 0;
#X connect 40 0 49 0;
#X connect 42 0 11 0;
#X connect 43 0 20 0;
#X connect 45 0 18 0;
#X connect 46 0 16 0;
#X connect 47 0 50 0;
#X connect 50 0 37 1;
#X connect 50 1 38 1;
#X connect 50 1 44 0;
#X connect 50 2 46 1;
#X connect 51 0 40 0;
#X connect 52 0 51 1;
#X connect 52 0 53 0;
#X connect 54 0 55 0;
#X connect 55 0 56 0;
#X connect 56 0 57 0;
#X connect 57 0 58 0;
#X connect 57 1 58 1;
#X connect 58 0 63 0;
#X connect 59 0 60 0;
#X connect 60 0 18 1;
#X connect 61 0 62 0;
#X connect 62 0 63 0;
#X connect 62 1 64 1;
#X connect 63 0 64 0;
#X connect 64 0 59 0;
