#N canvas 417 112 606 616 10;
#X obj 158 65 max 0.1;
#X obj 258 65 max 0.1;
#X text 156 22 attack (ms);
#X text 256 22 decay (ms);
#X text 86 22 trigger;
#X obj 87 45 inlet;
#X obj 158 45 inlet;
#X obj 258 45 inlet;
#X obj 144 587 outlet~;
#X obj 87 65 b;
#X text 129 403 attack;
#X text 317 445 decay;
#X msg 87 381 1 \, 0 \$1 0 \, 1 0 \$1;
#X msg 281 421 0 \, 1 0 \$1 \, 0 \$2 \$1;
#X obj 87 195 f 3;
#X obj 251 127 f \$1;
#X obj 251 102 loadbang;
#X obj 251 153 select 0;
#X obj 325 101 loadbang;
#X obj 325 152 select 0;
#X obj 325 126 f \$2;
#X msg 21 381 1;
#X obj 21 359 loadbang;
#X obj 62 457 sig~ 1;
#X obj 61 530 -~;
#X obj 78 507 *~;
#X obj 78 486 *~;
#X obj 280 512 *~;
#X obj 281 489 *~;
#N canvas 228 198 627 317 LICENSE-BSD 0;
#X text 121 56 This software is copyrighted by Miller Puckette \, Reality
Jockey Ltd. and others. The terms (the "Standard Improved BSD License")
apply to all files associated with the software unless explicitly disclaimed
in individual files.;
#X text 123 148 See the file LICENSE.txt for the full license text.
;
#X restore 463 60 pd LICENSE-BSD;
#X msg 87 347 1;
#X msg 152 347 1;
#X obj 152 314 del 1;
#X obj 87 428 line~;
#X obj 281 464 line~;
#X msg 277 387 0;
#X msg 307 377 1 0;
#X obj 87 240 t a a a;
#X msg 117 347 0 \$1;
#X obj 179 290 unpack f;
#X obj 152 266 t b a;
#X obj 277 240 t a a a;
#X obj 302 324 del 1;
#X obj 329 300 unpack f;
#X obj 302 276 t b a;
#X obj 392 276 t b a;
#X obj 419 300 unpack f f;
#X msg 392 384 0 \$1;
#X obj 392 353 f;
#X obj 392 324 del \$1;
#X obj 87 215 pack f f;
#X connect 0 0 14 1;
#X connect 1 0 50 1;
#X connect 5 0 9 0;
#X connect 6 0 0 0;
#X connect 7 0 1 0;
#X connect 9 0 14 0;
#X connect 12 0 33 0;
#X connect 13 0 34 0;
#X connect 14 0 50 0;
#X connect 15 0 17 0;
#X connect 16 0 15 0;
#X connect 17 1 14 1;
#X connect 18 0 20 0;
#X connect 19 1 50 1;
#X connect 20 0 19 0;
#X connect 21 0 33 0;
#X connect 22 0 21 0;
#X connect 23 0 24 0;
#X connect 24 0 8 0;
#X connect 25 0 24 1;
#X connect 26 0 25 0;
#X connect 26 0 25 1;
#X connect 27 0 8 0;
#X connect 28 0 27 0;
#X connect 28 0 27 1;
#X connect 30 0 33 0;
#X connect 31 0 33 0;
#X connect 32 0 31 0;
#X connect 33 0 26 0;
#X connect 33 0 26 1;
#X connect 34 0 28 0;
#X connect 34 0 28 1;
#X connect 35 0 34 0;
#X connect 36 0 34 0;
#X connect 37 0 40 0;
#X connect 37 1 38 0;
#X connect 37 2 30 0;
#X connect 38 0 33 0;
#X connect 39 0 32 1;
#X connect 40 0 32 0;
#X connect 40 1 39 0;
#X connect 41 0 45 0;
#X connect 41 1 44 0;
#X connect 41 2 35 0;
#X connect 42 0 36 0;
#X connect 43 0 42 1;
#X connect 44 0 42 0;
#X connect 44 1 43 0;
#X connect 45 0 49 0;
#X connect 45 1 46 0;
#X connect 46 0 49 1;
#X connect 46 1 48 1;
#X connect 47 0 34 0;
#X connect 48 0 47 0;
#X connect 49 0 48 0;
#X connect 50 0 37 0;
#X connect 50 0 41 0;
