#N canvas 406 347 450 300 10;
#X obj 148 39 inlet~;
#X obj 148 191 *~;
#X obj 230 37 sig~ \$1;
#X obj 230 59 *~ 0.25;
#X obj 230 81 +~ 0.25;
#X obj 163 145 -~ 0.25;
#X obj 163 167 cos~;
#X obj 215 191 *~;
#X obj 230 167 cos~;
#X obj 148 61 *~;
#X obj 286 15 inlet;
#X obj 148 213 throw~ l;
#X obj 215 213 throw~ r;
#X connect 0 0 9 0;
#X connect 1 0 11 0;
#X connect 2 0 3 0;
#X connect 3 0 4 0;
#X connect 4 0 5 0;
#X connect 4 0 8 0;
#X connect 5 0 6 0;
#X connect 6 0 1 1;
#X connect 7 0 12 0;
#X connect 8 0 7 1;
#X connect 9 0 1 0;
#X connect 9 0 7 0;
#X connect 10 0 9 1;
