#N canvas 144 22 381 441 10;
#X obj 24 64 t f f;
#X obj 121 139 * 12;
#X obj 103 343 +;
#X obj 24 85 mod \$1;
#X obj 121 118 div \$1;
#X obj 24 223 sel 0 1 2 3 4 5 6 7 8 9 10;
#X text 4 407 YL@RM;
#X obj 24 245 \$3;
#X obj 40 265 \$4;
#X obj 56 245 \$5;
#X obj 72 265 \$6;
#X obj 89 245 \$7;
#X obj 105 265 \$8;
#X obj 121 245 \$9;
#X obj 137 265 \$10;
#X obj 154 245 \$11;
#X obj 171 265 \$12;
#X obj 186 245 \$13;
#X obj 204 265 \$14;
#X obj 103 322 f;
#X obj 103 369 + \$2;
#X text 149 369 Base note (aka key);
#X obj 103 394 outlet;
#X obj 24 43 inlet;
#X obj 169 25 inlet;
#X obj 40 187 unpack f f f f f f f f f f f f;
#X obj 169 47 route notes intervals key;
#X connect 0 0 3 0;
#X connect 0 1 4 0;
#X connect 1 0 2 1;
#X connect 2 0 20 0;
#X connect 3 0 5 0;
#X connect 4 0 1 0;
#X connect 5 0 7 0;
#X connect 5 1 8 0;
#X connect 5 2 9 0;
#X connect 5 3 10 0;
#X connect 5 4 11 0;
#X connect 5 5 12 0;
#X connect 5 6 13 0;
#X connect 5 7 14 0;
#X connect 5 8 15 0;
#X connect 5 9 16 0;
#X connect 5 10 17 0;
#X connect 5 11 18 0;
#X connect 7 0 19 0;
#X connect 8 0 19 0;
#X connect 9 0 19 0;
#X connect 10 0 19 0;
#X connect 11 0 19 0;
#X connect 12 0 19 0;
#X connect 13 0 19 0;
#X connect 14 0 19 0;
#X connect 15 0 19 0;
#X connect 16 0 19 0;
#X connect 17 0 19 0;
#X connect 18 0 19 0;
#X connect 19 0 2 0;
#X connect 20 0 22 0;
#X connect 23 0 0 0;
#X connect 24 0 26 0;
#X connect 25 0 7 1;
#X connect 25 1 8 1;
#X connect 25 2 9 1;
#X connect 25 3 10 1;
#X connect 25 4 11 1;
#X connect 25 5 12 1;
#X connect 25 6 13 1;
#X connect 25 7 14 1;
#X connect 25 8 15 1;
#X connect 25 9 16 1;
#X connect 25 10 17 1;
#X connect 25 11 18 1;
#X connect 26 0 3 1;
#X connect 26 0 4 1;
#X connect 26 1 25 0;
#X connect 26 2 20 1;
