#N canvas 547 220 826 447 10;
#N canvas 0 22 450 300 (subpatch) 0;
#X array \$0-leftIR 512 float 0;
#X coords 0 1 511 -1 100 70 1 0 0;
#X restore 63 50 graph;
#N canvas 0 22 450 300 (subpatch) 0;
#X array \$0-rightIR 512 float 0;
#X coords 0 1 511 -1 100 70 1 0 0;
#X restore 180 50 graph;
#X obj 63 230 clip~ -1 1;
#X obj 210 230 clip~ -1 1;
#X obj 565 95 int;
#X obj 565 169 * 15;
#X obj 565 118 moses 4;
#X obj 604 145 + 17;
#X obj 63 132 inlet~;
#X obj 424 30 inlet;
#X obj 424 52 route azimuth elevation on;
#X obj 63 260 *~ 1;
#X obj 210 260 *~ 1;
#X obj 565 191 change -1;
#X obj 424 192 change -1;
#X obj 63 171 *~ 1;
#X obj 210 171 *~ 1;
#X obj 424 272 pack f f f;
#X obj 481 228 loadbang;
#X obj 481 250 \$0;
#X obj 424 162 * 15;
#X obj 424 126 div 15;
#X obj 63 282 outlet~;
#X obj 210 282 outlet~;
#X obj 63 193 conv~ \$0-leftIR 512;
#X obj 210 193 conv~ \$0-rightIR 512;
#N canvas 309 61 884 817 sub-2 0;
#X obj 100 50 sel 0 1 2 3 4 5 6 7 8 9 10 11 12 13 14 15 16 17 18 19
20 21 22 23 24 25 26 27 28 29 30 31 32 33 34 35 36 37 38 39 40 41 42
43 44 45 46 47 48 49 50 51 52 53 54 55 56 57 58 59 60 61 62 63 64 65
66 67 68 69 70 71 72 73 74 75 76 77 78 79 80 81 82 83 84 85 86 87 88
89 90 91 92 93 94 95 96 97 98 99 100 101 102 103 104 105 106 107 108
109 110 111 112 113 114 115 116 117 118 119 120 121 122 123 124 125
126 127 128 129 130 131 132 133 134 135 136 137 138 139 140 141 142
143 144 145 146 147 148 149 150 151 152 153 154 155 156 157 158 159
160 161 162 163 164 165 166 167;
#X msg 100 190 T000_P000-2;
#X msg 100 220 T000_P015-2;
#X msg 100 250 T000_P030-2;
#X msg 100 280 T000_P045-2;
#X msg 100 310 T000_P315-2;
#X msg 100 340 T000_P330-2;
#X msg 100 370 T000_P345-2;
#X msg 100 400 T015_P000-2;
#X msg 100 430 T015_P015-2;
#X msg 100 460 T015_P030-2;
#X msg 100 490 T015_P045-2;
#X msg 100 520 T015_P315-2;
#X msg 100 550 T015_P330-2;
#X msg 100 580 T015_P345-2;
#X msg 100 610 T030_P000-2;
#X msg 100 640 T030_P015-2;
#X msg 100 670 T030_P030-2;
#X msg 100 700 T030_P045-2;
#X msg 100 730 T030_P315-2;
#X msg 100 760 T030_P330-2;
#X msg 100 790 T030_P345-2;
#X msg 100 820 T045_P000-2;
#X msg 100 850 T045_P015-2;
#X msg 100 880 T045_P030-2;
#X msg 100 910 T045_P045-2;
#X msg 100 940 T045_P315-2;
#X msg 100 970 T045_P330-2;
#X msg 100 1000 T045_P345-2;
#X msg 100 1030 T060_P000-2;
#X msg 100 1060 T060_P015-2;
#X msg 100 1090 T060_P030-2;
#X msg 100 1120 T060_P045-2;
#X msg 100 1150 T060_P315-2;
#X msg 100 1180 T060_P330-2;
#X msg 100 1210 T060_P345-2;
#X msg 100 1240 T075_P000-2;
#X msg 100 1270 T075_P015-2;
#X msg 100 1300 T075_P030-2;
#X msg 100 1330 T075_P045-2;
#X msg 100 1360 T075_P315-2;
#X msg 100 1390 T075_P330-2;
#X msg 100 1420 T075_P345-2;
#X msg 100 1450 T090_P000-2;
#X msg 100 1480 T090_P015-2;
#X msg 100 1510 T090_P030-2;
#X msg 100 1540 T090_P045-2;
#X msg 100 1570 T090_P315-2;
#X msg 100 1600 T090_P330-2;
#X msg 100 1630 T090_P345-2;
#X msg 100 1660 T105_P000-2;
#X msg 100 1690 T105_P015-2;
#X msg 100 1720 T105_P030-2;
#X msg 100 1750 T105_P045-2;
#X msg 100 1780 T105_P315-2;
#X msg 100 1810 T105_P330-2;
#X msg 100 1840 T105_P345-2;
#X msg 100 1870 T120_P000-2;
#X msg 100 1900 T120_P015-2;
#X msg 100 1930 T120_P030-2;
#X msg 100 1960 T120_P045-2;
#X msg 100 1990 T120_P315-2;
#X msg 100 2020 T120_P330-2;
#X msg 100 2050 T120_P345-2;
#X msg 100 2080 T135_P000-2;
#X msg 100 2110 T135_P015-2;
#X msg 100 2140 T135_P030-2;
#X msg 100 2170 T135_P045-2;
#X msg 100 2200 T135_P315-2;
#X msg 100 2230 T135_P330-2;
#X msg 100 2260 T135_P345-2;
#X msg 100 2290 T150_P000-2;
#X msg 100 2320 T150_P015-2;
#X msg 100 2350 T150_P030-2;
#X msg 100 2380 T150_P045-2;
#X msg 100 2410 T150_P315-2;
#X msg 100 2440 T150_P330-2;
#X msg 100 2470 T150_P345-2;
#X msg 100 2500 T165_P000-2;
#X msg 100 2530 T165_P015-2;
#X msg 100 2560 T165_P030-2;
#X msg 100 2590 T165_P045-2;
#X msg 100 2620 T165_P315-2;
#X msg 100 2650 T165_P330-2;
#X msg 100 2680 T165_P345-2;
#X msg 100 2710 T180_P000-2;
#X msg 100 2740 T180_P015-2;
#X msg 100 2770 T180_P030-2;
#X msg 100 2800 T180_P045-2;
#X msg 100 2830 T180_P315-2;
#X msg 100 2860 T180_P330-2;
#X msg 100 2890 T180_P345-2;
#X msg 100 2920 T195_P000-2;
#X msg 100 2950 T195_P015-2;
#X msg 100 2980 T195_P030-2;
#X msg 100 3010 T195_P045-2;
#X msg 100 3040 T195_P315-2;
#X msg 100 3070 T195_P330-2;
#X msg 100 3100 T195_P345-2;
#X msg 100 3130 T210_P000-2;
#X msg 100 3160 T210_P015-2;
#X msg 100 3190 T210_P030-2;
#X msg 100 3220 T210_P045-2;
#X msg 100 3250 T210_P315-2;
#X msg 100 3280 T210_P330-2;
#X msg 100 3310 T210_P345-2;
#X msg 100 3340 T225_P000-2;
#X msg 100 3370 T225_P015-2;
#X msg 100 3400 T225_P030-2;
#X msg 100 3430 T225_P045-2;
#X msg 100 3460 T225_P315-2;
#X msg 100 3490 T225_P330-2;
#X msg 100 3520 T225_P345-2;
#X msg 100 3550 T240_P000-2;
#X msg 100 3580 T240_P015-2;
#X msg 100 3610 T240_P030-2;
#X msg 100 3640 T240_P045-2;
#X msg 100 3670 T240_P315-2;
#X msg 100 3700 T240_P330-2;
#X msg 100 3730 T240_P345-2;
#X msg 100 3760 T255_P000-2;
#X msg 100 3790 T255_P015-2;
#X msg 100 3820 T255_P030-2;
#X msg 100 3850 T255_P045-2;
#X msg 100 3880 T255_P315-2;
#X msg 100 3910 T255_P330-2;
#X msg 100 3940 T255_P345-2;
#X msg 100 3970 T270_P000-2;
#X msg 100 4000 T270_P015-2;
#X msg 100 4030 T270_P030-2;
#X msg 100 4060 T270_P045-2;
#X msg 100 4090 T270_P315-2;
#X msg 100 4120 T270_P330-2;
#X msg 100 4150 T270_P345-2;
#X msg 100 4180 T285_P000-2;
#X msg 100 4210 T285_P015-2;
#X msg 100 4240 T285_P030-2;
#X msg 100 4270 T285_P045-2;
#X msg 100 4300 T285_P315-2;
#X msg 100 4330 T285_P330-2;
#X msg 100 4360 T285_P345-2;
#X msg 100 4390 T300_P000-2;
#X msg 100 4420 T300_P015-2;
#X msg 100 4450 T300_P030-2;
#X msg 100 4480 T300_P045-2;
#X msg 100 4510 T300_P315-2;
#X msg 100 4540 T300_P330-2;
#X msg 100 4570 T300_P345-2;
#X msg 100 4600 T315_P000-2;
#X msg 100 4630 T315_P015-2;
#X msg 100 4660 T315_P030-2;
#X msg 100 4690 T315_P045-2;
#X msg 100 4720 T315_P315-2;
#X msg 100 4750 T315_P330-2;
#X msg 100 4780 T315_P345-2;
#X msg 100 4810 T330_P000-2;
#X msg 100 4840 T330_P015-2;
#X msg 100 4870 T330_P030-2;
#X msg 100 4900 T330_P045-2;
#X msg 100 4930 T330_P315-2;
#X msg 100 4960 T330_P330-2;
#X msg 100 4990 T330_P345-2;
#X msg 100 5020 T345_P000-2;
#X msg 100 5050 T345_P015-2;
#X msg 100 5080 T345_P030-2;
#X msg 100 5110 T345_P045-2;
#X msg 100 5140 T345_P315-2;
#X msg 100 5170 T345_P330-2;
#X msg 100 5200 T345_P345-2;
#X obj 100 26 inlet;
#X obj 30 640 symbol;
#X obj 30 662 outlet;
#X connect 0 0 1 0;
#X connect 0 1 2 0;
#X connect 0 2 3 0;
#X connect 0 3 4 0;
#X connect 0 4 5 0;
#X connect 0 5 6 0;
#X connect 0 6 7 0;
#X connect 0 7 8 0;
#X connect 0 8 9 0;
#X connect 0 9 10 0;
#X connect 0 10 11 0;
#X connect 0 11 12 0;
#X connect 0 12 13 0;
#X connect 0 13 14 0;
#X connect 0 14 15 0;
#X connect 0 15 16 0;
#X connect 0 16 17 0;
#X connect 0 17 18 0;
#X connect 0 18 19 0;
#X connect 0 19 20 0;
#X connect 0 20 21 0;
#X connect 0 21 22 0;
#X connect 0 22 23 0;
#X connect 0 23 24 0;
#X connect 0 24 25 0;
#X connect 0 25 26 0;
#X connect 0 26 27 0;
#X connect 0 27 28 0;
#X connect 0 28 29 0;
#X connect 0 29 30 0;
#X connect 0 30 31 0;
#X connect 0 31 32 0;
#X connect 0 32 33 0;
#X connect 0 33 34 0;
#X connect 0 34 35 0;
#X connect 0 35 36 0;
#X connect 0 36 37 0;
#X connect 0 37 38 0;
#X connect 0 38 39 0;
#X connect 0 39 40 0;
#X connect 0 40 41 0;
#X connect 0 41 42 0;
#X connect 0 42 43 0;
#X connect 0 43 44 0;
#X connect 0 44 45 0;
#X connect 0 45 46 0;
#X connect 0 46 47 0;
#X connect 0 47 48 0;
#X connect 0 48 49 0;
#X connect 0 49 50 0;
#X connect 0 50 51 0;
#X connect 0 51 52 0;
#X connect 0 52 53 0;
#X connect 0 53 54 0;
#X connect 0 54 55 0;
#X connect 0 55 56 0;
#X connect 0 56 57 0;
#X connect 0 57 58 0;
#X connect 0 58 59 0;
#X connect 0 59 60 0;
#X connect 0 60 61 0;
#X connect 0 61 62 0;
#X connect 0 62 63 0;
#X connect 0 63 64 0;
#X connect 0 64 65 0;
#X connect 0 65 66 0;
#X connect 0 66 67 0;
#X connect 0 67 68 0;
#X connect 0 68 69 0;
#X connect 0 69 70 0;
#X connect 0 70 71 0;
#X connect 0 71 72 0;
#X connect 0 72 73 0;
#X connect 0 73 74 0;
#X connect 0 74 75 0;
#X connect 0 75 76 0;
#X connect 0 76 77 0;
#X connect 0 77 78 0;
#X connect 0 78 79 0;
#X connect 0 79 80 0;
#X connect 0 80 81 0;
#X connect 0 81 82 0;
#X connect 0 82 83 0;
#X connect 0 83 84 0;
#X connect 0 84 85 0;
#X connect 0 85 86 0;
#X connect 0 86 87 0;
#X connect 0 87 88 0;
#X connect 0 88 89 0;
#X connect 0 89 90 0;
#X connect 0 90 91 0;
#X connect 0 91 92 0;
#X connect 0 92 93 0;
#X connect 0 93 94 0;
#X connect 0 94 95 0;
#X connect 0 95 96 0;
#X connect 0 96 97 0;
#X connect 0 97 98 0;
#X connect 0 98 99 0;
#X connect 0 99 100 0;
#X connect 0 100 101 0;
#X connect 0 101 102 0;
#X connect 0 102 103 0;
#X connect 0 103 104 0;
#X connect 0 104 105 0;
#X connect 0 105 106 0;
#X connect 0 106 107 0;
#X connect 0 107 108 0;
#X connect 0 108 109 0;
#X connect 0 109 110 0;
#X connect 0 110 111 0;
#X connect 0 111 112 0;
#X connect 0 112 113 0;
#X connect 0 113 114 0;
#X connect 0 114 115 0;
#X connect 0 115 116 0;
#X connect 0 116 117 0;
#X connect 0 117 118 0;
#X connect 0 118 119 0;
#X connect 0 119 120 0;
#X connect 0 120 121 0;
#X connect 0 121 122 0;
#X connect 0 122 123 0;
#X connect 0 123 124 0;
#X connect 0 124 125 0;
#X connect 0 125 126 0;
#X connect 0 126 127 0;
#X connect 0 127 128 0;
#X connect 0 128 129 0;
#X connect 0 129 130 0;
#X connect 0 130 131 0;
#X connect 0 131 132 0;
#X connect 0 132 133 0;
#X connect 0 133 134 0;
#X connect 0 134 135 0;
#X connect 0 135 136 0;
#X connect 0 136 137 0;
#X connect 0 137 138 0;
#X connect 0 138 139 0;
#X connect 0 139 140 0;
#X connect 0 140 141 0;
#X connect 0 141 142 0;
#X connect 0 142 143 0;
#X connect 0 143 144 0;
#X connect 0 144 145 0;
#X connect 0 145 146 0;
#X connect 0 146 147 0;
#X connect 0 147 148 0;
#X connect 0 148 149 0;
#X connect 0 149 150 0;
#X connect 0 150 151 0;
#X connect 0 151 152 0;
#X connect 0 152 153 0;
#X connect 0 153 154 0;
#X connect 0 154 155 0;
#X connect 0 155 156 0;
#X connect 0 156 157 0;
#X connect 0 157 158 0;
#X connect 0 158 159 0;
#X connect 0 159 160 0;
#X connect 0 160 161 0;
#X connect 0 161 162 0;
#X connect 0 162 163 0;
#X connect 0 163 164 0;
#X connect 0 164 165 0;
#X connect 0 165 166 0;
#X connect 0 166 167 0;
#X connect 0 167 168 0;
#X connect 1 0 170 0;
#X connect 2 0 170 0;
#X connect 3 0 170 0;
#X connect 4 0 170 0;
#X connect 5 0 170 0;
#X connect 6 0 170 0;
#X connect 7 0 170 0;
#X connect 8 0 170 0;
#X connect 9 0 170 0;
#X connect 10 0 170 0;
#X connect 11 0 170 0;
#X connect 12 0 170 0;
#X connect 13 0 170 0;
#X connect 14 0 170 0;
#X connect 15 0 170 0;
#X connect 16 0 170 0;
#X connect 17 0 170 0;
#X connect 18 0 170 0;
#X connect 19 0 170 0;
#X connect 20 0 170 0;
#X connect 21 0 170 0;
#X connect 22 0 170 0;
#X connect 23 0 170 0;
#X connect 24 0 170 0;
#X connect 25 0 170 0;
#X connect 26 0 170 0;
#X connect 27 0 170 0;
#X connect 28 0 170 0;
#X connect 29 0 170 0;
#X connect 30 0 170 0;
#X connect 31 0 170 0;
#X connect 32 0 170 0;
#X connect 33 0 170 0;
#X connect 34 0 170 0;
#X connect 35 0 170 0;
#X connect 36 0 170 0;
#X connect 37 0 170 0;
#X connect 38 0 170 0;
#X connect 39 0 170 0;
#X connect 40 0 170 0;
#X connect 41 0 170 0;
#X connect 42 0 170 0;
#X connect 43 0 170 0;
#X connect 44 0 170 0;
#X connect 45 0 170 0;
#X connect 46 0 170 0;
#X connect 47 0 170 0;
#X connect 48 0 170 0;
#X connect 49 0 170 0;
#X connect 50 0 170 0;
#X connect 51 0 170 0;
#X connect 52 0 170 0;
#X connect 53 0 170 0;
#X connect 54 0 170 0;
#X connect 55 0 170 0;
#X connect 56 0 170 0;
#X connect 57 0 170 0;
#X connect 58 0 170 0;
#X connect 59 0 170 0;
#X connect 60 0 170 0;
#X connect 61 0 170 0;
#X connect 62 0 170 0;
#X connect 63 0 170 0;
#X connect 64 0 170 0;
#X connect 65 0 170 0;
#X connect 66 0 170 0;
#X connect 67 0 170 0;
#X connect 68 0 170 0;
#X connect 69 0 170 0;
#X connect 70 0 170 0;
#X connect 71 0 170 0;
#X connect 72 0 170 0;
#X connect 73 0 170 0;
#X connect 74 0 170 0;
#X connect 75 0 170 0;
#X connect 76 0 170 0;
#X connect 77 0 170 0;
#X connect 78 0 170 0;
#X connect 79 0 170 0;
#X connect 80 0 170 0;
#X connect 81 0 170 0;
#X connect 82 0 170 0;
#X connect 83 0 170 0;
#X connect 84 0 170 0;
#X connect 85 0 170 0;
#X connect 86 0 170 0;
#X connect 87 0 170 0;
#X connect 88 0 170 0;
#X connect 89 0 170 0;
#X connect 90 0 170 0;
#X connect 91 0 170 0;
#X connect 92 0 170 0;
#X connect 93 0 170 0;
#X connect 94 0 170 0;
#X connect 95 0 170 0;
#X connect 96 0 170 0;
#X connect 97 0 170 0;
#X connect 98 0 170 0;
#X connect 99 0 170 0;
#X connect 100 0 170 0;
#X connect 101 0 170 0;
#X connect 102 0 170 0;
#X connect 103 0 170 0;
#X connect 104 0 170 0;
#X connect 105 0 170 0;
#X connect 106 0 170 0;
#X connect 107 0 170 0;
#X connect 108 0 170 0;
#X connect 109 0 170 0;
#X connect 110 0 170 0;
#X connect 111 0 170 0;
#X connect 112 0 170 0;
#X connect 113 0 170 0;
#X connect 114 0 170 0;
#X connect 115 0 170 0;
#X connect 116 0 170 0;
#X connect 117 0 170 0;
#X connect 118 0 170 0;
#X connect 119 0 170 0;
#X connect 120 0 170 0;
#X connect 121 0 170 0;
#X connect 122 0 170 0;
#X connect 123 0 170 0;
#X connect 124 0 170 0;
#X connect 125 0 170 0;
#X connect 126 0 170 0;
#X connect 127 0 170 0;
#X connect 128 0 170 0;
#X connect 129 0 170 0;
#X connect 130 0 170 0;
#X connect 131 0 170 0;
#X connect 132 0 170 0;
#X connect 133 0 170 0;
#X connect 134 0 170 0;
#X connect 135 0 170 0;
#X connect 136 0 170 0;
#X connect 137 0 170 0;
#X connect 138 0 170 0;
#X connect 139 0 170 0;
#X connect 140 0 170 0;
#X connect 141 0 170 0;
#X connect 142 0 170 0;
#X connect 143 0 170 0;
#X connect 144 0 170 0;
#X connect 145 0 170 0;
#X connect 146 0 170 0;
#X connect 147 0 170 0;
#X connect 148 0 170 0;
#X connect 149 0 170 0;
#X connect 150 0 170 0;
#X connect 151 0 170 0;
#X connect 152 0 170 0;
#X connect 153 0 170 0;
#X connect 154 0 170 0;
#X connect 155 0 170 0;
#X connect 156 0 170 0;
#X connect 157 0 170 0;
#X connect 158 0 170 0;
#X connect 159 0 170 0;
#X connect 160 0 170 0;
#X connect 161 0 170 0;
#X connect 162 0 170 0;
#X connect 163 0 170 0;
#X connect 164 0 170 0;
#X connect 165 0 170 0;
#X connect 166 0 170 0;
#X connect 167 0 170 0;
#X connect 168 0 170 0;
#X connect 169 0 0 0;
#X connect 170 0 171 0;
#X restore 718 306 pd sub-2;
#N canvas 309 61 884 817 sub-1 0;
#X obj 97 26 sel 0 1 2 3 4 5 6 7 8 9 10 11 12 13 14 15 16 17 18 19
20 21 22 23 24 25 26 27 28 29 30 31 32 33 34 35 36 37 38 39 40 41 42
43 44 45 46 47 48 49 50 51 52 53 54 55 56 57 58 59 60 61 62 63 64 65
66 67 68 69 70 71 72 73 74 75 76 77 78 79 80 81 82 83 84 85 86 87 88
89 90 91 92 93 94 95 96 97 98 99 100 101 102 103 104 105 106 107 108
109 110 111 112 113 114 115 116 117 118 119 120 121 122 123 124 125
126 127 128 129 130 131 132 133 134 135 136 137 138 139 140 141 142
143 144 145 146 147 148 149 150 151 152 153 154 155 156 157 158 159
160 161 162 163 164 165 166 167;
#X msg 97 156 T000_P000-1;
#X msg 97 186 T000_P015-1;
#X msg 97 216 T000_P030-1;
#X msg 97 246 T000_P045-1;
#X msg 97 276 T000_P315-1;
#X msg 97 306 T000_P330-1;
#X msg 97 336 T000_P345-1;
#X msg 97 366 T015_P000-1;
#X msg 97 396 T015_P015-1;
#X msg 97 426 T015_P030-1;
#X msg 97 456 T015_P045-1;
#X msg 97 486 T015_P315-1;
#X msg 97 516 T015_P330-1;
#X msg 97 546 T015_P345-1;
#X msg 97 576 T030_P000-1;
#X msg 97 606 T030_P015-1;
#X msg 97 636 T030_P030-1;
#X msg 97 666 T030_P045-1;
#X msg 97 696 T030_P315-1;
#X msg 97 726 T030_P330-1;
#X msg 97 756 T030_P345-1;
#X msg 97 786 T045_P000-1;
#X msg 97 816 T045_P015-1;
#X msg 97 846 T045_P030-1;
#X msg 97 876 T045_P045-1;
#X msg 97 906 T045_P315-1;
#X msg 97 936 T045_P330-1;
#X msg 97 966 T045_P345-1;
#X msg 97 996 T060_P000-1;
#X msg 97 1026 T060_P015-1;
#X msg 97 1056 T060_P030-1;
#X msg 97 1086 T060_P045-1;
#X msg 97 1116 T060_P315-1;
#X msg 97 1146 T060_P330-1;
#X msg 97 1176 T060_P345-1;
#X msg 97 1206 T075_P000-1;
#X msg 97 1236 T075_P015-1;
#X msg 97 1266 T075_P030-1;
#X msg 97 1296 T075_P045-1;
#X msg 97 1326 T075_P315-1;
#X msg 97 1356 T075_P330-1;
#X msg 97 1386 T075_P345-1;
#X msg 97 1416 T090_P000-1;
#X msg 97 1446 T090_P015-1;
#X msg 97 1476 T090_P030-1;
#X msg 97 1506 T090_P045-1;
#X msg 97 1536 T090_P315-1;
#X msg 97 1566 T090_P330-1;
#X msg 97 1596 T090_P345-1;
#X msg 97 1626 T105_P000-1;
#X msg 97 1656 T105_P015-1;
#X msg 97 1686 T105_P030-1;
#X msg 97 1716 T105_P045-1;
#X msg 97 1746 T105_P315-1;
#X msg 97 1776 T105_P330-1;
#X msg 97 1806 T105_P345-1;
#X msg 97 1836 T120_P000-1;
#X msg 97 1866 T120_P015-1;
#X msg 97 1896 T120_P030-1;
#X msg 97 1926 T120_P045-1;
#X msg 97 1956 T120_P315-1;
#X msg 97 1986 T120_P330-1;
#X msg 97 2016 T120_P345-1;
#X msg 97 2046 T135_P000-1;
#X msg 97 2076 T135_P015-1;
#X msg 97 2106 T135_P030-1;
#X msg 97 2136 T135_P045-1;
#X msg 97 2166 T135_P315-1;
#X msg 97 2196 T135_P330-1;
#X msg 97 2226 T135_P345-1;
#X msg 97 2256 T150_P000-1;
#X msg 97 2286 T150_P015-1;
#X msg 97 2316 T150_P030-1;
#X msg 97 2346 T150_P045-1;
#X msg 97 2376 T150_P315-1;
#X msg 97 2406 T150_P330-1;
#X msg 97 2436 T150_P345-1;
#X msg 97 2466 T165_P000-1;
#X msg 97 2496 T165_P015-1;
#X msg 97 2526 T165_P030-1;
#X msg 97 2556 T165_P045-1;
#X msg 97 2586 T165_P315-1;
#X msg 97 2616 T165_P330-1;
#X msg 97 2646 T165_P345-1;
#X msg 97 2676 T180_P000-1;
#X msg 97 2706 T180_P015-1;
#X msg 97 2736 T180_P030-1;
#X msg 97 2766 T180_P045-1;
#X msg 97 2796 T180_P315-1;
#X msg 97 2826 T180_P330-1;
#X msg 97 2856 T180_P345-1;
#X msg 97 2886 T195_P000-1;
#X msg 97 2916 T195_P015-1;
#X msg 97 2946 T195_P030-1;
#X msg 97 2976 T195_P045-1;
#X msg 97 3006 T195_P315-1;
#X msg 97 3036 T195_P330-1;
#X msg 97 3066 T195_P345-1;
#X msg 97 3096 T210_P000-1;
#X msg 97 3126 T210_P015-1;
#X msg 97 3156 T210_P030-1;
#X msg 97 3186 T210_P045-1;
#X msg 97 3216 T210_P315-1;
#X msg 97 3246 T210_P330-1;
#X msg 97 3276 T210_P345-1;
#X msg 97 3306 T225_P000-1;
#X msg 97 3336 T225_P015-1;
#X msg 97 3366 T225_P030-1;
#X msg 97 3396 T225_P045-1;
#X msg 97 3426 T225_P315-1;
#X msg 97 3456 T225_P330-1;
#X msg 97 3486 T225_P345-1;
#X msg 97 3516 T240_P000-1;
#X msg 97 3546 T240_P015-1;
#X msg 97 3576 T240_P030-1;
#X msg 97 3606 T240_P045-1;
#X msg 97 3636 T240_P315-1;
#X msg 97 3666 T240_P330-1;
#X msg 97 3696 T240_P345-1;
#X msg 97 3726 T255_P000-1;
#X msg 97 3756 T255_P015-1;
#X msg 97 3786 T255_P030-1;
#X msg 97 3816 T255_P045-1;
#X msg 97 3846 T255_P315-1;
#X msg 97 3876 T255_P330-1;
#X msg 97 3906 T255_P345-1;
#X msg 97 3936 T270_P000-1;
#X msg 97 3966 T270_P015-1;
#X msg 97 3996 T270_P030-1;
#X msg 97 4026 T270_P045-1;
#X msg 97 4056 T270_P315-1;
#X msg 97 4086 T270_P330-1;
#X msg 97 4116 T270_P345-1;
#X msg 97 4146 T285_P000-1;
#X msg 97 4176 T285_P015-1;
#X msg 97 4206 T285_P030-1;
#X msg 97 4236 T285_P045-1;
#X msg 97 4266 T285_P315-1;
#X msg 97 4296 T285_P330-1;
#X msg 97 4326 T285_P345-1;
#X msg 97 4356 T300_P000-1;
#X msg 97 4386 T300_P015-1;
#X msg 97 4416 T300_P030-1;
#X msg 97 4446 T300_P045-1;
#X msg 97 4476 T300_P315-1;
#X msg 97 4506 T300_P330-1;
#X msg 97 4536 T300_P345-1;
#X msg 97 4566 T315_P000-1;
#X msg 97 4596 T315_P015-1;
#X msg 97 4626 T315_P030-1;
#X msg 97 4656 T315_P045-1;
#X msg 97 4686 T315_P315-1;
#X msg 97 4716 T315_P330-1;
#X msg 97 4746 T315_P345-1;
#X msg 97 4776 T330_P000-1;
#X msg 97 4806 T330_P015-1;
#X msg 97 4836 T330_P030-1;
#X msg 97 4866 T330_P045-1;
#X msg 97 4896 T330_P315-1;
#X msg 97 4926 T330_P330-1;
#X msg 97 4956 T330_P345-1;
#X msg 97 4986 T345_P000-1;
#X msg 97 5016 T345_P015-1;
#X msg 97 5046 T345_P030-1;
#X msg 97 5076 T345_P045-1;
#X msg 97 5106 T345_P315-1;
#X msg 97 5136 T345_P330-1;
#X msg 97 5166 T345_P345-1;
#X obj 97 2 inlet;
#X obj 27 606 symbol;
#X obj 27 628 outlet;
#X connect 0 0 1 0;
#X connect 0 1 2 0;
#X connect 0 2 3 0;
#X connect 0 3 4 0;
#X connect 0 4 5 0;
#X connect 0 5 6 0;
#X connect 0 6 7 0;
#X connect 0 7 8 0;
#X connect 0 8 9 0;
#X connect 0 9 10 0;
#X connect 0 10 11 0;
#X connect 0 11 12 0;
#X connect 0 12 13 0;
#X connect 0 13 14 0;
#X connect 0 14 15 0;
#X connect 0 15 16 0;
#X connect 0 16 17 0;
#X connect 0 17 18 0;
#X connect 0 18 19 0;
#X connect 0 19 20 0;
#X connect 0 20 21 0;
#X connect 0 21 22 0;
#X connect 0 22 23 0;
#X connect 0 23 24 0;
#X connect 0 24 25 0;
#X connect 0 25 26 0;
#X connect 0 26 27 0;
#X connect 0 27 28 0;
#X connect 0 28 29 0;
#X connect 0 29 30 0;
#X connect 0 30 31 0;
#X connect 0 31 32 0;
#X connect 0 32 33 0;
#X connect 0 33 34 0;
#X connect 0 34 35 0;
#X connect 0 35 36 0;
#X connect 0 36 37 0;
#X connect 0 37 38 0;
#X connect 0 38 39 0;
#X connect 0 39 40 0;
#X connect 0 40 41 0;
#X connect 0 41 42 0;
#X connect 0 42 43 0;
#X connect 0 43 44 0;
#X connect 0 44 45 0;
#X connect 0 45 46 0;
#X connect 0 46 47 0;
#X connect 0 47 48 0;
#X connect 0 48 49 0;
#X connect 0 49 50 0;
#X connect 0 50 51 0;
#X connect 0 51 52 0;
#X connect 0 52 53 0;
#X connect 0 53 54 0;
#X connect 0 54 55 0;
#X connect 0 55 56 0;
#X connect 0 56 57 0;
#X connect 0 57 58 0;
#X connect 0 58 59 0;
#X connect 0 59 60 0;
#X connect 0 60 61 0;
#X connect 0 61 62 0;
#X connect 0 62 63 0;
#X connect 0 63 64 0;
#X connect 0 64 65 0;
#X connect 0 65 66 0;
#X connect 0 66 67 0;
#X connect 0 67 68 0;
#X connect 0 68 69 0;
#X connect 0 69 70 0;
#X connect 0 70 71 0;
#X connect 0 71 72 0;
#X connect 0 72 73 0;
#X connect 0 73 74 0;
#X connect 0 74 75 0;
#X connect 0 75 76 0;
#X connect 0 76 77 0;
#X connect 0 77 78 0;
#X connect 0 78 79 0;
#X connect 0 79 80 0;
#X connect 0 80 81 0;
#X connect 0 81 82 0;
#X connect 0 82 83 0;
#X connect 0 83 84 0;
#X connect 0 84 85 0;
#X connect 0 85 86 0;
#X connect 0 86 87 0;
#X connect 0 87 88 0;
#X connect 0 88 89 0;
#X connect 0 89 90 0;
#X connect 0 90 91 0;
#X connect 0 91 92 0;
#X connect 0 92 93 0;
#X connect 0 93 94 0;
#X connect 0 94 95 0;
#X connect 0 95 96 0;
#X connect 0 96 97 0;
#X connect 0 97 98 0;
#X connect 0 98 99 0;
#X connect 0 99 100 0;
#X connect 0 100 101 0;
#X connect 0 101 102 0;
#X connect 0 102 103 0;
#X connect 0 103 104 0;
#X connect 0 104 105 0;
#X connect 0 105 106 0;
#X connect 0 106 107 0;
#X connect 0 107 108 0;
#X connect 0 108 109 0;
#X connect 0 109 110 0;
#X connect 0 110 111 0;
#X connect 0 111 112 0;
#X connect 0 112 113 0;
#X connect 0 113 114 0;
#X connect 0 114 115 0;
#X connect 0 115 116 0;
#X connect 0 116 117 0;
#X connect 0 117 118 0;
#X connect 0 118 119 0;
#X connect 0 119 120 0;
#X connect 0 120 121 0;
#X connect 0 121 122 0;
#X connect 0 122 123 0;
#X connect 0 123 124 0;
#X connect 0 124 125 0;
#X connect 0 125 126 0;
#X connect 0 126 127 0;
#X connect 0 127 128 0;
#X connect 0 128 129 0;
#X connect 0 129 130 0;
#X connect 0 130 131 0;
#X connect 0 131 132 0;
#X connect 0 132 133 0;
#X connect 0 133 134 0;
#X connect 0 134 135 0;
#X connect 0 135 136 0;
#X connect 0 136 137 0;
#X connect 0 137 138 0;
#X connect 0 138 139 0;
#X connect 0 139 140 0;
#X connect 0 140 141 0;
#X connect 0 141 142 0;
#X connect 0 142 143 0;
#X connect 0 143 144 0;
#X connect 0 144 145 0;
#X connect 0 145 146 0;
#X connect 0 146 147 0;
#X connect 0 147 148 0;
#X connect 0 148 149 0;
#X connect 0 149 150 0;
#X connect 0 150 151 0;
#X connect 0 151 152 0;
#X connect 0 152 153 0;
#X connect 0 153 154 0;
#X connect 0 154 155 0;
#X connect 0 155 156 0;
#X connect 0 156 157 0;
#X connect 0 157 158 0;
#X connect 0 158 159 0;
#X connect 0 159 160 0;
#X connect 0 160 161 0;
#X connect 0 161 162 0;
#X connect 0 162 163 0;
#X connect 0 163 164 0;
#X connect 0 164 165 0;
#X connect 0 165 166 0;
#X connect 0 166 167 0;
#X connect 0 167 168 0;
#X connect 1 0 170 0;
#X connect 2 0 170 0;
#X connect 3 0 170 0;
#X connect 4 0 170 0;
#X connect 5 0 170 0;
#X connect 6 0 170 0;
#X connect 7 0 170 0;
#X connect 8 0 170 0;
#X connect 9 0 170 0;
#X connect 10 0 170 0;
#X connect 11 0 170 0;
#X connect 12 0 170 0;
#X connect 13 0 170 0;
#X connect 14 0 170 0;
#X connect 15 0 170 0;
#X connect 16 0 170 0;
#X connect 17 0 170 0;
#X connect 18 0 170 0;
#X connect 19 0 170 0;
#X connect 20 0 170 0;
#X connect 21 0 170 0;
#X connect 22 0 170 0;
#X connect 23 0 170 0;
#X connect 24 0 170 0;
#X connect 25 0 170 0;
#X connect 26 0 170 0;
#X connect 27 0 170 0;
#X connect 28 0 170 0;
#X connect 29 0 170 0;
#X connect 30 0 170 0;
#X connect 31 0 170 0;
#X connect 32 0 170 0;
#X connect 33 0 170 0;
#X connect 34 0 170 0;
#X connect 35 0 170 0;
#X connect 36 0 170 0;
#X connect 37 0 170 0;
#X connect 38 0 170 0;
#X connect 39 0 170 0;
#X connect 40 0 170 0;
#X connect 41 0 170 0;
#X connect 42 0 170 0;
#X connect 43 0 170 0;
#X connect 44 0 170 0;
#X connect 45 0 170 0;
#X connect 46 0 170 0;
#X connect 47 0 170 0;
#X connect 48 0 170 0;
#X connect 49 0 170 0;
#X connect 50 0 170 0;
#X connect 51 0 170 0;
#X connect 52 0 170 0;
#X connect 53 0 170 0;
#X connect 54 0 170 0;
#X connect 55 0 170 0;
#X connect 56 0 170 0;
#X connect 57 0 170 0;
#X connect 58 0 170 0;
#X connect 59 0 170 0;
#X connect 60 0 170 0;
#X connect 61 0 170 0;
#X connect 62 0 170 0;
#X connect 63 0 170 0;
#X connect 64 0 170 0;
#X connect 65 0 170 0;
#X connect 66 0 170 0;
#X connect 67 0 170 0;
#X connect 68 0 170 0;
#X connect 69 0 170 0;
#X connect 70 0 170 0;
#X connect 71 0 170 0;
#X connect 72 0 170 0;
#X connect 73 0 170 0;
#X connect 74 0 170 0;
#X connect 75 0 170 0;
#X connect 76 0 170 0;
#X connect 77 0 170 0;
#X connect 78 0 170 0;
#X connect 79 0 170 0;
#X connect 80 0 170 0;
#X connect 81 0 170 0;
#X connect 82 0 170 0;
#X connect 83 0 170 0;
#X connect 84 0 170 0;
#X connect 85 0 170 0;
#X connect 86 0 170 0;
#X connect 87 0 170 0;
#X connect 88 0 170 0;
#X connect 89 0 170 0;
#X connect 90 0 170 0;
#X connect 91 0 170 0;
#X connect 92 0 170 0;
#X connect 93 0 170 0;
#X connect 94 0 170 0;
#X connect 95 0 170 0;
#X connect 96 0 170 0;
#X connect 97 0 170 0;
#X connect 98 0 170 0;
#X connect 99 0 170 0;
#X connect 100 0 170 0;
#X connect 101 0 170 0;
#X connect 102 0 170 0;
#X connect 103 0 170 0;
#X connect 104 0 170 0;
#X connect 105 0 170 0;
#X connect 106 0 170 0;
#X connect 107 0 170 0;
#X connect 108 0 170 0;
#X connect 109 0 170 0;
#X connect 110 0 170 0;
#X connect 111 0 170 0;
#X connect 112 0 170 0;
#X connect 113 0 170 0;
#X connect 114 0 170 0;
#X connect 115 0 170 0;
#X connect 116 0 170 0;
#X connect 117 0 170 0;
#X connect 118 0 170 0;
#X connect 119 0 170 0;
#X connect 120 0 170 0;
#X connect 121 0 170 0;
#X connect 122 0 170 0;
#X connect 123 0 170 0;
#X connect 124 0 170 0;
#X connect 125 0 170 0;
#X connect 126 0 170 0;
#X connect 127 0 170 0;
#X connect 128 0 170 0;
#X connect 129 0 170 0;
#X connect 130 0 170 0;
#X connect 131 0 170 0;
#X connect 132 0 170 0;
#X connect 133 0 170 0;
#X connect 134 0 170 0;
#X connect 135 0 170 0;
#X connect 136 0 170 0;
#X connect 137 0 170 0;
#X connect 138 0 170 0;
#X connect 139 0 170 0;
#X connect 140 0 170 0;
#X connect 141 0 170 0;
#X connect 142 0 170 0;
#X connect 143 0 170 0;
#X connect 144 0 170 0;
#X connect 145 0 170 0;
#X connect 146 0 170 0;
#X connect 147 0 170 0;
#X connect 148 0 170 0;
#X connect 149 0 170 0;
#X connect 150 0 170 0;
#X connect 151 0 170 0;
#X connect 152 0 170 0;
#X connect 153 0 170 0;
#X connect 154 0 170 0;
#X connect 155 0 170 0;
#X connect 156 0 170 0;
#X connect 157 0 170 0;
#X connect 158 0 170 0;
#X connect 159 0 170 0;
#X connect 160 0 170 0;
#X connect 161 0 170 0;
#X connect 162 0 170 0;
#X connect 163 0 170 0;
#X connect 164 0 170 0;
#X connect 165 0 170 0;
#X connect 166 0 170 0;
#X connect 167 0 170 0;
#X connect 168 0 170 0;
#X connect 169 0 0 0;
#X connect 170 0 171 0;
#X restore 662 305 pd sub-1;
#X obj 662 261 +;
#X obj 689 224 mod 7;
#X obj 662 208 f;
#X obj 662 177 t b f;
#X obj 662 235 * 7;
#X floatatom 437 227 5 0 0 0 - - -, f 5;
#X obj 662 283 t f f;
#X symbolatom 649 342 15 0 0 0 - - -, f 15;
#X symbolatom 659 359 15 0 0 0 - - -, f 15;
#X obj 424 294 s ir-loader;
#X connect 2 0 11 0;
#X connect 3 0 12 0;
#X connect 4 0 6 0;
#X connect 4 0 31 0;
#X connect 5 0 13 0;
#X connect 6 0 5 0;
#X connect 6 1 7 0;
#X connect 7 0 5 0;
#X connect 8 0 15 0;
#X connect 8 0 16 0;
#X connect 9 0 10 0;
#X connect 10 0 21 0;
#X connect 10 1 4 0;
#X connect 10 2 11 1;
#X connect 10 2 12 1;
#X connect 11 0 22 0;
#X connect 12 0 23 0;
#X connect 13 0 17 1;
#X connect 14 0 17 0;
#X connect 14 0 33 0;
#X connect 15 0 24 0;
#X connect 16 0 25 0;
#X connect 17 0 37 0;
#X connect 18 0 19 0;
#X connect 19 0 17 2;
#X connect 20 0 14 0;
#X connect 21 0 20 0;
#X connect 21 0 30 0;
#X connect 24 0 2 0;
#X connect 25 0 3 0;
#X connect 26 0 25 1;
#X connect 26 0 36 0;
#X connect 27 0 35 0;
#X connect 27 0 24 1;
#X connect 28 0 34 0;
#X connect 29 0 28 1;
#X connect 30 0 32 0;
#X connect 31 0 30 0;
#X connect 31 1 29 0;
#X connect 32 0 28 0;
#X connect 34 0 27 0;
#X connect 34 1 26 0;
