#N canvas 537 135 771 595 10;
#X obj 169 57 inlet;
#X obj 169 489 outlet~;
#N canvas 870 111 864 729 trigger-sample 0;
#X text 20 155 Wait for the;
#X text 18 169 cutoff to finish;
#X text 41 447 set the upper line~ to start;
#X text 40 466 at the first sample and go;
#X text 39 487 forever (until the next trigger);
#X obj 142 211 t b b;
#X obj 297 626 s \$0-phase;
#X obj 142 315 s \$0-cutoff;
#X obj 142 53 inlet;
#X obj 174 136 s \$0-cutoff;
#X text 17 118 cut the sound off;
#X obj 142 266 f;
#X obj 264 55 inlet;
#X obj 142 77 t b b;
#X text 269 35 gain;
#X obj 315 57 inlet;
#X text 314 35 transpos;
#X obj 297 454 * 1e+07;
#X obj 299 435 f 1;
#X obj 345 303 moses 0;
#X obj 486 610 s \$0-phase;
#X obj 486 457 * 1e+07;
#X obj 487 438 f 1;
#X obj 503 416 abs;
#X obj 315 78 t a a;
#X obj 299 307 < 0;
#X obj 299 331 select 0 1;
#X obj 299 285 f;
#X obj 345 273 pow -1;
#X obj 142 164 delay 2;
#X obj 429 51 inlet;
#X text 426 31 start;
#X obj 578 50 inlet;
#X obj 297 561 + 0;
#X text 490 126 ms to samples;
#X floatatom 325 106 5 0 0 0 - - -, f 5;
#X text 575 30 duration;
#X obj 578 81 select 0;
#X obj 631 130 delay;
#X obj 735 45 inlet;
#X text 732 24 loops;
#X obj 686 164 outlet;
#X obj 631 104 - 2;
#X obj 686 131 delay 2;
#X obj 486 559 + 0;
#X msg 578 105 stop;
#X obj 475 99 / 1000;
#X obj 475 78 r \$0-sr;
#X msg 486 500 1 0 \, \$2 \$1;
#X obj 602 435 r \$0-sr;
#X obj 602 456 * -10000;
#X obj 406 435 r \$0-sr;
#X obj 406 456 * 10000;
#X floatatom 506 172 5 0 0 0 - - -, f 5;
#X msg 297 506 1 0 \, \$2 \$1;
#X obj 686 97 r \$0-stop;
#X obj 243 112 r \$0-fade;
#X obj 631 222 s \$0-cutoff;
#X obj 700 198 r \$0-fade;
#X obj 649 73 r \$0-fade;
#X floatatom 406 478 9 0 0 0 - - -, f 9;
#X msg 382 415 44100;
#X obj 429 126 * 48;
#X obj 486 531 unpack f f;
#X obj 297 533 unpack f f;
#X obj 297 589 pack f f;
#X obj 486 580 pack f f;
#X obj 297 479 pack f f;
#X obj 486 478 pack f f;
#X obj 631 198 pack f f;
#X obj 174 112 pack f f;
#X connect 5 0 11 0;
#X connect 5 1 27 0;
#X connect 8 0 13 0;
#X connect 11 0 7 0;
#X connect 12 0 11 1;
#X connect 13 0 29 0;
#X connect 13 1 70 0;
#X connect 15 0 24 0;
#X connect 17 0 67 0;
#X connect 18 0 17 0;
#X connect 19 0 23 0;
#X connect 19 1 18 1;
#X connect 21 0 68 0;
#X connect 22 0 21 0;
#X connect 23 0 22 1;
#X connect 24 0 27 1;
#X connect 24 0 35 0;
#X connect 24 1 28 0;
#X connect 25 0 26 0;
#X connect 26 0 18 0;
#X connect 26 1 22 0;
#X connect 27 0 25 0;
#X connect 28 0 19 0;
#X connect 29 0 5 0;
#X connect 30 0 62 0;
#X connect 32 0 37 0;
#X connect 33 0 65 0;
#X connect 37 0 45 0;
#X connect 37 1 42 0;
#X connect 38 0 43 0;
#X connect 38 0 69 0;
#X connect 42 0 38 0;
#X connect 43 0 41 0;
#X connect 44 0 66 0;
#X connect 45 0 38 0;
#X connect 46 0 53 0;
#X connect 46 0 62 1;
#X connect 47 0 46 0;
#X connect 48 0 63 0;
#X connect 49 0 50 0;
#X connect 50 0 68 1;
#X connect 51 0 52 0;
#X connect 52 0 60 0;
#X connect 52 0 67 1;
#X connect 54 0 64 0;
#X connect 55 0 38 0;
#X connect 55 0 43 0;
#X connect 56 0 29 1;
#X connect 56 0 70 1;
#X connect 58 0 69 1;
#X connect 59 0 42 1;
#X connect 59 0 43 1;
#X connect 61 0 52 0;
#X connect 62 0 33 1;
#X connect 62 0 44 1;
#X connect 63 0 44 0;
#X connect 63 1 66 1;
#X connect 64 0 33 0;
#X connect 64 1 65 1;
#X connect 65 0 6 0;
#X connect 66 0 20 0;
#X connect 67 0 54 0;
#X connect 68 0 48 0;
#X connect 69 0 57 0;
#X connect 70 0 9 0;
#X restore 192 238 pd trigger-sample;
#X obj 186 417 r \$0-cutoff;
#X obj 169 459 *~;
#X obj 75 302 r \$0-phase;
#X text 162 19 IN: tablename gain transposition start(ms) duration(ms)
loop(0/1);
#N canvas 245 484 750 421 defaults 0;
#X obj 158 237 select 0;
#X msg 158 260 1;
#X obj 118 47 inlet;
#X text 165 329 gain;
#X text 227 339 transpos;
#X text 322 335 start;
#X text 382 343 duration;
#X obj 158 313 outlet;
#X obj 231 237 select 0;
#X msg 231 260 1;
#X obj 231 313 outlet;
#X obj 323 311 outlet;
#X obj 385 315 outlet;
#X obj 458 315 outlet;
#X text 454 346 loops;
#X text 457 365 later;
#X obj 158 115 t a b;
#X text 268 137 defaults: gain 1 \, trans 1 \, start 0 \, dur 0==all
\, loops 0;
#X msg 190 138 1 1 0 0 0;
#X msg 118 69 bang;
#X obj 158 176 unpack f f f f f;
#X connect 0 0 1 0;
#X connect 0 1 7 0;
#X connect 1 0 7 0;
#X connect 2 0 19 0;
#X connect 8 0 9 0;
#X connect 8 1 10 0;
#X connect 9 0 10 0;
#X connect 16 0 20 0;
#X connect 16 1 18 0;
#X connect 18 0 20 0;
#X connect 19 0 16 0;
#X connect 20 0 0 0;
#X connect 20 1 8 0;
#X connect 20 2 11 0;
#X connect 20 3 12 0;
#X connect 20 4 13 0;
#X restore 215 199 pd defaults;
#X obj 169 85 route bang;
#X obj 233 490 outlet;
#X text 231 509 bangs at end of duration \, if specified;
#X obj 169 167 t a a a;
#X obj 26 273 r \$0-stop;
#X msg 169 339 set \$1;
#X obj 75 336 line~;
#X obj 186 437 line~;
#X obj 169 384 tabread4~ \$1;
#X obj 379 120 loadbang;
#X obj 379 164 s \$0-sr;
#X msg 459 142 2;
#X obj 459 164 s \$0-fade;
#X obj 379 142 samplerate~;
#X connect 0 0 8 0;
#X connect 2 0 9 0;
#X connect 3 0 15 0;
#X connect 4 0 1 0;
#X connect 5 0 14 0;
#X connect 7 0 2 1;
#X connect 7 1 2 2;
#X connect 7 2 2 3;
#X connect 7 3 2 4;
#X connect 7 4 2 5;
#X connect 8 0 11 0;
#X connect 8 1 11 0;
#X connect 11 0 13 0;
#X connect 11 1 2 0;
#X connect 11 2 7 0;
#X connect 12 0 14 0;
#X connect 13 0 16 0;
#X connect 14 0 16 0;
#X connect 15 0 4 1;
#X connect 16 0 4 0;
#X connect 17 0 19 0;
#X connect 17 0 21 0;
#X connect 19 0 20 0;
#X connect 21 0 18 0;
