#N canvas 432 348 515 522 10;
#X obj 75 282 osc~;
#X obj 75 304 *~ 0.3;
#X obj 75 326 *~;
#X msg 113 254 0 1 \, 1 5 1 \, 0 100 50;
#X obj 113 277 vline~;
#X obj 75 19 r note-\$1;
#X obj 75 41 t b b;
#X obj 75 63 \$1;
#X obj 75 237 mtof;
#X obj 75 259 sig~;
#X obj 263 200 sin;
#X obj 313 200 cos;
#X obj 263 171 t f f;
#X obj 263 40 loadbang;
#X obj 263 62 \$1;
#X obj 263 292 pack f f;
#X obj 75 391 3d-pos;
#X obj 263 258 + 0.5;
#X obj 313 258 + 0.5;
#X obj 263 228 * 0.2;
#X obj 313 228 * 0.2;
#X obj 263 136 * 0.0174533;
#X text 336 136 Degrees to radians;
#X obj 139 208 bng 15 250 50 0 empty empty empty 17 7 0 10 -262144
-1 -1;
#X obj 75 155 tabread scale;
#X obj 263 106 * 25.71;
#X obj 75 111 mod 5;
#X obj 137 107 div 5;
#X obj 75 85 t f f;
#X obj 137 129 * 12;
#X obj 75 177 + 0;
#X obj 75 200 + 48;
#X floatatom 327 163 5 0 0 0 - - -, f 5;
#X connect 0 0 1 0;
#X connect 1 0 2 0;
#X connect 2 0 16 0;
#X connect 3 0 4 0;
#X connect 4 0 2 1;
#X connect 5 0 6 0;
#X connect 6 0 7 0;
#X connect 6 1 3 0;
#X connect 7 0 28 0;
#X connect 8 0 9 0;
#X connect 9 0 0 0;
#X connect 10 0 19 0;
#X connect 11 0 20 0;
#X connect 12 0 10 0;
#X connect 12 1 11 0;
#X connect 13 0 14 0;
#X connect 14 0 25 0;
#X connect 15 0 16 1;
#X connect 17 0 15 0;
#X connect 18 0 15 1;
#X connect 19 0 17 0;
#X connect 20 0 18 0;
#X connect 21 0 12 0;
#X connect 21 0 32 0;
#X connect 23 0 6 0;
#X connect 24 0 30 0;
#X connect 25 0 21 0;
#X connect 26 0 24 0;
#X connect 27 0 29 0;
#X connect 28 0 26 0;
#X connect 28 1 27 0;
#X connect 29 0 30 1;
#X connect 30 0 31 0;
#X connect 31 0 8 0;
