#N canvas 432 348 479 668 10;
#X obj 75 327 osc~;
#X obj 75 539 *~ 0.3;
#X obj 75 561 *~;
#X msg 113 299 0 1 \, 1 5 1 \, 0 100 50;
#X obj 113 322 vline~;
#X obj 75 19 r note-\$1;
#X obj 75 41 t b b;
#X obj 75 63 \$1;
#X obj 75 282 mtof;
#X obj 75 304 sig~;
#X obj 263 200 sin;
#X obj 313 200 cos;
#X obj 263 171 t f f;
#X obj 263 40 loadbang;
#X obj 263 62 \$1;
#X obj 263 302 pack f f;
#X obj 263 258 + 0.5;
#X obj 313 258 + 0.5;
#X obj 263 228 * 0.2;
#X obj 313 228 * 0.2;
#X obj 263 136 * 0.0174533;
#X text 336 136 Degrees to radians;
#X obj 75 155 tabread scale;
#X obj 263 106 * 25.71;
#X obj 75 85 t f f;
#X obj 137 129 * 12;
#X obj 75 177 + 0;
#X obj 75 200 + 48;
#X floatatom 327 163 5 0 0 0 - - -;
#X obj 137 107 div 3;
#X obj 75 111 mod 3;
#X obj 90 232 r transpose;
#X obj 75 254 +;
#X obj 75 469 *~ 100;
#X obj 75 491 clip~ -1 1;
#X obj 75 513 *~ 0.4;
#X obj 131 378 sig~;
#X obj 75 449 +~;
#X obj 201 377 r pwm-amt;
#X obj 131 354 r pwm-freq;
#X obj 131 401 osc~ 4.54;
#X obj 131 423 *~ 0.22;
#X obj 75 596 3d-pos \$2;
#X connect 0 0 37 0;
#X connect 1 0 2 0;
#X connect 2 0 42 0;
#X connect 3 0 4 0;
#X connect 4 0 2 1;
#X connect 5 0 6 0;
#X connect 6 0 7 0;
#X connect 6 1 3 0;
#X connect 7 0 24 0;
#X connect 8 0 9 0;
#X connect 9 0 0 0;
#X connect 10 0 18 0;
#X connect 11 0 19 0;
#X connect 12 0 10 0;
#X connect 12 1 11 0;
#X connect 13 0 14 0;
#X connect 14 0 23 0;
#X connect 16 0 15 0;
#X connect 17 0 15 1;
#X connect 18 0 16 0;
#X connect 19 0 17 0;
#X connect 20 0 12 0;
#X connect 20 0 28 0;
#X connect 22 0 26 0;
#X connect 23 0 20 0;
#X connect 24 0 30 0;
#X connect 24 1 29 0;
#X connect 25 0 26 1;
#X connect 26 0 27 0;
#X connect 27 0 32 0;
#X connect 29 0 25 0;
#X connect 30 0 22 0;
#X connect 31 0 32 1;
#X connect 32 0 8 0;
#X connect 33 0 34 0;
#X connect 34 0 35 0;
#X connect 35 0 1 0;
#X connect 36 0 40 0;
#X connect 37 0 33 0;
#X connect 38 0 41 1;
#X connect 39 0 36 0;
#X connect 40 0 41 0;
#X connect 41 0 37 1;
