#N canvas 206 179 476 710 10;
#X obj 75 327 osc~;
#X obj 75 609 *~ 0.3;
#X obj 75 631 *~;
#X obj 75 19 r note-\$1;
#X obj 75 41 t b b;
#X obj 75 63 \$1;
#X obj 75 282 mtof;
#X obj 75 304 sig~;
#X obj 75 155 tabread scale;
#X obj 75 85 t f f;
#X obj 137 129 * 12;
#X obj 75 177 + 0;
#X obj 75 200 + 48;
#X obj 137 107 div 3;
#X obj 75 111 mod 3;
#X obj 90 232 r transpose;
#X obj 75 254 +;
#X obj 75 539 *~ 100;
#X obj 75 561 clip~ -1 1;
#X obj 75 583 *~ 0.4;
#X obj 131 448 sig~;
#X obj 75 519 +~;
#X obj 201 447 r pwm-amt;
#X obj 131 424 r pwm-freq;
#X obj 131 471 osc~ 4.54;
#X obj 131 493 *~ 0.22;
#X obj 113 392 vline;
#X msg 113 299 0 1 1 5 1 0 50 50;
#X obj 75 655 outlet~;
#X connect 0 0 21 0;
#X connect 1 0 2 0;
#X connect 2 0 28 0;
#X connect 3 0 4 0;
#X connect 4 0 5 0;
#X connect 4 1 27 0;
#X connect 5 0 9 0;
#X connect 6 0 7 0;
#X connect 7 0 0 0;
#X connect 8 0 11 0;
#X connect 9 0 14 0;
#X connect 9 1 13 0;
#X connect 10 0 11 1;
#X connect 11 0 12 0;
#X connect 12 0 16 0;
#X connect 13 0 10 0;
#X connect 14 0 8 0;
#X connect 15 0 16 1;
#X connect 16 0 6 0;
#X connect 17 0 18 0;
#X connect 18 0 19 0;
#X connect 19 0 1 0;
#X connect 20 0 24 0;
#X connect 21 0 17 0;
#X connect 22 0 25 1;
#X connect 23 0 20 0;
#X connect 24 0 25 0;
#X connect 25 0 21 1;
#X connect 26 0 2 1;
#X connect 27 0 26 0;
