#N canvas 0 22 473 589 10;
#X obj 130 422 *~;
#X obj 93 135 noise~;
#X obj 181 350 loadbang;
#X obj 86 180 /~;
#X obj 87 253 clip~ -1 1;
#X obj 44 157 lop~ 110;
#X obj 105 156 lop~ 900;
#X obj 150 79 noise~;
#X obj 149 129 /~;
#X obj 107 106 lop~ 50;
#X obj 168 105 lop~ 70;
#X obj 87 200 *~;
#X obj 176 130 lop~ 10;
#X obj 175 151 *~ 17;
#X obj 174 174 *~;
#X obj 87 223 *~;
#X obj 173 196 +~ 0.5;
#X obj 76 37 inlet~;
#X obj 130 469 outlet~;
#X obj 86 275 hip~ 300;
#X obj 169 299 +~ 700;
#X obj 169 275 *~ 9000;
#X msg 181 370 0.5;
#X obj 130 445 *~ 0.2;
#X obj 231 295 r tick-1;
#X obj 130 392 bp~ 200 3;
#X obj 169 321 snapshot~;
#X connect 0 0 23 0;
#X connect 1 0 5 0;
#X connect 1 0 6 0;
#X connect 2 0 22 0;
#X connect 3 0 11 0;
#X connect 4 0 19 0;
#X connect 5 0 3 0;
#X connect 6 0 3 1;
#X connect 7 0 9 0;
#X connect 7 0 10 0;
#X connect 7 0 12 0;
#X connect 8 0 11 1;
#X connect 9 0 8 0;
#X connect 10 0 8 1;
#X connect 11 0 15 0;
#X connect 12 0 13 0;
#X connect 13 0 14 0;
#X connect 13 0 14 1;
#X connect 14 0 16 0;
#X connect 15 0 4 0;
#X connect 16 0 15 1;
#X connect 17 0 0 1;
#X connect 17 0 21 0;
#X connect 19 0 25 0;
#X connect 20 0 26 0;
#X connect 21 0 20 0;
#X connect 22 0 25 2;
#X connect 23 0 18 0;
#X connect 24 0 26 0;
#X connect 25 0 0 0;
#X connect 26 0 25 1;
