#N canvas 552 232 498 329 10;
#X obj 104 96 inlet~;
#X obj 104 118 lop~ 20000;
#X obj 104 138 lop~ 20000;
#X obj 104 158 lop~ 20000;
#X obj 104 178 lop~ 20000;
#X obj 104 200 hip~ 30;
#X obj 104 222 hip~ 30;
#X obj 104 244 hip~ 30;
#X obj 104 266 hip~ 30;
#X obj 104 288 outlet~;
#X obj 161 25 inlet;
#X obj 161 47 route lop hip;
#X msg 161 69 \$1 1000;
#X obj 161 91 line;
#X msg 214 69 \$1 1000;
#X obj 214 91 line;
#X connect 0 0 1 0;
#X connect 1 0 2 0;
#X connect 2 0 3 0;
#X connect 3 0 4 0;
#X connect 4 0 5 0;
#X connect 5 0 6 0;
#X connect 6 0 7 0;
#X connect 7 0 8 0;
#X connect 8 0 9 0;
#X connect 10 0 11 0;
#X connect 11 0 12 0;
#X connect 11 1 14 0;
#X connect 12 0 13 0;
#X connect 13 0 1 1;
#X connect 13 0 2 1;
#X connect 13 0 3 1;
#X connect 13 0 4 1;
#X connect 14 0 15 0;
#X connect 15 0 5 1;
#X connect 15 0 6 1;
#X connect 15 0 7 1;
#X connect 15 0 8 1;
