#N canvas 19 22 450 300 10;
#X obj 97 38 inlet;
#X obj 97 60 unpack f f f f f f f f f f f;
#X obj 97 152 pack f f;
#X msg 97 174 \$1 \$2;
#X obj 97 216 line~;
#X obj 97 238 outlet~;
#X obj 157 121 del;
#X obj 157 152 pack f f f;
#X obj 157 85 t b f;
#X msg 157 174 \$2 \$3;
#X obj 227 121 del;
#X obj 227 152 pack f f f;
#X obj 227 85 t b f;
#X msg 227 174 \$2 \$3;
#X obj 297 121 del;
#X obj 297 152 pack f f f;
#X obj 297 85 t b f;
#X msg 297 174 \$2 \$3;
#X floatatom 197 224 5 0 0 0 - - -;
#X connect 0 0 1 0;
#X connect 1 0 2 0;
#X connect 1 1 2 1;
#X connect 1 2 7 1;
#X connect 1 3 7 2;
#X connect 1 4 8 0;
#X connect 1 5 11 1;
#X connect 1 6 11 2;
#X connect 1 7 12 0;
#X connect 1 8 15 1;
#X connect 1 9 15 2;
#X connect 1 10 16 0;
#X connect 2 0 3 0;
#X connect 3 0 4 0;
#X connect 4 0 5 0;
#X connect 6 0 7 0;
#X connect 7 0 9 0;
#X connect 8 0 6 0;
#X connect 8 1 6 1;
#X connect 8 1 18 0;
#X connect 9 0 4 0;
#X connect 10 0 11 0;
#X connect 11 0 13 0;
#X connect 12 0 10 0;
#X connect 12 1 10 1;
#X connect 13 0 4 0;
#X connect 14 0 15 0;
#X connect 15 0 17 0;
#X connect 16 0 14 0;
#X connect 16 1 14 1;
