#N canvas 492 118 597 691 10;
#X obj 81 177 sel 0;
#X obj 81 85 mod \$2;
#X obj 81 12 r tick-later;
#X obj 81 406 symbol \$1;
#X obj 81 199 spigot 1;
#X obj 81 221 t b b;
#X obj 138 207 f \$6;
#X obj 81 513 dac~;
#X obj 121 461 symbol \$4;
#X obj 81 334 spigot 1;
#X obj 81 431 s_playtable \$1;
#X obj 121 485 s_playtable \$4;
#X connect 0 0 4 0;
#X connect 1 0 0 0;
#X connect 2 0 1 0;
#X connect 3 0 10 0;
#X connect 4 0 5 0;
#X connect 5 0 9 0;
#X connect 5 1 6 0;
#X connect 6 0 4 1;
#X connect 8 0 11 0;
#X connect 9 0 3 0;
#X connect 9 0 8 0;
#X connect 10 0 7 0;
#X connect 11 0 7 1;
