#N canvas 683 233 408 406 10;
#X obj 35 34 r js-soundfiler;
#X obj 35 56 unpack f f f;
#X obj 80 135 moses 100;
#X obj 35 114 moses 10;
#X msg 35 158 T00\$1;
#X msg 80 158 T0\$1;
#X msg 131 165 T\$1;
#X obj 221 153 moses 100;
#X obj 176 132 moses 10;
#X msg 176 176 P00\$1;
#X msg 221 176 P0\$1;
#X msg 272 183 P\$1;
#X obj 176 229 symbol;
#X obj 176 107 change -1;
#X obj 35 88 change -1;
#X obj 35 292 pack s s f;
#X obj 35 350 soundfiler;
#X msg 35 315 read abs/IRC_1018_C/IRC_1018_C_R0195_\$1_\$2.wav \$3-leftIR
\$3-rightIR;
#X connect 0 0 1 0;
#X connect 1 0 14 0;
#X connect 1 1 13 0;
#X connect 1 2 15 2;
#X connect 2 0 5 0;
#X connect 2 1 6 0;
#X connect 3 0 4 0;
#X connect 3 1 2 0;
#X connect 4 0 15 0;
#X connect 5 0 15 0;
#X connect 6 0 15 0;
#X connect 7 0 10 0;
#X connect 7 1 11 0;
#X connect 8 0 9 0;
#X connect 8 1 7 0;
#X connect 9 0 12 0;
#X connect 10 0 12 0;
#X connect 11 0 12 0;
#X connect 12 0 15 1;
#X connect 13 0 8 0;
#X connect 14 0 3 0;
#X connect 15 0 17 0;
#X connect 17 0 16 0;
