#N canvas 343 78 601 521 10;
#X declare -path abs;
#N canvas 0 22 450 300 init 0;
#X obj 64 41 declare -path abs;
#X restore 41 10 pd init;
#N canvas 0 22 450 300 timebase 0;
#X obj 75 83 metro 1;
#X obj 75 61 loadbang;
#X obj 75 105 s tick-1;
#X connect 0 0 2 0;
#X connect 1 0 0 0;
#X restore 41 31 pd timebase;
#N canvas 0 22 450 300 tables 0;
#N canvas 98 119 240 572 ir-tables 0;
#X obj 73 494 ir-tables T345;
#X obj 73 114 ir-tables T060;
#X obj 73 354 ir-tables T240;
#X obj 73 34 ir-tables T000;
#X obj 73 54 ir-tables T015;
#X obj 73 74 ir-tables T030;
#X obj 73 94 ir-tables T045;
#X obj 73 134 ir-tables T075;
#X obj 73 154 ir-tables T090;
#X obj 73 194 ir-tables T120;
#X obj 73 174 ir-tables T105;
#X obj 73 214 ir-tables T135;
#X obj 73 234 ir-tables T150;
#X obj 73 254 ir-tables T165;
#X obj 73 274 ir-tables T180;
#X obj 73 294 ir-tables T195;
#X obj 73 314 ir-tables T210;
#X obj 73 334 ir-tables T225;
#X obj 73 374 ir-tables T255;
#X obj 73 394 ir-tables T270;
#X obj 73 414 ir-tables T285;
#X obj 73 434 ir-tables T300;
#X obj 73 454 ir-tables T315;
#X obj 73 474 ir-tables T330;
#X restore 63 180 pd ir-tables;
#X obj 62 82 table 3DTI-intro-pt1;
#X obj 62 102 table 3DTI-intro-pt2;
#X obj 62 122 table cafe-chat-1;
#X obj 62 142 table cafe-chat-2;
#X restore 41 53 pd tables;
#X obj 42 200 cnv 15 175 72 empty empty empty 20 12 0 14 -261682 -66577
0;
#X obj 394 200 cnv 15 175 72 empty empty empty 20 12 0 14 -220138 -66577
0;
#X obj 218 200 cnv 15 175 72 empty empty empty 20 12 0 14 -245038 -66577
0;
#X obj 41 127 cnv 15 527 72 empty empty empty 20 12 0 14 -204786 -66577
0;
#X obj 41 273 cnv 15 527 72 empty empty empty 20 12 0 14 -262130 -66577
0;
#X obj 41 346 cnv 15 527 72 empty empty empty 20 12 0 14 -204800 -66577
0;
#X obj 41 419 cnv 15 527 72 empty empty empty 20 12 0 14 -228856 -66577
0;
#X obj 51 445 dac~;
#N canvas 827 142 549 532 wind 0;
#N canvas 0 22 450 300 windspeed 0;
#X obj 123 67 osc~ 0.1;
#X obj 123 89 +~ 1;
#X obj 123 111 *~ 0.25;
#X obj 123 193 +~;
#X obj 123 215 clip~ 0 1;
#X obj 123 237 outlet~;
#N canvas 0 22 450 300 gust 0;
#X obj 147 76 noise~;
#X obj 147 98 lop~ 0.5;
#X obj 147 120 lop~ 0.5;
#X obj 147 142 hip~ 0;
#X obj 147 164 *~ 50;
#X obj 147 186 *~;
#X obj 147 208 outlet~;
#X obj 220 78 inlet~;
#X obj 220 100 +~ 0.5;
#X obj 220 122 *~;
#X obj 220 144 -~ 0.125;
#X connect 0 0 1 0;
#X connect 1 0 2 0;
#X connect 2 0 3 0;
#X connect 3 0 4 0;
#X connect 4 0 5 0;
#X connect 5 0 6 0;
#X connect 7 0 8 0;
#X connect 8 0 9 0;
#X connect 8 0 9 1;
#X connect 9 0 10 0;
#X connect 10 0 5 1;
#X restore 143 138 pd gust;
#X obj 143 160 +~;
#N canvas 0 22 450 300 squall 0;
#X obj 129 66 inlet~;
#X obj 129 88 max~ 0.4;
#X obj 129 110 -~ 0.4;
#X obj 129 132 *~ 8;
#X obj 129 154 *~;
#X obj 129 176 *~;
#X obj 129 198 outlet~;
#X obj 213 89 lop~ 3;
#X obj 213 111 lop~ 3;
#X obj 213 133 hip~ 0;
#X obj 213 155 *~ 20;
#X obj 213 67 noise~;
#X connect 0 0 1 0;
#X connect 1 0 2 0;
#X connect 2 0 3 0;
#X connect 3 0 4 0;
#X connect 3 0 4 1;
#X connect 4 0 5 0;
#X connect 5 0 6 0;
#X connect 7 0 8 0;
#X connect 8 0 9 0;
#X connect 9 0 10 0;
#X connect 10 0 5 1;
#X connect 11 0 7 0;
#X restore 200 138 pd squall;
#X connect 0 0 1 0;
#X connect 1 0 2 0;
#X connect 2 0 3 0;
#X connect 2 0 6 0;
#X connect 2 0 8 0;
#X connect 3 0 4 0;
#X connect 4 0 5 0;
#X connect 6 0 7 0;
#X connect 7 0 3 1;
#X connect 8 0 7 1;
#X restore 38 33 pd windspeed;
#X obj 38 55 delwrite~ a 3000;
#X obj 55 350 *~;
#X obj 70 149 vd~ a 100;
#X obj 70 306 +~ 0.12;
#X obj 70 328 *~;
#X obj 86 172 *~ 400;
#X obj 86 194 +~ 600;
#X obj 161 119 loadbang;
#X msg 161 141 60;
#X obj 225 350 *~;
#X obj 240 149 vd~ a 100;
#X obj 240 174 *~;
#X obj 256 196 *~ 1000;
#X obj 256 218 +~ 1000;
#X obj 55 109 noise~;
#X obj 55 278 bp~ 1000 60;
#X obj 225 278 bp~ 1000 60;
#X obj 86 256 snapshot~;
#X obj 256 256 snapshot~;
#X obj 55 443 outlet~;
#X obj 225 443 outlet~;
#X obj 55 411 3d-pos-wind -1 x;
#X obj 315 229 r tick-1;
#X obj 225 412 3d-pos-wind -1 y;
#X obj 55 379 *~ 2;
#X obj 225 379 *~ 3;
#X obj 118 443 s src-1;
#X obj 288 443 s src-2;
#X connect 0 0 1 0;
#X connect 2 0 25 0;
#X connect 3 0 4 0;
#X connect 3 0 6 0;
#X connect 4 0 5 0;
#X connect 4 0 5 1;
#X connect 5 0 2 1;
#X connect 6 0 7 0;
#X connect 7 0 18 0;
#X connect 8 0 9 0;
#X connect 9 0 16 2;
#X connect 9 0 17 2;
#X connect 10 0 26 0;
#X connect 11 0 12 0;
#X connect 11 0 12 1;
#X connect 11 0 13 0;
#X connect 12 0 10 1;
#X connect 13 0 14 0;
#X connect 14 0 19 0;
#X connect 15 0 16 0;
#X connect 15 0 17 0;
#X connect 16 0 2 0;
#X connect 17 0 10 0;
#X connect 18 0 16 1;
#X connect 19 0 17 1;
#X connect 22 0 20 0;
#X connect 22 1 27 0;
#X connect 23 0 19 0;
#X connect 23 0 18 0;
#X connect 24 0 21 0;
#X connect 24 1 28 0;
#X connect 25 0 22 0;
#X connect 26 0 24 0;
#X restore 353 157 pd wind;
#X obj 51 240 rm_fir-binaural-hv2;
#N canvas 603 132 397 291 3DTI-intro 0;
#X obj 38 248 outlet~;
#X obj 38 27 loadbang;
#X obj 38 79 metro 87000;
#X msg 38 110 3DTI-intro-pt1;
#X msg 208 110 3DTI-intro-pt2;
#X obj 208 137 s_playtable 3DTI-intro-pt2;
#X obj 38 137 s_playtable 3DTI-intro-pt1;
#X obj 38 49 del 100;
#X obj 208 79 metro 59000;
#X obj 208 215 3d-pos 5 b;
#X obj 38 215 3d-pos 4 a;
#X obj 95 248 s src-1;
#X connect 1 0 7 0;
#X connect 2 0 3 0;
#X connect 3 0 6 0;
#X connect 4 0 5 0;
#X connect 5 0 9 0;
#X connect 6 0 10 0;
#X connect 7 0 2 0;
#X connect 7 0 8 0;
#X connect 8 0 4 0;
#X connect 9 0 0 0;
#X connect 9 1 11 0;
#X connect 10 0 0 0;
#X connect 10 1 11 0;
#X restore 51 157 pd 3DTI-intro;
#X obj 51 316 *~;
#X obj 161 316 *~;
#N canvas 792 300 586 284 vha 0;
#X obj 53 29 inlet~;
#X obj 53 191 vha 1;
#X obj 53 213 outlet~;
#X obj 123 29 inlet~;
#X obj 123 213 outlet~;
#X obj 195 161 t a a;
#X msg 195 73 lop 20000 \, hip 30;
#X obj 123 191 vha 2;
#X obj 283 27 loadbang;
#X msg 205 93 lop 10000 \, hip 30;
#X msg 215 113 lop 20000 \, hip 500;
#X obj 195 51 sel 0 1 2 3 4 5 6 7 8 9;
#X msg 255 144 0;
#X msg 283 144 1;
#X msg 315 144 2;
#X msg 343 144 4;
#X msg 375 144 8;
#X msg 403 144 16;
#X msg 435 144 32;
#X obj 255 196 s directionality;
#X obj 195 29 r vha-setting;
#X connect 0 0 1 0;
#X connect 1 0 2 0;
#X connect 3 0 7 0;
#X connect 5 0 1 1;
#X connect 5 1 7 1;
#X connect 6 0 5 0;
#X connect 7 0 4 0;
#X connect 8 0 6 0;
#X connect 9 0 5 0;
#X connect 10 0 5 0;
#X connect 11 0 6 0;
#X connect 11 1 9 0;
#X connect 11 2 10 0;
#X connect 11 3 12 0;
#X connect 11 4 13 0;
#X connect 11 5 14 0;
#X connect 11 6 15 0;
#X connect 11 7 16 0;
#X connect 11 8 17 0;
#X connect 11 9 18 0;
#X connect 12 0 19 0;
#X connect 13 0 19 0;
#X connect 14 0 19 0;
#X connect 15 0 19 0;
#X connect 16 0 19 0;
#X connect 17 0 19 0;
#X connect 18 0 19 0;
#X connect 20 0 11 0;
#X restore 51 378 pd vha;
#X obj 225 240 rm_fir-binaural-hv2;
#X obj 402 240 rm_fir-binaural-hv2;
#X obj 162 216 r src-1;
#X obj 336 216 r src-2;
#X obj 513 216 r src-3;
#N canvas 0 22 450 300 init-fade 0;
#X obj 89 34 loadbang;
#X obj 89 56 del 1000;
#X msg 89 78 0 \, 1 3000;
#X obj 89 100 line~;
#X obj 89 122 outlet~;
#X connect 0 0 1 0;
#X connect 1 0 2 0;
#X connect 2 0 3 0;
#X connect 3 0 4 0;
#X restore 176 289 pd init-fade;
#N canvas 0 22 377 292 crowd-noise 0;
#X obj 38 27 loadbang;
#X obj 38 49 del 100;
#X obj 38 132 s_playtable cafe-chat-1;
#X msg 38 105 cafe-chat-1;
#X obj 38 74 metro 80000;
#X msg 198 105 cafe-chat-2;
#X obj 198 132 s_playtable cafe-chat-2;
#X obj 38 243 outlet~;
#X obj 198 243 outlet~;
#X obj 38 210 3d-pos 6 g;
#X obj 198 210 3d-pos 7 h;
#X obj 95 243 s src-2;
#X obj 255 243 s src-3;
#X connect 0 0 1 0;
#X connect 1 0 4 0;
#X connect 2 0 9 0;
#X connect 3 0 2 0;
#X connect 4 0 3 0;
#X connect 4 0 5 0;
#X connect 5 0 6 0;
#X connect 6 0 10 0;
#X connect 9 0 7 0;
#X connect 9 1 11 0;
#X connect 10 0 8 0;
#X connect 10 1 12 0;
#X restore 192 157 pd crowd-noise;
#N canvas 818 61 815 803 music 0;
#N canvas 0 22 450 278 (subpatch) 0;
#X array scale 3 float 3;
#A 0 0 7 10;
#X coords 0 12 3 0 200 140 1 0 0;
#X restore 36 194 graph;
#X obj 482 143 mod 8;
#X msg 482 223 0;
#X msg 512 223 1;
#X msg 542 223 2;
#X msg 97 801 0;
#X obj 97 828 s transpose;
#X msg 128 801 3;
#X msg 159 801 5;
#X msg 190 801 7;
#X obj 422 140 mod 4;
#X obj 422 184 s kick;
#X obj 422 162 sel 0 2;
#X obj 441 204 s hh;
#X obj 38 148 outlet~;
#X obj 158 148 outlet~;
#X obj 38 47 sine-voice 0;
#X obj 482 273 s voice-0;
#X obj 582 273 s voice-1;
#X obj 482 192 sel 0 2 4 6;
#X msg 582 223 0;
#X msg 612 223 1;
#X msg 642 223 2;
#X obj 582 192 sel 0 2 4 6;
#X obj 582 171 - 1;
#N canvas 0 22 292 331 bd 0;
#X obj 111 219 *~;
#X obj 129 190 osc~;
#X obj 128 168 +~ 50;
#X obj 127 143 *~ 150;
#X obj 111 56 inlet;
#X obj 111 245 outlet~;
#X obj 111 86 c_ead-hv 1 200;
#X connect 0 0 5 0;
#X connect 1 0 0 1;
#X connect 2 0 1 0;
#X connect 3 0 2 0;
#X connect 4 0 6 0;
#X connect 6 0 3 0;
#X connect 6 0 0 0;
#X restore 274 85 pd bd;
#X obj 274 36 r kick;
#X msg 274 62 200;
#N canvas 0 22 606 600 hh 0;
#X obj 348 270 clip~ -1 1;
#X obj 348 193 bp~ 8906 1.437;
#X obj 348 215 bp~ 8906 1.437;
#X obj 348 173 hip~ 8000;
#X floatatom 348 101 5 0 0 0 - - -, f 5;
#X obj 64 424 *~;
#X obj 452 322 *~;
#X obj 452 350 *~;
#X obj 349 304 *~;
#X msg 396 374 0;
#X obj 348 415 *~ 0.1;
#X msg 428 375 0.1;
#N canvas 0 22 744 501 squarebattery 0;
#X obj 346 142 *~ 0.7;
#X obj 105 124 *~ 0.9;
#X obj 105 79 * 210;
#X obj 345 94 * 540;
#X obj 462 104 * 550;
#X obj 569 103 * 800;
#X obj 269 92 * 380;
#X obj 187 91 * 320;
#X obj 105 404 outlet~;
#X obj 105 11 inlet;
#X text 151 13 tuning;
#N canvas 0 22 438 462 square 0;
#X obj 132 215 -~ 0.5;
#X obj 42 197 wrap~;
#X obj 42 220 -~ 0.5;
#X obj 42 175 -~ 0.5;
#X obj 42 289 -~;
#X obj 42 317 outlet~;
#X obj 42 94 phasor~;
#X obj 42 64 inlet;
#X connect 0 0 4 1;
#X connect 1 0 2 0;
#X connect 2 0 4 0;
#X connect 3 0 1 0;
#X connect 4 0 5 0;
#X connect 6 0 3 0;
#X connect 6 0 0 0;
#X connect 7 0 6 0;
#X restore 345 114 pd square;
#N canvas 0 22 438 462 square 0;
#X obj 132 215 -~ 0.5;
#X obj 42 197 wrap~;
#X obj 42 220 -~ 0.5;
#X obj 42 175 -~ 0.5;
#X obj 42 289 -~;
#X obj 42 317 outlet~;
#X obj 42 94 phasor~;
#X obj 42 64 inlet;
#X connect 0 0 4 1;
#X connect 1 0 2 0;
#X connect 2 0 4 0;
#X connect 3 0 1 0;
#X connect 4 0 5 0;
#X connect 6 0 3 0;
#X connect 6 0 0 0;
#X connect 7 0 6 0;
#X restore 462 128 pd square;
#N canvas 0 22 438 462 square 0;
#X obj 132 215 -~ 0.5;
#X obj 42 197 wrap~;
#X obj 42 220 -~ 0.5;
#X obj 42 175 -~ 0.5;
#X obj 42 289 -~;
#X obj 42 317 outlet~;
#X obj 42 94 phasor~;
#X obj 42 64 inlet;
#X connect 0 0 4 1;
#X connect 1 0 2 0;
#X connect 2 0 4 0;
#X connect 3 0 1 0;
#X connect 4 0 5 0;
#X connect 6 0 3 0;
#X connect 6 0 0 0;
#X connect 7 0 6 0;
#X restore 569 128 pd square;
#N canvas 0 22 438 462 square 0;
#X obj 132 215 -~ 0.5;
#X obj 42 197 wrap~;
#X obj 42 220 -~ 0.5;
#X obj 42 175 -~ 0.5;
#X obj 42 289 -~;
#X obj 42 317 outlet~;
#X obj 42 94 phasor~;
#X obj 42 64 inlet;
#X connect 0 0 4 1;
#X connect 1 0 2 0;
#X connect 2 0 4 0;
#X connect 3 0 1 0;
#X connect 4 0 5 0;
#X connect 6 0 3 0;
#X connect 6 0 0 0;
#X connect 7 0 6 0;
#X restore 269 115 pd square;
#N canvas 0 22 438 462 square 0;
#X obj 132 215 -~ 0.5;
#X obj 42 197 wrap~;
#X obj 42 220 -~ 0.5;
#X obj 42 175 -~ 0.5;
#X obj 42 289 -~;
#X obj 42 317 outlet~;
#X obj 42 94 phasor~;
#X obj 42 64 inlet;
#X connect 0 0 4 1;
#X connect 1 0 2 0;
#X connect 2 0 4 0;
#X connect 3 0 1 0;
#X connect 4 0 5 0;
#X connect 6 0 3 0;
#X connect 6 0 0 0;
#X connect 7 0 6 0;
#X restore 187 119 pd square;
#N canvas 0 22 438 462 square 0;
#X obj 132 215 -~ 0.5;
#X obj 42 197 wrap~;
#X obj 42 220 -~ 0.5;
#X obj 42 175 -~ 0.5;
#X obj 42 289 -~;
#X obj 42 317 outlet~;
#X obj 42 94 phasor~;
#X obj 42 64 inlet;
#X connect 0 0 4 1;
#X connect 1 0 2 0;
#X connect 2 0 4 0;
#X connect 3 0 1 0;
#X connect 4 0 5 0;
#X connect 6 0 3 0;
#X connect 6 0 0 0;
#X connect 7 0 6 0;
#X restore 105 101 pd square;
#X connect 0 0 8 0;
#X connect 1 0 8 0;
#X connect 2 0 16 0;
#X connect 3 0 11 0;
#X connect 4 0 12 0;
#X connect 5 0 13 0;
#X connect 6 0 14 0;
#X connect 7 0 15 0;
#X connect 9 0 2 0;
#X connect 9 0 3 0;
#X connect 9 0 4 0;
#X connect 9 0 5 0;
#X connect 9 0 6 0;
#X connect 9 0 7 0;
#X connect 11 0 0 0;
#X connect 12 0 8 0;
#X connect 13 0 8 0;
#X connect 14 0 8 0;
#X connect 15 0 8 0;
#X connect 16 0 1 0;
#X restore 348 144 pd squarebattery;
#X msg 394 120 1;
#X obj 394 100 loadbang;
#X obj 64 515 outlet~;
#X obj 65 50 inlet;
#X msg 142 209 100;
#X obj 65 262 t b a;
#X obj 199 172 t b b a;
#X obj 348 247 *~ 150;
#X obj 187 525 outlet;
#X obj 65 99 route hh oh hhtune;
#X obj 65 288 c_ead-hv 3 100;
#X obj 451 299 c_ead-hv 25 1500;
#X connect 0 0 5 1;
#X connect 0 0 8 0;
#X connect 1 0 2 0;
#X connect 2 0 20 0;
#X connect 3 0 1 0;
#X connect 4 0 12 0;
#X connect 5 0 15 0;
#X connect 6 0 7 0;
#X connect 6 0 7 1;
#X connect 6 0 8 1;
#X connect 7 0 8 1;
#X connect 8 0 10 0;
#X connect 9 0 10 1;
#X connect 10 0 15 0;
#X connect 11 0 10 1;
#X connect 12 0 3 0;
#X connect 13 0 12 0;
#X connect 14 0 13 0;
#X connect 16 0 22 0;
#X connect 17 0 18 0;
#X connect 18 0 23 0;
#X connect 18 1 23 2;
#X connect 19 0 17 0;
#X connect 19 1 24 0;
#X connect 19 2 24 2;
#X connect 20 0 0 0;
#X connect 22 0 9 0;
#X connect 22 0 18 0;
#X connect 22 1 11 0;
#X connect 22 1 19 0;
#X connect 22 2 12 0;
#X connect 22 3 21 0;
#X connect 23 0 5 0;
#X connect 24 0 6 0;
#X connect 24 0 6 1;
#X restore 333 84 pd hh;
#X obj 333 36 r hh;
#X msg 333 61 oh;
#X obj 158 46 sine-voice 1;
#X obj 374 335 r 0-vol;
#X obj 374 410 +;
#X obj 424 335 r 1-vol;
#X obj 424 359 t b f;
#X obj 374 387 f;
#X obj 474 359 t b f;
#X obj 374 432 +;
#X obj 374 454 +;
#X obj 374 476 +;
#X obj 474 335 r 2-vol;
#X obj 524 359 t b f;
#X obj 574 359 t b f;
#X obj 624 359 t b f;
#X obj 524 335 r 3-vol;
#X obj 574 335 r 4-vol;
#X obj 624 335 r 5-vol;
#X obj 374 498 s total-above-0;
#X msg 512 468 1;
#X obj 47 364 r listener-x;
#X obj 47 386 t f f;
#X obj 47 408 > 4;
#X obj 47 430 +;
#X obj 47 452 == 2;
#X obj 147 386 t f f;
#X obj 147 430 +;
#X obj 147 452 == 2;
#X obj 147 364 r listener-y;
#X obj 74 408 < 6;
#X obj 147 474 t b f;
#X obj 47 514 f;
#X obj 47 556 == 2;
#X obj 659 87 f;
#X obj 684 87 + 1;
#X obj 659 41 tgl 15 0 empty empty empty 17 7 0 10 -262144 -1 -1 1
1;
#X obj 659 64 metro 115;
#X obj 659 17 loadbang;
#X obj 422 112 r tick;
#X obj 97 604 mod 64;
#X obj 47 536 +;
#X obj 97 662 f;
#X obj 122 662 + 1;
#X obj 97 684 mod 4;
#X obj 97 706 sel 0 1 2 3;
#X obj 47 578 t f f;
#X msg 47 622 0;
#X obj 112 776 spigot;
#X obj 162 776 spigot;
#X obj 212 776 spigot;
#X obj 97 728 t b b;
#X obj 145 750 f;
#X obj 47 600 sel 1;
#X obj 147 408 > 22;
#X obj 174 408 < 26;
#X obj 97 580 r pre-tick;
#X obj 97 626 sel 0 16 32 48;
#X obj 659 109 t f f;
#X obj 659 131 s tick;
#X obj 702 131 s pre-tick;
#X obj 282 148 outlet~;
#X obj 38 115 3d-pos 0 d;
#X obj 158 114 3d-pos 1 f;
#X obj 282 114 3d-pos 1 e;
#X obj 95 148 s src-1;
#X obj 215 148 s src-2;
#X obj 339 148 s src-3;
#X connect 1 0 19 0;
#X connect 1 0 24 0;
#X connect 2 0 17 0;
#X connect 3 0 17 0;
#X connect 4 0 17 0;
#X connect 5 0 6 0;
#X connect 7 0 6 0;
#X connect 8 0 6 0;
#X connect 9 0 6 0;
#X connect 10 0 12 0;
#X connect 12 0 11 0;
#X connect 12 1 13 0;
#X connect 16 0 91 0;
#X connect 19 0 2 0;
#X connect 19 1 2 0;
#X connect 19 2 3 0;
#X connect 19 3 4 0;
#X connect 20 0 18 0;
#X connect 21 0 18 0;
#X connect 22 0 18 0;
#X connect 23 0 20 0;
#X connect 23 1 20 0;
#X connect 23 2 21 0;
#X connect 23 3 22 0;
#X connect 24 0 23 0;
#X connect 25 0 93 0;
#X connect 26 0 27 0;
#X connect 27 0 25 0;
#X connect 28 0 93 0;
#X connect 29 0 30 0;
#X connect 30 0 28 0;
#X connect 31 0 92 0;
#X connect 32 0 36 0;
#X connect 33 0 38 0;
#X connect 34 0 35 0;
#X connect 35 0 36 0;
#X connect 35 1 33 1;
#X connect 36 0 33 0;
#X connect 37 0 36 0;
#X connect 38 0 39 0;
#X connect 39 0 40 0;
#X connect 40 0 48 0;
#X connect 41 0 37 0;
#X connect 42 0 36 0;
#X connect 42 1 38 1;
#X connect 43 0 36 0;
#X connect 43 1 39 1;
#X connect 44 0 36 0;
#X connect 44 1 40 1;
#X connect 45 0 42 0;
#X connect 46 0 43 0;
#X connect 47 0 44 0;
#X connect 49 0 48 0;
#X connect 50 0 51 0;
#X connect 51 0 52 0;
#X connect 51 1 59 0;
#X connect 52 0 53 0;
#X connect 53 0 54 0;
#X connect 54 0 61 0;
#X connect 55 0 83 0;
#X connect 55 1 84 0;
#X connect 56 0 57 0;
#X connect 57 0 60 0;
#X connect 58 0 55 0;
#X connect 59 0 53 1;
#X connect 60 0 61 0;
#X connect 60 1 70 1;
#X connect 61 0 70 0;
#X connect 62 0 75 0;
#X connect 63 0 64 0;
#X connect 63 0 87 0;
#X connect 64 0 63 1;
#X connect 65 0 66 0;
#X connect 66 0 63 0;
#X connect 67 0 65 0;
#X connect 68 0 10 0;
#X connect 68 0 1 0;
#X connect 69 0 86 0;
#X connect 70 0 62 0;
#X connect 71 0 72 0;
#X connect 71 0 73 0;
#X connect 72 0 71 1;
#X connect 73 0 74 0;
#X connect 74 0 80 0;
#X connect 74 1 77 0;
#X connect 74 2 78 0;
#X connect 74 3 79 0;
#X connect 75 0 82 0;
#X connect 75 1 81 1;
#X connect 76 0 71 1;
#X connect 77 0 7 0;
#X connect 78 0 8 0;
#X connect 79 0 9 0;
#X connect 80 0 5 0;
#X connect 80 1 81 0;
#X connect 81 0 77 1;
#X connect 81 0 78 1;
#X connect 81 0 79 1;
#X connect 82 0 76 0;
#X connect 83 0 56 0;
#X connect 84 0 56 1;
#X connect 85 0 69 0;
#X connect 86 0 71 0;
#X connect 86 1 71 0;
#X connect 86 2 71 0;
#X connect 86 3 71 0;
#X connect 87 0 88 0;
#X connect 87 1 89 0;
#X connect 91 0 14 0;
#X connect 91 1 94 0;
#X connect 92 0 15 0;
#X connect 92 1 95 0;
#X connect 93 0 90 0;
#X connect 93 1 96 0;
#X restore 484 157 pd music;
#X text 49 135 SOUND SOURCES;
#X text 56 205 CONVOLUTION;
#X text 256 309 STEREO SUM;
#X text 99 379 VIRTUAL HEARING LOSS;
#X text 83 446 STEREO OUTPUT;
#N canvas 0 22 395 609 set-object-positions 0;
#X text 120 149 y1;
#X text 40 150 x1;
#X floatatom 41 133 5 0 0 0 - - -, f 5;
#X floatatom 121 133 5 0 0 0 - - -, f 5;
#X obj 41 167 s listener-x;
#X obj 121 167 s listener-y;
#X obj 41 25 loadbang;
#X obj 208 354 s positions;
#X obj 41 294 s listener-direction;
#X floatatom 41 230 5 0 0 0 - - -, f 5;
#X obj 41 271 mod 360;
#X obj 41 249 + 1080;
#X obj 42 412 r 0-vol;
#X obj 42 487 +;
#X obj 92 412 r 1-vol;
#X obj 92 436 t b f;
#X obj 42 464 f;
#X obj 142 436 t b f;
#X obj 42 509 +;
#X obj 42 531 +;
#X obj 42 553 +;
#X obj 142 412 r 2-vol;
#X obj 192 436 t b f;
#X obj 242 436 t b f;
#X obj 292 436 t b f;
#X obj 192 412 r 3-vol;
#X obj 242 412 r 4-vol;
#X obj 292 412 r 5-vol;
#X obj 42 575 s total-above-0;
#X msg 41 106 16;
#X msg 207 312 object-x 0 16;
#X msg 207 332 object-y 32 16;
#X msg 208 212 object-a 24 24 2.5;
#X msg 208 232 object-b 24 5 2.5;
#X obj 41 47 del 10;
#X obj 207 106 t b;
#X obj 41 69 t b b;
#X msg 208 259 object-g 23 4 2.5;
#X msg 208 280 object-h 25 4 2.5;
#X obj 41 368 s directionality;
#X floatatom 41 350 5 0 0 0 - - -, f 5;
#X msg 208 132 object-d 4 15 2.5;
#X msg 208 152 object-e 3 16 2.5;
#X msg 208 172 object-f 4 17 2.5;
#X connect 2 0 4 0;
#X connect 3 0 5 0;
#X connect 6 0 34 0;
#X connect 9 0 11 0;
#X connect 10 0 8 0;
#X connect 11 0 10 0;
#X connect 12 0 16 0;
#X connect 13 0 18 0;
#X connect 14 0 15 0;
#X connect 15 0 16 0;
#X connect 15 1 13 1;
#X connect 16 0 13 0;
#X connect 17 0 16 0;
#X connect 18 0 19 0;
#X connect 19 0 20 0;
#X connect 20 0 28 0;
#X connect 21 0 17 0;
#X connect 22 0 16 0;
#X connect 22 1 18 1;
#X connect 23 0 16 0;
#X connect 23 1 19 1;
#X connect 24 0 16 0;
#X connect 24 1 20 1;
#X connect 25 0 22 0;
#X connect 26 0 23 0;
#X connect 27 0 24 0;
#X connect 29 0 2 0;
#X connect 29 0 3 0;
#X connect 30 0 7 0;
#X connect 31 0 7 0;
#X connect 32 0 7 0;
#X connect 33 0 7 0;
#X connect 34 0 36 0;
#X connect 35 0 41 0;
#X connect 35 0 42 0;
#X connect 35 0 43 0;
#X connect 35 0 30 0;
#X connect 35 0 31 0;
#X connect 35 0 32 0;
#X connect 35 0 33 0;
#X connect 35 0 37 0;
#X connect 35 0 38 0;
#X connect 36 0 29 0;
#X connect 36 1 35 0;
#X connect 37 0 7 0;
#X connect 38 0 7 0;
#X connect 40 0 39 0;
#X connect 41 0 7 0;
#X connect 42 0 7 0;
#X connect 43 0 7 0;
#X restore 41 74 pd set-object-positions;
#X connect 11 0 12 0;
#X connect 11 1 17 0;
#X connect 12 0 14 0;
#X connect 12 1 15 0;
#X connect 13 0 12 0;
#X connect 14 0 16 0;
#X connect 15 0 16 1;
#X connect 16 0 10 0;
#X connect 16 1 10 1;
#X connect 17 0 14 0;
#X connect 17 1 15 0;
#X connect 18 0 14 0;
#X connect 18 1 15 0;
#X connect 19 0 12 1;
#X connect 20 0 17 1;
#X connect 21 0 18 1;
#X connect 22 0 15 1;
#X connect 22 0 14 1;
#X connect 23 0 17 0;
#X connect 23 1 18 0;
#X connect 24 0 12 0;
#X connect 24 1 17 0;
#X connect 24 2 18 0;
