#N canvas 847 281 671 333 10;
#X declare -path abs;
#X obj 41 225 dac~;
#X text 559 132 y1;
#X text 479 133 x1;
#X floatatom 480 116 5 0 0 0 - - -;
#X floatatom 560 116 5 0 0 0 - - -;
#X obj 480 150 s listener-x;
#X obj 560 150 s listener-y;
#N canvas 0 22 450 300 init 0;
#X obj 64 41 declare -path abs;
#X restore 41 40 pd init;
#X obj 290 86 loadbang;
#X obj 290 281 s positions;
#X msg 290 139 object-c 24 7;
#X msg 300 159 object-d 25 8;
#X msg 310 179 object-e 24 9;
#X msg 320 199 object-f 23 8;
#X msg 330 219 object-g 21 5;
#X msg 468 94 24;
#X msg 497 94 7;
#X obj 502 252 s listener-direction;
#X floatatom 502 188 5 0 0 0 - - -;
#X obj 502 229 mod 360;
#X obj 502 207 + 1080;
#X obj 290 110 del 10;
#X obj 468 72 del 100;
#X obj 468 50 loadbang;
#N canvas 456 191 769 564 i-feel-love 0;
#N canvas 0 22 450 278 (subpatch) 0;
#X array scale 3 float 3;
#A 0 0 7 10;
#X coords 0 12 3 0 200 140 1 0 0;
#X restore 36 194 graph;
#X obj 482 163 mod 8;
#X msg 482 223 0;
#X msg 512 223 1;
#X msg 542 223 2;
#X msg 35 511 \; scale 0 0 7 10 \;;
#X msg 35 469 0;
#X obj 35 491 s transpose;
#X msg 66 469 3;
#X msg 97 469 5;
#X msg 128 469 7;
#X obj 409 133 mod 4;
#X obj 409 177 s kick;
#X obj 409 155 sel 0 2;
#X obj 419 197 s hh;
#X obj 38 148 outlet~;
#X obj 138 148 outlet~;
#X obj 38 47 sine-voice 0;
#X obj 482 273 s voice-0;
#X obj 582 273 s voice-1;
#X obj 482 192 sel 0 2 4 6;
#X msg 582 223 0;
#X msg 612 223 1;
#X msg 642 223 2;
#X obj 582 192 sel 0 2 4 6;
#X obj 582 163 - 1;
#N canvas 0 22 292 331 bd 0;
#X obj 111 219 *~;
#X obj 129 190 osc~;
#X obj 128 168 +~ 50;
#X obj 127 143 *~ 150;
#X obj 111 56 inlet;
#X obj 111 245 outlet~;
#X obj 111 86 c_ead-hv 1 200;
#X connect 0 0 5 0;
#X connect 1 0 0 1;
#X connect 2 0 1 0;
#X connect 3 0 2 0;
#X connect 4 0 6 0;
#X connect 6 0 3 0;
#X connect 6 0 0 0;
#X restore 244 95 pd bd;
#X obj 244 46 r kick;
#X msg 244 72 200;
#N canvas 0 22 606 600 hh 0;
#X obj 348 270 clip~ -1 1;
#X obj 348 193 bp~ 8906 1.437;
#X obj 348 215 bp~ 8906 1.437;
#X obj 348 173 hip~ 8000;
#X floatatom 348 101 5 0 0 0 - - -;
#X obj 64 424 *~;
#X obj 452 322 *~;
#X obj 452 350 *~;
#X obj 349 304 *~;
#X msg 396 374 0;
#X obj 348 415 *~ 0.1;
#X msg 428 375 0.1;
#N canvas 0 22 744 501 squarebattery 0;
#X obj 346 142 *~ 0.7;
#X obj 105 124 *~ 0.9;
#X obj 105 79 * 210;
#X obj 345 94 * 540;
#X obj 462 104 * 550;
#X obj 569 103 * 800;
#X obj 269 92 * 380;
#X obj 187 91 * 320;
#X obj 105 404 outlet~;
#X obj 105 11 inlet;
#X text 151 13 tuning;
#N canvas 0 22 438 462 square 0;
#X obj 132 215 -~ 0.5;
#X obj 42 197 wrap~;
#X obj 42 220 -~ 0.5;
#X obj 42 175 -~ 0.5;
#X obj 42 289 -~;
#X obj 42 317 outlet~;
#X obj 42 94 phasor~;
#X obj 42 64 inlet;
#X connect 0 0 4 1;
#X connect 1 0 2 0;
#X connect 2 0 4 0;
#X connect 3 0 1 0;
#X connect 4 0 5 0;
#X connect 6 0 3 0;
#X connect 6 0 0 0;
#X connect 7 0 6 0;
#X restore 345 114 pd square;
#N canvas 0 22 438 462 square 0;
#X obj 132 215 -~ 0.5;
#X obj 42 197 wrap~;
#X obj 42 220 -~ 0.5;
#X obj 42 175 -~ 0.5;
#X obj 42 289 -~;
#X obj 42 317 outlet~;
#X obj 42 94 phasor~;
#X obj 42 64 inlet;
#X connect 0 0 4 1;
#X connect 1 0 2 0;
#X connect 2 0 4 0;
#X connect 3 0 1 0;
#X connect 4 0 5 0;
#X connect 6 0 3 0;
#X connect 6 0 0 0;
#X connect 7 0 6 0;
#X restore 462 128 pd square;
#N canvas 0 22 438 462 square 0;
#X obj 132 215 -~ 0.5;
#X obj 42 197 wrap~;
#X obj 42 220 -~ 0.5;
#X obj 42 175 -~ 0.5;
#X obj 42 289 -~;
#X obj 42 317 outlet~;
#X obj 42 94 phasor~;
#X obj 42 64 inlet;
#X connect 0 0 4 1;
#X connect 1 0 2 0;
#X connect 2 0 4 0;
#X connect 3 0 1 0;
#X connect 4 0 5 0;
#X connect 6 0 3 0;
#X connect 6 0 0 0;
#X connect 7 0 6 0;
#X restore 569 128 pd square;
#N canvas 0 22 438 462 square 0;
#X obj 132 215 -~ 0.5;
#X obj 42 197 wrap~;
#X obj 42 220 -~ 0.5;
#X obj 42 175 -~ 0.5;
#X obj 42 289 -~;
#X obj 42 317 outlet~;
#X obj 42 94 phasor~;
#X obj 42 64 inlet;
#X connect 0 0 4 1;
#X connect 1 0 2 0;
#X connect 2 0 4 0;
#X connect 3 0 1 0;
#X connect 4 0 5 0;
#X connect 6 0 3 0;
#X connect 6 0 0 0;
#X connect 7 0 6 0;
#X restore 269 115 pd square;
#N canvas 0 22 438 462 square 0;
#X obj 132 215 -~ 0.5;
#X obj 42 197 wrap~;
#X obj 42 220 -~ 0.5;
#X obj 42 175 -~ 0.5;
#X obj 42 289 -~;
#X obj 42 317 outlet~;
#X obj 42 94 phasor~;
#X obj 42 64 inlet;
#X connect 0 0 4 1;
#X connect 1 0 2 0;
#X connect 2 0 4 0;
#X connect 3 0 1 0;
#X connect 4 0 5 0;
#X connect 6 0 3 0;
#X connect 6 0 0 0;
#X connect 7 0 6 0;
#X restore 187 119 pd square;
#N canvas 0 22 438 462 square 0;
#X obj 132 215 -~ 0.5;
#X obj 42 197 wrap~;
#X obj 42 220 -~ 0.5;
#X obj 42 175 -~ 0.5;
#X obj 42 289 -~;
#X obj 42 317 outlet~;
#X obj 42 94 phasor~;
#X obj 42 64 inlet;
#X connect 0 0 4 1;
#X connect 1 0 2 0;
#X connect 2 0 4 0;
#X connect 3 0 1 0;
#X connect 4 0 5 0;
#X connect 6 0 3 0;
#X connect 6 0 0 0;
#X connect 7 0 6 0;
#X restore 105 101 pd square;
#X connect 0 0 8 0;
#X connect 1 0 8 0;
#X connect 2 0 16 0;
#X connect 3 0 11 0;
#X connect 4 0 12 0;
#X connect 5 0 13 0;
#X connect 6 0 14 0;
#X connect 7 0 15 0;
#X connect 9 0 2 0;
#X connect 9 0 3 0;
#X connect 9 0 4 0;
#X connect 9 0 5 0;
#X connect 9 0 6 0;
#X connect 9 0 7 0;
#X connect 11 0 0 0;
#X connect 12 0 8 0;
#X connect 13 0 8 0;
#X connect 14 0 8 0;
#X connect 15 0 8 0;
#X connect 16 0 1 0;
#X restore 348 144 pd squarebattery;
#X msg 394 120 1;
#X obj 394 100 loadbang;
#X obj 64 515 outlet~;
#X obj 65 50 inlet;
#X msg 142 209 100;
#X obj 65 262 t b a;
#X obj 199 172 t b b a;
#X obj 348 247 *~ 150;
#X obj 187 525 outlet;
#X obj 65 99 route hh oh hhtune;
#X obj 65 288 c_ead-hv 3 100;
#X obj 451 299 c_ead-hv 25 1500;
#X connect 0 0 5 1;
#X connect 0 0 8 0;
#X connect 1 0 2 0;
#X connect 2 0 20 0;
#X connect 3 0 1 0;
#X connect 4 0 12 0;
#X connect 5 0 15 0;
#X connect 6 0 7 0;
#X connect 6 0 7 1;
#X connect 6 0 8 1;
#X connect 7 0 8 1;
#X connect 8 0 10 0;
#X connect 9 0 10 1;
#X connect 10 0 15 0;
#X connect 11 0 10 1;
#X connect 12 0 3 0;
#X connect 13 0 12 0;
#X connect 14 0 13 0;
#X connect 16 0 22 0;
#X connect 17 0 18 0;
#X connect 18 0 23 0;
#X connect 18 1 23 2;
#X connect 19 0 17 0;
#X connect 19 1 24 0;
#X connect 19 2 24 2;
#X connect 20 0 0 0;
#X connect 22 0 9 0;
#X connect 22 0 18 0;
#X connect 22 1 11 0;
#X connect 22 1 19 0;
#X connect 22 2 12 0;
#X connect 22 3 21 0;
#X connect 23 0 5 0;
#X connect 24 0 6 0;
#X connect 24 0 6 1;
#X restore 328 94 pd hh;
#X obj 328 46 r hh;
#X msg 328 71 oh;
#X obj 138 46 sine-voice 1;
#X obj 38 115 3d-pos 0 f;
#X obj 374 335 r 0-vol;
#X obj 374 410 +;
#X obj 424 335 r 1-vol;
#X obj 424 359 t b f;
#X obj 374 387 f;
#X obj 474 359 t b f;
#X obj 374 432 +;
#X obj 374 454 +;
#X obj 374 476 +;
#X obj 474 335 r 2-vol;
#X obj 524 359 t b f;
#X obj 574 359 t b f;
#X obj 624 359 t b f;
#X obj 524 335 r 3-vol;
#X obj 574 335 r 4-vol;
#X obj 624 335 r 5-vol;
#X obj 374 498 s total-above-0;
#X obj 244 148 outlet~;
#X obj 95 148 outlet;
#X obj 195 148 outlet;
#X obj 301 148 outlet;
#X obj 138 114 3d-pos 1 d;
#X obj 244 117 3d-pos 2 c;
#X obj 409 110 f;
#X obj 434 110 + 1;
#X obj 409 64 tgl 15 0 empty empty empty 17 7 0 10 -262144 -1 -1 1
1;
#X obj 409 87 metro 115;
#X obj 409 40 loadbang;
#X msg 512 468 1;
#X connect 1 0 20 0;
#X connect 1 0 25 0;
#X connect 2 0 18 0;
#X connect 3 0 18 0;
#X connect 4 0 18 0;
#X connect 6 0 7 0;
#X connect 8 0 7 0;
#X connect 9 0 7 0;
#X connect 10 0 7 0;
#X connect 11 0 13 0;
#X connect 13 0 12 0;
#X connect 13 1 14 0;
#X connect 17 0 33 0;
#X connect 20 0 2 0;
#X connect 20 1 2 0;
#X connect 20 2 3 0;
#X connect 20 3 4 0;
#X connect 21 0 19 0;
#X connect 22 0 19 0;
#X connect 23 0 19 0;
#X connect 24 0 21 0;
#X connect 24 1 21 0;
#X connect 24 2 22 0;
#X connect 24 3 23 0;
#X connect 25 0 24 0;
#X connect 26 0 56 0;
#X connect 27 0 28 0;
#X connect 28 0 26 0;
#X connect 29 0 56 0;
#X connect 30 0 31 0;
#X connect 31 0 29 0;
#X connect 32 0 55 0;
#X connect 33 0 15 0;
#X connect 33 1 52 0;
#X connect 34 0 38 0;
#X connect 35 0 40 0;
#X connect 36 0 37 0;
#X connect 37 0 38 0;
#X connect 37 1 35 1;
#X connect 38 0 35 0;
#X connect 39 0 38 0;
#X connect 40 0 41 0;
#X connect 41 0 42 0;
#X connect 42 0 50 0;
#X connect 43 0 39 0;
#X connect 44 0 38 0;
#X connect 44 1 40 1;
#X connect 45 0 38 0;
#X connect 45 1 41 1;
#X connect 46 0 38 0;
#X connect 46 1 42 1;
#X connect 47 0 44 0;
#X connect 48 0 45 0;
#X connect 49 0 46 0;
#X connect 55 0 16 0;
#X connect 55 1 53 0;
#X connect 56 0 51 0;
#X connect 56 1 54 0;
#X connect 57 0 58 0;
#X connect 57 0 1 0;
#X connect 57 0 11 0;
#X connect 58 0 57 1;
#X connect 59 0 60 0;
#X connect 60 0 57 0;
#X connect 61 0 59 0;
#X connect 62 0 50 0;
#X restore 41 108 pd i-feel-love;
#N canvas 275 195 549 532 wind 0;
#N canvas 0 22 450 300 windspeed 0;
#X obj 123 67 osc~ 0.1;
#X obj 123 89 +~ 1;
#X obj 123 111 *~ 0.25;
#X obj 123 193 +~;
#X obj 123 215 clip~ 0 1;
#X obj 123 237 outlet~;
#N canvas 0 22 450 300 gust 0;
#X obj 147 76 noise~;
#X obj 147 98 lop~ 0.5;
#X obj 147 120 lop~ 0.5;
#X obj 147 142 hip~ 0;
#X obj 147 164 *~ 50;
#X obj 147 186 *~;
#X obj 147 208 outlet~;
#X obj 220 78 inlet~;
#X obj 220 100 +~ 0.5;
#X obj 220 122 *~;
#X obj 220 144 -~ 0.125;
#X connect 0 0 1 0;
#X connect 1 0 2 0;
#X connect 2 0 3 0;
#X connect 3 0 4 0;
#X connect 4 0 5 0;
#X connect 5 0 6 0;
#X connect 7 0 8 0;
#X connect 8 0 9 0;
#X connect 8 0 9 1;
#X connect 9 0 10 0;
#X connect 10 0 5 1;
#X restore 143 138 pd gust;
#X obj 143 160 +~;
#N canvas 0 22 450 300 squall 0;
#X obj 129 66 inlet~;
#X obj 129 88 max~ 0.4;
#X obj 129 110 -~ 0.4;
#X obj 129 132 *~ 8;
#X obj 129 154 *~;
#X obj 129 176 *~;
#X obj 129 198 outlet~;
#X obj 213 89 lop~ 3;
#X obj 213 111 lop~ 3;
#X obj 213 133 hip~ 0;
#X obj 213 155 *~ 20;
#X obj 213 67 noise~;
#X connect 0 0 1 0;
#X connect 1 0 2 0;
#X connect 2 0 3 0;
#X connect 3 0 4 0;
#X connect 3 0 4 1;
#X connect 4 0 5 0;
#X connect 5 0 6 0;
#X connect 7 0 8 0;
#X connect 8 0 9 0;
#X connect 9 0 10 0;
#X connect 10 0 5 1;
#X connect 11 0 7 0;
#X restore 200 138 pd squall;
#X connect 0 0 1 0;
#X connect 1 0 2 0;
#X connect 2 0 3 0;
#X connect 2 0 6 0;
#X connect 2 0 8 0;
#X connect 3 0 4 0;
#X connect 4 0 5 0;
#X connect 6 0 7 0;
#X connect 7 0 3 1;
#X connect 8 0 7 1;
#X restore 38 33 pd windspeed;
#X obj 38 55 delwrite~ a 3000;
#X obj 55 350 *~;
#X obj 55 379 *~ 1.2;
#X obj 70 149 vd~ a 100;
#X obj 70 306 +~ 0.12;
#X obj 70 328 *~;
#X obj 86 172 *~ 400;
#X obj 86 194 +~ 600;
#X obj 161 119 loadbang;
#X msg 161 141 60;
#X obj 225 350 *~;
#X obj 240 149 vd~ a 100;
#X obj 240 174 *~;
#X obj 225 379 *~ 2;
#X obj 256 196 *~ 1000;
#X obj 256 218 +~ 1000;
#X obj 55 109 noise~;
#X obj 55 278 bp~ 1000 60;
#X obj 225 278 bp~ 1000 60;
#X obj 86 256 snapshot~;
#X obj 256 256 snapshot~;
#X obj 55 443 outlet~;
#X obj 225 443 outlet~;
#X obj 118 443 outlet;
#X obj 288 443 outlet;
#X obj 225 412 3d-pos-wind -1 y;
#X obj 55 411 3d-pos-wind -1 x;
#X obj 315 229 r tick-1;
#X connect 0 0 1 0;
#X connect 2 0 3 0;
#X connect 3 0 27 0;
#X connect 4 0 5 0;
#X connect 4 0 7 0;
#X connect 5 0 6 0;
#X connect 5 0 6 1;
#X connect 6 0 2 1;
#X connect 7 0 8 0;
#X connect 8 0 20 0;
#X connect 9 0 10 0;
#X connect 10 0 18 2;
#X connect 10 0 19 2;
#X connect 11 0 14 0;
#X connect 12 0 13 0;
#X connect 12 0 13 1;
#X connect 12 0 15 0;
#X connect 13 0 11 1;
#X connect 14 0 26 0;
#X connect 15 0 16 0;
#X connect 16 0 21 0;
#X connect 17 0 18 0;
#X connect 17 0 19 0;
#X connect 18 0 2 0;
#X connect 19 0 11 0;
#X connect 20 0 18 1;
#X connect 21 0 19 1;
#X connect 26 0 23 0;
#X connect 26 1 25 0;
#X connect 27 0 22 0;
#X connect 27 1 24 0;
#X connect 28 0 21 0;
#X connect 28 0 20 0;
#X restore 134 108 pd wind;
#X msg 340 239 object-x 15.5 15.5;
#X msg 350 259 object-y 16.5 16.5;
#X obj 41 160 rm_fir-binaural-hv2;
#X obj 51 180 rm_fir-binaural-hv2;
#X obj 61 200 rm_fir-binaural-hv2;
#N canvas 0 22 450 300 timebase 0;
#X obj 75 83 metro 1;
#X obj 75 61 loadbang;
#X obj 75 105 s tick-1;
#X connect 0 0 2 0;
#X connect 1 0 0 0;
#X restore 41 61 pd timebase;
#N canvas 413 178 285 375 footsteps 0;
#X obj 52 292 +~;
#X obj 52 314 outlet~;
#X obj 52 63 r walkspeed;
#N canvas 0 22 655 393 foot 0;
#X obj 181 43 inlet~;
#X obj 181 65 clip~ 0 0.75;
#X obj 181 87 *~ 1.33333;
#X obj 181 129 clip~ 0.125 0.875;
#X obj 181 151 -~ 0.125;
#X obj 181 173 *~ 1.33333;
#N canvas 0 22 378 386 polycurve 0;
#X obj 92 65 inlet~ X;
#X obj 92 87 *~ 1;
#X obj 92 109 *~;
#X obj 92 131 *~;
#X obj 142 183 *~;
#X obj 162 237 *~;
#X obj 162 259 *~ -1.5;
#X obj 162 281 outlet~ P;
#X obj 142 205 -~;
#X obj 126 109 *~;
#X obj 157 65 inlet~ P;
#X obj 177 96 sig~ 1;
#X obj 177 118 -~;
#X connect 0 0 1 0;
#X connect 1 0 2 0;
#X connect 1 0 2 1;
#X connect 1 0 3 1;
#X connect 1 0 9 0;
#X connect 1 0 12 1;
#X connect 2 0 3 0;
#X connect 3 0 4 0;
#X connect 4 0 8 0;
#X connect 5 0 6 0;
#X connect 6 0 7 0;
#X connect 8 0 5 0;
#X connect 9 0 8 1;
#X connect 10 0 9 1;
#X connect 10 0 4 1;
#X connect 11 0 12 0;
#X connect 12 0 5 1;
#X restore 181 255 pd polycurve;
#X obj 181 327 outlet~;
#N canvas 0 22 378 386 polycurve 0;
#X obj 92 65 inlet~ X;
#X obj 92 87 *~ 1;
#X obj 92 109 *~;
#X obj 92 131 *~;
#X obj 142 183 *~;
#X obj 162 237 *~;
#X obj 162 259 *~ -1.5;
#X obj 162 281 outlet~ P;
#X obj 142 205 -~;
#X obj 126 109 *~;
#X obj 157 65 inlet~ P;
#X obj 177 96 sig~ 1;
#X obj 177 118 -~;
#X connect 0 0 1 0;
#X connect 1 0 2 0;
#X connect 1 0 2 1;
#X connect 1 0 3 1;
#X connect 1 0 9 0;
#X connect 1 0 12 1;
#X connect 2 0 3 0;
#X connect 3 0 4 0;
#X connect 4 0 8 0;
#X connect 5 0 6 0;
#X connect 6 0 7 0;
#X connect 8 0 5 0;
#X connect 9 0 8 1;
#X connect 10 0 9 1;
#X connect 10 0 4 1;
#X connect 11 0 12 0;
#X connect 12 0 5 1;
#X restore 61 255 pd polycurve;
#N canvas 0 22 378 386 polycurve 0;
#X obj 92 65 inlet~ X;
#X obj 92 87 *~ 1;
#X obj 92 109 *~;
#X obj 92 131 *~;
#X obj 142 183 *~;
#X obj 162 237 *~;
#X obj 162 259 *~ -1.5;
#X obj 162 281 outlet~ P;
#X obj 142 205 -~;
#X obj 126 109 *~;
#X obj 157 65 inlet~ P;
#X obj 177 96 sig~ 1;
#X obj 177 118 -~;
#X connect 0 0 1 0;
#X connect 1 0 2 0;
#X connect 1 0 2 1;
#X connect 1 0 3 1;
#X connect 1 0 9 0;
#X connect 1 0 12 1;
#X connect 2 0 3 0;
#X connect 3 0 4 0;
#X connect 4 0 8 0;
#X connect 5 0 6 0;
#X connect 6 0 7 0;
#X connect 8 0 5 0;
#X connect 9 0 8 1;
#X connect 10 0 9 1;
#X connect 10 0 4 1;
#X connect 11 0 12 0;
#X connect 12 0 5 1;
#X restore 301 255 pd polycurve;
#X obj 61 129 clip~ 0 0.33333;
#X obj 61 151 *~ 3;
#X obj 301 173 *~ 3;
#X obj 301 151 -~ 0.666666;
#X obj 301 129 clip~ 0.666666 1;
#X obj 346 209 inlet~;
#X obj 466 209 inlet~;
#X obj 586 209 inlet~;
#X connect 0 0 1 0;
#X connect 1 0 2 0;
#X connect 2 0 3 0;
#X connect 2 0 10 0;
#X connect 2 0 14 0;
#X connect 3 0 4 0;
#X connect 4 0 5 0;
#X connect 5 0 6 0;
#X connect 6 0 7 0;
#X connect 8 0 7 0;
#X connect 9 0 7 0;
#X connect 10 0 11 0;
#X connect 11 0 8 0;
#X connect 12 0 9 0;
#X connect 13 0 12 0;
#X connect 14 0 13 0;
#X connect 15 0 8 1;
#X connect 16 0 6 1;
#X connect 17 0 9 1;
#X restore 52 244 pd foot;
#X obj 84 209 sig~;
#X obj 84 187 * 3;
#X obj 134 209 sig~;
#X obj 134 187 * 3;
#X obj 184 209 sig~;
#X obj 184 187 * 3;
#X obj 84 141 loadbang;
#X msg 84 163 0.2;
#X msg 114 163 0.13;
#X msg 149 163 0.17;
#N canvas 0 22 655 393 foot 0;
#X obj 181 43 inlet~;
#X obj 181 65 clip~ 0 0.75;
#X obj 181 87 *~ 1.33333;
#X obj 181 129 clip~ 0.125 0.875;
#X obj 181 151 -~ 0.125;
#X obj 181 173 *~ 1.33333;
#N canvas 0 22 378 386 polycurve 0;
#X obj 92 65 inlet~ X;
#X obj 92 87 *~ 1;
#X obj 92 109 *~;
#X obj 92 131 *~;
#X obj 142 183 *~;
#X obj 162 237 *~;
#X obj 162 259 *~ -1.5;
#X obj 162 281 outlet~ P;
#X obj 142 205 -~;
#X obj 126 109 *~;
#X obj 157 65 inlet~ P;
#X obj 177 96 sig~ 1;
#X obj 177 118 -~;
#X connect 0 0 1 0;
#X connect 1 0 2 0;
#X connect 1 0 2 1;
#X connect 1 0 3 1;
#X connect 1 0 9 0;
#X connect 1 0 12 1;
#X connect 2 0 3 0;
#X connect 3 0 4 0;
#X connect 4 0 8 0;
#X connect 5 0 6 0;
#X connect 6 0 7 0;
#X connect 8 0 5 0;
#X connect 9 0 8 1;
#X connect 10 0 9 1;
#X connect 10 0 4 1;
#X connect 11 0 12 0;
#X connect 12 0 5 1;
#X restore 181 255 pd polycurve;
#X obj 181 327 outlet~;
#N canvas 0 22 378 386 polycurve 0;
#X obj 92 65 inlet~ X;
#X obj 92 87 *~ 1;
#X obj 92 109 *~;
#X obj 92 131 *~;
#X obj 142 183 *~;
#X obj 162 237 *~;
#X obj 162 259 *~ -1.5;
#X obj 162 281 outlet~ P;
#X obj 142 205 -~;
#X obj 126 109 *~;
#X obj 157 65 inlet~ P;
#X obj 177 96 sig~ 1;
#X obj 177 118 -~;
#X connect 0 0 1 0;
#X connect 1 0 2 0;
#X connect 1 0 2 1;
#X connect 1 0 3 1;
#X connect 1 0 9 0;
#X connect 1 0 12 1;
#X connect 2 0 3 0;
#X connect 3 0 4 0;
#X connect 4 0 8 0;
#X connect 5 0 6 0;
#X connect 6 0 7 0;
#X connect 8 0 5 0;
#X connect 9 0 8 1;
#X connect 10 0 9 1;
#X connect 10 0 4 1;
#X connect 11 0 12 0;
#X connect 12 0 5 1;
#X restore 61 255 pd polycurve;
#N canvas 0 22 378 386 polycurve 0;
#X obj 92 65 inlet~ X;
#X obj 92 87 *~ 1;
#X obj 92 109 *~;
#X obj 92 131 *~;
#X obj 142 183 *~;
#X obj 162 237 *~;
#X obj 162 259 *~ -1.5;
#X obj 162 281 outlet~ P;
#X obj 142 205 -~;
#X obj 126 109 *~;
#X obj 157 65 inlet~ P;
#X obj 177 96 sig~ 1;
#X obj 177 118 -~;
#X connect 0 0 1 0;
#X connect 1 0 2 0;
#X connect 1 0 2 1;
#X connect 1 0 3 1;
#X connect 1 0 9 0;
#X connect 1 0 12 1;
#X connect 2 0 3 0;
#X connect 3 0 4 0;
#X connect 4 0 8 0;
#X connect 5 0 6 0;
#X connect 6 0 7 0;
#X connect 8 0 5 0;
#X connect 9 0 8 1;
#X connect 10 0 9 1;
#X connect 10 0 4 1;
#X connect 11 0 12 0;
#X connect 12 0 5 1;
#X restore 301 255 pd polycurve;
#X obj 61 129 clip~ 0 0.33333;
#X obj 61 151 *~ 3;
#X obj 301 173 *~ 3;
#X obj 301 151 -~ 0.666666;
#X obj 301 129 clip~ 0.666666 1;
#X obj 346 209 inlet~;
#X obj 466 209 inlet~;
#X obj 586 209 inlet~;
#X connect 0 0 1 0;
#X connect 1 0 2 0;
#X connect 2 0 3 0;
#X connect 2 0 10 0;
#X connect 2 0 14 0;
#X connect 3 0 4 0;
#X connect 4 0 5 0;
#X connect 5 0 6 0;
#X connect 6 0 7 0;
#X connect 8 0 7 0;
#X connect 9 0 7 0;
#X connect 10 0 11 0;
#X connect 11 0 8 0;
#X connect 12 0 9 0;
#X connect 13 0 12 0;
#X connect 14 0 13 0;
#X connect 15 0 8 1;
#X connect 16 0 6 1;
#X connect 17 0 9 1;
#X restore 127 244 pd foot;
#X obj 127 266 snow;
#N canvas 0 22 484 518 splitphase 0;
#X obj 153 73 sig~;
#X obj 153 95 *~ 6;
#X obj 153 117 phasor~;
#X obj 153 189 min~;
#X obj 153 281 *~;
#X obj 153 325 wrap~;
#X obj 153 417 *~;
#X obj 215 95 sig~ 1;
#X obj 215 117 -~;
#X obj 168 234 sig~ 1;
#X obj 168 256 /~;
#X obj 153 303 +~ 1e-05;
#X obj 168 390 r active;
#X obj 266 188 +~ 0.5;
#X obj 266 210 wrap~;
#X obj 266 252 min~;
#X obj 266 334 *~;
#X obj 266 356 +~ 1e-05;
#X obj 266 378 wrap~;
#X obj 251 417 *~;
#X obj 281 289 sig~ 1;
#X obj 281 311 /~;
#X obj 73 129 > 0;
#X obj 73 181 change;
#X obj 73 203 sel 1;
#X msg 73 225 0;
#X obj 73 247 s bashphase;
#X obj 84 153 s active;
#X obj 153 441 outlet~;
#X obj 251 441 outlet~;
#X obj 153 47 inlet;
#X obj 192 73 r bashphase;
#X connect 0 0 1 0;
#X connect 0 0 8 1;
#X connect 1 0 2 0;
#X connect 2 0 3 0;
#X connect 2 0 13 0;
#X connect 3 0 4 0;
#X connect 4 0 11 0;
#X connect 5 0 6 0;
#X connect 6 0 28 0;
#X connect 7 0 8 0;
#X connect 8 0 3 1;
#X connect 8 0 10 1;
#X connect 8 0 21 1;
#X connect 8 0 15 1;
#X connect 9 0 10 0;
#X connect 10 0 4 1;
#X connect 11 0 5 0;
#X connect 12 0 6 1;
#X connect 12 0 19 1;
#X connect 13 0 14 0;
#X connect 14 0 15 0;
#X connect 15 0 16 0;
#X connect 16 0 17 0;
#X connect 17 0 18 0;
#X connect 18 0 19 0;
#X connect 19 0 29 0;
#X connect 20 0 21 0;
#X connect 21 0 16 1;
#X connect 22 0 23 0;
#X connect 22 0 27 0;
#X connect 23 0 24 0;
#X connect 24 0 25 0;
#X connect 25 0 26 0;
#X connect 30 0 0 0;
#X connect 30 0 22 0;
#X connect 31 0 2 1;
#X restore 52 100 pd splitphase;
#X obj 52 266 snow;
#X connect 0 0 1 0;
#X connect 2 0 16 0;
#X connect 3 0 17 0;
#X connect 4 0 3 1;
#X connect 4 0 14 1;
#X connect 5 0 4 0;
#X connect 6 0 3 2;
#X connect 6 0 14 2;
#X connect 7 0 6 0;
#X connect 8 0 3 3;
#X connect 8 0 14 3;
#X connect 9 0 8 0;
#X connect 10 0 11 0;
#X connect 10 0 12 0;
#X connect 10 0 13 0;
#X connect 11 0 5 0;
#X connect 12 0 7 0;
#X connect 13 0 9 0;
#X connect 14 0 15 0;
#X connect 15 0 0 1;
#X connect 16 0 3 0;
#X connect 16 1 14 0;
#X connect 17 0 0 0;
#X restore 184 108 pd footsteps;
#X connect 3 0 5 0;
#X connect 4 0 6 0;
#X connect 8 0 21 0;
#X connect 10 0 9 0;
#X connect 11 0 9 0;
#X connect 12 0 9 0;
#X connect 13 0 9 0;
#X connect 14 0 9 0;
#X connect 15 0 5 0;
#X connect 16 0 6 0;
#X connect 18 0 20 0;
#X connect 19 0 17 0;
#X connect 20 0 19 0;
#X connect 21 0 10 0;
#X connect 21 0 11 0;
#X connect 21 0 12 0;
#X connect 21 0 13 0;
#X connect 21 0 14 0;
#X connect 21 0 26 0;
#X connect 21 0 27 0;
#X connect 22 0 15 0;
#X connect 22 0 16 0;
#X connect 23 0 22 0;
#X connect 24 0 28 0;
#X connect 24 1 28 1;
#X connect 24 2 29 0;
#X connect 24 3 29 1;
#X connect 24 4 30 0;
#X connect 24 5 30 1;
#X connect 25 0 28 0;
#X connect 25 1 28 1;
#X connect 25 2 29 0;
#X connect 25 3 29 1;
#X connect 26 0 9 0;
#X connect 27 0 9 0;
#X connect 28 0 0 0;
#X connect 29 0 0 0;
#X connect 29 1 0 1;
#X connect 30 0 0 0;
#X connect 30 1 0 1;
#X connect 32 0 0 0;
#X connect 32 0 0 1;
