#N canvas 612 196 923 650 10;
#X declare -path abs;
#X obj 41 83 catch~ l;
#X obj 98 83 catch~ r;
#X obj 41 175 dac~;
#X text 496 317 y1;
#X text 416 318 x1;
#X floatatom 417 301 5 0 0 0 - - -;
#X floatatom 497 301 5 0 0 0 - - -;
#X obj 417 335 s listener-x;
#X obj 497 335 s listener-y;
#X obj 399 492 s listener-direction;
#X floatatom 399 428 5 0 0 0 - - -;
#X obj 399 469 mod 360;
#X obj 399 447 + 1080;
#N canvas 0 22 450 300 init 0;
#X obj 64 41 declare -path abs;
#X restore 46 19 pd init;
#X obj 134 131 *~ 1;
#X obj 134 154 delwrite~ echo-1 500;
#X obj 134 182 delread~ echo-1 250;
#X obj 434 8 hsl 128 15 0 1 0 0 empty empty empty -2 -8 0 10 -262144
-1 -1 0 1;
#X obj 134 213 3d-pos-dac 0 0.5;
#X obj 428 79 grid grid1 200 0 31.99 200 0 31.99 1 1 1 32 32 494 182
;
#X obj 693 92 loadbang;
#X obj 693 116 del 100;
#N canvas 904 211 819 667 melody 1;
#X obj 259 106 f;
#X obj 284 106 + 1;
#X obj 259 61 tgl 15 0 empty empty empty 17 7 0 10 -262144 -1 -1 0
1;
#X floatatom 315 63 5 0 0 0 - - -;
#N canvas 0 22 450 278 (subpatch) 0;
#X array scale 3 float 3;
#A 0 0 7 10;
#X coords 0 12 3 0 200 140 1 0 0;
#X restore 606 57 graph;
#X obj 348 167 mod 8;
#X obj 348 196 sel 0 1 2 3 4 5 6 7;
#X msg 348 227 0;
#X msg 378 227 3;
#X msg 408 227 1;
#X msg 438 227 2;
#X obj 348 257 f;
#X obj 259 83 metro 115;
#X msg 89 479 \; scale 0 0 7 10 \;;
#X msg 88 433 0;
#X obj 88 455 s transpose;
#X msg 119 433 3;
#X msg 150 433 5;
#X msg 181 433 7;
#X obj 77 223 sine-voice 3 f;
#X obj 259 169 mod 4;
#X obj 259 213 s kick;
#X obj 259 191 sel 0 2;
#X obj 269 233 s hh;
#X obj 77 157 sine-voice 0 c;
#X obj 77 179 sine-voice 1 d;
#X obj 77 201 sine-voice 2 e;
#N canvas 654 488 316 189 drums 0;
#N canvas 0 22 292 331 bd 1;
#X obj 111 219 *~;
#X obj 129 190 osc~;
#X obj 128 168 +~ 50;
#X obj 127 143 *~ 150;
#X obj 111 56 inlet;
#X obj 111 245 outlet~;
#X obj 111 86 c_ead-hv;
#X connect 0 0 5 0;
#X connect 1 0 0 1;
#X connect 2 0 1 0;
#X connect 3 0 2 0;
#X connect 4 0 6 0;
#X connect 6 0 3 0;
#X connect 6 0 0 0;
#X restore 42 83 pd bd;
#X obj 42 34 r kick;
#X msg 42 60 200;
#N canvas 0 22 993 683 hh 0;
#X obj 348 270 clip~ -1 1;
#X obj 348 193 bp~ 8906 1.437;
#X obj 348 215 bp~ 8906 1.437;
#X obj 348 173 hip~ 8000;
#X floatatom 348 101 5 0 0 0 - - -;
#X obj 64 424 *~;
#X obj 452 322 *~;
#X obj 452 350 *~;
#X obj 349 304 *~;
#X msg 396 374 0;
#X obj 348 415 *~ 0.1;
#X msg 428 375 0.1;
#N canvas 0 22 744 501 squarebattery 0;
#X obj 346 142 *~ 0.7;
#X obj 105 124 *~ 0.9;
#X obj 105 79 * 210;
#X obj 345 94 * 540;
#X obj 462 104 * 550;
#X obj 569 103 * 800;
#X obj 269 92 * 380;
#X obj 187 91 * 320;
#X obj 105 404 outlet~;
#X obj 105 11 inlet;
#X text 151 13 tuning;
#N canvas 0 22 438 462 square 0;
#X obj 132 215 -~ 0.5;
#X obj 42 197 wrap~;
#X obj 42 220 -~ 0.5;
#X obj 42 175 -~ 0.5;
#X obj 42 289 -~;
#X obj 42 317 outlet~;
#X obj 42 94 phasor~;
#X obj 42 64 inlet;
#X connect 0 0 4 1;
#X connect 1 0 2 0;
#X connect 2 0 4 0;
#X connect 3 0 1 0;
#X connect 4 0 5 0;
#X connect 6 0 3 0;
#X connect 6 0 0 0;
#X connect 7 0 6 0;
#X restore 345 114 pd square;
#N canvas 0 22 438 462 square 0;
#X obj 132 215 -~ 0.5;
#X obj 42 197 wrap~;
#X obj 42 220 -~ 0.5;
#X obj 42 175 -~ 0.5;
#X obj 42 289 -~;
#X obj 42 317 outlet~;
#X obj 42 94 phasor~;
#X obj 42 64 inlet;
#X connect 0 0 4 1;
#X connect 1 0 2 0;
#X connect 2 0 4 0;
#X connect 3 0 1 0;
#X connect 4 0 5 0;
#X connect 6 0 3 0;
#X connect 6 0 0 0;
#X connect 7 0 6 0;
#X restore 462 128 pd square;
#N canvas 0 22 438 462 square 0;
#X obj 132 215 -~ 0.5;
#X obj 42 197 wrap~;
#X obj 42 220 -~ 0.5;
#X obj 42 175 -~ 0.5;
#X obj 42 289 -~;
#X obj 42 317 outlet~;
#X obj 42 94 phasor~;
#X obj 42 64 inlet;
#X connect 0 0 4 1;
#X connect 1 0 2 0;
#X connect 2 0 4 0;
#X connect 3 0 1 0;
#X connect 4 0 5 0;
#X connect 6 0 3 0;
#X connect 6 0 0 0;
#X connect 7 0 6 0;
#X restore 569 128 pd square;
#N canvas 0 22 438 462 square 0;
#X obj 132 215 -~ 0.5;
#X obj 42 197 wrap~;
#X obj 42 220 -~ 0.5;
#X obj 42 175 -~ 0.5;
#X obj 42 289 -~;
#X obj 42 317 outlet~;
#X obj 42 94 phasor~;
#X obj 42 64 inlet;
#X connect 0 0 4 1;
#X connect 1 0 2 0;
#X connect 2 0 4 0;
#X connect 3 0 1 0;
#X connect 4 0 5 0;
#X connect 6 0 3 0;
#X connect 6 0 0 0;
#X connect 7 0 6 0;
#X restore 269 115 pd square;
#N canvas 0 22 438 462 square 0;
#X obj 132 215 -~ 0.5;
#X obj 42 197 wrap~;
#X obj 42 220 -~ 0.5;
#X obj 42 175 -~ 0.5;
#X obj 42 289 -~;
#X obj 42 317 outlet~;
#X obj 42 94 phasor~;
#X obj 42 64 inlet;
#X connect 0 0 4 1;
#X connect 1 0 2 0;
#X connect 2 0 4 0;
#X connect 3 0 1 0;
#X connect 4 0 5 0;
#X connect 6 0 3 0;
#X connect 6 0 0 0;
#X connect 7 0 6 0;
#X restore 187 119 pd square;
#N canvas 0 22 438 462 square 0;
#X obj 132 215 -~ 0.5;
#X obj 42 197 wrap~;
#X obj 42 220 -~ 0.5;
#X obj 42 175 -~ 0.5;
#X obj 42 289 -~;
#X obj 42 317 outlet~;
#X obj 42 94 phasor~;
#X obj 42 64 inlet;
#X connect 0 0 4 1;
#X connect 1 0 2 0;
#X connect 2 0 4 0;
#X connect 3 0 1 0;
#X connect 4 0 5 0;
#X connect 6 0 3 0;
#X connect 6 0 0 0;
#X connect 7 0 6 0;
#X restore 105 101 pd square;
#X connect 0 0 8 0;
#X connect 1 0 8 0;
#X connect 2 0 16 0;
#X connect 3 0 11 0;
#X connect 4 0 12 0;
#X connect 5 0 13 0;
#X connect 6 0 14 0;
#X connect 7 0 15 0;
#X connect 9 0 2 0;
#X connect 9 0 3 0;
#X connect 9 0 4 0;
#X connect 9 0 5 0;
#X connect 9 0 6 0;
#X connect 9 0 7 0;
#X connect 11 0 0 0;
#X connect 12 0 8 0;
#X connect 13 0 8 0;
#X connect 14 0 8 0;
#X connect 15 0 8 0;
#X connect 16 0 1 0;
#X restore 348 144 pd squarebattery;
#X msg 394 120 1;
#X obj 394 100 loadbang;
#X obj 64 515 outlet~;
#X obj 65 50 inlet;
#X obj 65 74 list trim;
#X obj 65 153 route float;
#X msg 139 178 100;
#X obj 65 222 t b a;
#X obj 199 103 route float;
#X obj 199 172 t b b a;
#X msg 273 128 1500;
#X obj 348 247 *~ 150;
#X obj 187 525 outlet;
#X obj 65 99 route hh oh hhtune;
#X obj 320 528 del 2122;
#X obj 318 550 0;
#X obj 288 548 1;
#X obj 288 584 t a;
#X obj 303 611 switch~;
#X msg 322 587 1;
#X obj 288 506 t b f;
#X obj 288 483 f 1500;
#X obj 65 248 c_ead-hv 3 100;
#X obj 451 299 c_ead-hv 25 1500;
#X connect 0 0 5 1;
#X connect 0 0 8 0;
#X connect 1 0 2 0;
#X connect 2 0 24 0;
#X connect 3 0 1 0;
#X connect 4 0 12 0;
#X connect 5 0 15 0;
#X connect 6 0 7 0;
#X connect 6 0 7 1;
#X connect 6 0 8 1;
#X connect 7 0 8 1;
#X connect 8 0 10 0;
#X connect 9 0 10 1;
#X connect 10 0 15 0;
#X connect 11 0 10 1;
#X connect 12 0 3 0;
#X connect 13 0 12 0;
#X connect 14 0 13 0;
#X connect 16 0 17 0;
#X connect 17 0 26 0;
#X connect 18 0 20 0;
#X connect 18 1 19 0;
#X connect 19 0 20 0;
#X connect 20 0 34 0;
#X connect 20 0 35 0;
#X connect 20 1 35 2;
#X connect 21 0 22 0;
#X connect 21 1 23 0;
#X connect 22 0 19 0;
#X connect 22 1 36 0;
#X connect 22 2 34 1;
#X connect 22 2 36 2;
#X connect 23 0 22 0;
#X connect 24 0 0 0;
#X connect 26 0 18 0;
#X connect 26 0 9 0;
#X connect 26 1 21 0;
#X connect 26 1 11 0;
#X connect 26 2 12 0;
#X connect 26 3 25 0;
#X connect 27 0 28 0;
#X connect 28 0 30 0;
#X connect 29 0 30 0;
#X connect 30 0 31 0;
#X connect 32 0 31 0;
#X connect 33 0 29 0;
#X connect 33 1 27 0;
#X connect 34 0 33 0;
#X connect 35 0 5 0;
#X connect 36 0 6 0;
#X connect 36 0 6 1;
#X restore 126 82 pd hh;
#X obj 126 34 r hh;
#X obj 42 108 3d-pos g;
#X obj 126 108 3d-pos g;
#X msg 126 59 oh;
#X connect 0 0 5 0;
#X connect 1 0 2 0;
#X connect 2 0 0 0;
#X connect 3 0 6 0;
#X connect 4 0 7 0;
#X connect 7 0 3 0;
#X restore 83 276 pd drums;
#X msg 348 282 \; note-\$1 bang \;;
#X connect 0 0 1 0;
#X connect 0 0 5 0;
#X connect 0 0 20 0;
#X connect 1 0 0 1;
#X connect 2 0 12 0;
#X connect 3 0 12 1;
#X connect 5 0 6 0;
#X connect 6 0 7 0;
#X connect 6 1 7 0;
#X connect 6 2 8 0;
#X connect 6 3 8 0;
#X connect 6 4 9 0;
#X connect 6 5 9 0;
#X connect 6 6 10 0;
#X connect 6 7 10 0;
#X connect 7 0 11 0;
#X connect 8 0 11 0;
#X connect 9 0 11 0;
#X connect 10 0 11 0;
#X connect 11 0 28 0;
#X connect 12 0 0 0;
#X connect 14 0 15 0;
#X connect 16 0 15 0;
#X connect 17 0 15 0;
#X connect 18 0 15 0;
#X connect 20 0 22 0;
#X connect 22 0 21 0;
#X connect 22 1 23 0;
#X restore 41 213 pd melody;
#X msg 693 140 \; object-a 22 23 \; object-b 25 27 \; object-c 24 7
\; object-d 25 8 \; object-e 24 9 \; object-f 23 8 \; object-g 21 5
\; object-h 27 5 \; object-i 4 6 \; object-j 4 7 \; object-k 4 8 \;
object-l 4 9 \; object-m 4 10 \; object-n 4 11 \; object-o 6 6 \; object-p
6 7 \; object-q 6 8 \; object-r 6 9 \; object-s 6 10 object-t 6 11
\; object-u 5 23 \; ba 0 \;;
#X connect 0 0 14 0;
#X connect 0 0 2 0;
#X connect 1 0 14 0;
#X connect 1 0 2 1;
#X connect 5 0 7 0;
#X connect 6 0 8 0;
#X connect 10 0 12 0;
#X connect 11 0 9 0;
#X connect 12 0 11 0;
#X connect 14 0 15 0;
#X connect 16 0 18 0;
#X connect 17 0 5 0;
#X connect 19 0 5 0;
#X connect 19 1 6 0;
#X connect 20 0 21 0;
#X connect 21 0 23 0;
