#N canvas 290 470 943 547 10;
#X declare -path abs;
#X obj 41 83 catch~ l;
#X obj 98 83 catch~ r;
#X obj 41 175 dac~;
#X text 448 247 y1;
#X text 368 248 x1;
#X floatatom 369 231 5 0 0 0 - - -, f 5;
#X floatatom 449 231 5 0 0 0 - - -, f 5;
#X obj 369 265 s listener-x;
#X obj 449 265 s listener-y;
#X obj 399 432 s listener-direction;
#X floatatom 399 368 5 0 0 0 - - -, f 5;
#X obj 399 409 mod 360;
#X obj 340 19 grid grid1 200 0 0.99 200 0 0.99 1 0.01 0.01 10 10 436
116;
#X obj 399 387 + 1080;
#N canvas 0 22 450 300 init 0;
#X obj 64 41 declare -path abs;
#X restore 46 19 pd init;
#N canvas 883 165 819 667 sine-synth 0;
#X msg 494 337 \; note-\$1 bang \;;
#X obj 353 104 f;
#X obj 378 104 + 1;
#X obj 353 59 tgl 15 0 empty empty empty 17 7 0 10 -262144 -1 -1 1
1;
#X floatatom 409 61 5 0 0 0 - - -, f 5;
#X obj 353 81 metro 100;
#X obj 494 151 loadbang;
#X obj 494 175 tgl 15 0 empty empty empty 17 7 0 10 -262144 -1 -1 0
1;
#X obj 494 199 metro 1000;
#X obj 494 230 t b b;
#X obj 521 253 random 1000;
#X obj 521 277 + 250;
#N canvas 0 22 450 278 (subpatch) 0;
#X array scale 5 float 3;
#A 0 0 4 5 7 11;
#X coords 0 12 5 0 200 140 1 0 0;
#X restore 606 57 graph;
#X msg 89 479 \; scale 0 0 4 5 7 11 \;;
#X obj 177 231 sine-voice 15;
#X obj 77 269 sine-voice 5;
#X obj 77 157 sine-voice 0;
#X obj 77 179 sine-voice 1;
#X obj 77 201 sine-voice 2;
#X obj 77 223 sine-voice 3;
#X obj 77 247 sine-voice 4;
#X obj 77 291 sine-voice 6;
#X obj 77 313 sine-voice 7;
#X obj 77 337 sine-voice 8;
#X obj 77 359 sine-voice 9;
#X obj 77 381 sine-voice 10;
#X obj 77 404 sine-voice 11;
#X obj 177 157 sine-voice 12;
#X obj 177 179 sine-voice 13;
#X obj 177 201 sine-voice 14;
#X obj 494 314 random 15;
#X obj 353 135 mod 15;
#X obj 353 164 + 0;
#X connect 1 0 2 0;
#X connect 1 0 31 0;
#X connect 2 0 1 1;
#X connect 3 0 5 0;
#X connect 4 0 5 1;
#X connect 5 0 1 0;
#X connect 7 0 8 0;
#X connect 8 0 9 0;
#X connect 9 0 30 0;
#X connect 9 1 10 0;
#X connect 10 0 11 0;
#X connect 11 0 8 1;
#X connect 30 0 0 0;
#X connect 31 0 32 0;
#X connect 32 0 0 0;
#X restore 41 218 pd sine-synth;
#X obj 134 131 *~ 1;
#X obj 134 154 delwrite~ echo-1 500;
#X obj 134 182 delread~ echo-1 250;
#X obj 596 182 hsl 128 15 0 1 0 0 empty empty empty -2 -8 0 10 -262144
-1 -1 0 1;
#X obj 134 233 3d-pos-dac 0 0.5;
#X connect 0 0 16 0;
#X connect 0 0 2 0;
#X connect 1 0 16 0;
#X connect 1 0 2 1;
#X connect 5 0 7 0;
#X connect 6 0 8 0;
#X connect 10 0 13 0;
#X connect 11 0 9 0;
#X connect 12 0 5 0;
#X connect 12 1 6 0;
#X connect 13 0 11 0;
#X connect 16 0 17 0;
#X connect 18 0 20 0;
#X connect 19 0 5 0;
