#N canvas 568 150 943 547 10;
#X obj 152 294 osc~;
#X obj 152 316 *~ 0.3;
#X obj 152 338 *~;
#X msg 190 266 0 1 \, 1 5 1 \, 0 100 50;
#X obj 190 289 vline~;
#X obj 152 161 r note-\$1;
#X obj 152 183 t b b;
#X obj 152 205 \$1;
#X obj 152 249 mtof;
#X obj 152 271 sig~;
#X obj 216 220 bng 15 250 50 0 empty empty empty 17 7 0 10 -262144
-1 -1;
#X obj 164 377 dac~;
#X msg 262 178 60;
#X connect 0 0 1 0;
#X connect 1 0 2 0;
#X connect 2 0 11 0;
#X connect 2 0 11 1;
#X connect 3 0 4 0;
#X connect 4 0 2 1;
#X connect 5 0 6 0;
#X connect 6 0 7 0;
#X connect 6 1 3 0;
#X connect 7 0 8 0;
#X connect 8 0 9 0;
#X connect 9 0 0 0;
#X connect 10 0 6 0;
#X connect 12 0 8 0;
