#N canvas 237 106 638 503 10;
#X obj 41 83 catch~ l;
#X obj 98 83 catch~ r;
#X obj 41 105 dac~;
#N canvas 0 22 1244 434 wind 0;
#N canvas 0 22 450 300 windspeed 0;
#X obj 123 67 osc~ 0.1;
#X obj 123 89 +~ 1;
#X obj 123 111 *~ 0.25;
#X obj 123 193 +~;
#X obj 123 215 clip~ 0 1;
#X obj 123 237 outlet~;
#N canvas 0 22 450 300 gust 0;
#X obj 147 76 noise~;
#X obj 147 98 lop~ 0.5;
#X obj 147 120 lop~ 0.5;
#X obj 147 142 hip~ 0;
#X obj 147 164 *~ 50;
#X obj 147 186 *~;
#X obj 147 208 outlet~;
#X obj 220 78 inlet~;
#X obj 220 100 +~ 0.5;
#X obj 220 122 *~;
#X obj 220 144 -~ 0.125;
#X connect 0 0 1 0;
#X connect 1 0 2 0;
#X connect 2 0 3 0;
#X connect 3 0 4 0;
#X connect 4 0 5 0;
#X connect 5 0 6 0;
#X connect 7 0 8 0;
#X connect 8 0 9 0;
#X connect 8 0 9 1;
#X connect 9 0 10 0;
#X connect 10 0 5 1;
#X restore 143 138 pd gust;
#X obj 143 160 +~;
#N canvas 0 22 450 300 squall 0;
#X obj 129 66 inlet~;
#X obj 129 88 max~ 0.4;
#X obj 129 110 -~ 0.4;
#X obj 129 132 *~ 8;
#X obj 129 154 *~;
#X obj 129 176 *~;
#X obj 129 198 outlet~;
#X obj 213 89 lop~ 3;
#X obj 213 111 lop~ 3;
#X obj 213 133 hip~ 0;
#X obj 213 155 *~ 20;
#X obj 213 67 noise~;
#X connect 0 0 1 0;
#X connect 1 0 2 0;
#X connect 2 0 3 0;
#X connect 3 0 4 0;
#X connect 3 0 4 1;
#X connect 4 0 5 0;
#X connect 5 0 6 0;
#X connect 7 0 8 0;
#X connect 8 0 9 0;
#X connect 9 0 10 0;
#X connect 10 0 5 1;
#X connect 11 0 7 0;
#X restore 200 138 pd squall;
#X connect 0 0 1 0;
#X connect 1 0 2 0;
#X connect 2 0 3 0;
#X connect 2 0 6 0;
#X connect 2 0 8 0;
#X connect 3 0 4 0;
#X connect 4 0 5 0;
#X connect 6 0 7 0;
#X connect 7 0 3 1;
#X connect 8 0 7 1;
#X restore 65 144 pd windspeed;
#X obj 65 166 delwrite~ a 3000;
#X obj 63 206 vd~ a 0;
#X obj 63 228 +~ 0.2;
#X obj 63 250 *~;
#X obj 65 80 noise~;
#X obj 65 102 s~ white;
#X obj 115 207 r~ white;
#X obj 115 229 bp~ 800 1;
#X obj 63 332 *~ 0.2;
#X obj 63 312 rzero~;
#X obj 102 267 *~ 0.6;
#X obj 102 289 clip~ 0 0.99;
#X obj 267 144 r~ white;
#X obj 267 304 *~;
#X obj 267 333 *~ 1.2;
#X obj 282 163 vd~ a 100;
#X obj 282 260 +~ 0.12;
#X obj 282 282 *~;
#X obj 301 186 *~ 400;
#X obj 301 208 +~ 600;
#X obj 267 232 vcf~ 1000 60;
#X obj 373 133 loadbang;
#X msg 373 155 60;
#X obj 437 144 r~ white;
#X obj 437 304 *~;
#X obj 452 163 vd~ a 100;
#X obj 452 208 *~;
#X obj 437 232 vcf~ 1000 60;
#X obj 437 333 *~ 2;
#X obj 481 186 *~ 1000;
#X obj 481 208 +~ 1000;
#X obj 696 181 r~ white;
#X obj 696 203 max~;
#X obj 696 225 -~;
#X obj 696 247 *~;
#X obj 696 269 hip~ 200;
#X obj 696 291 lop~ 4000;
#X obj 696 313 *~;
#X obj 696 335 *~ 1.2;
#X obj 785 69 vd~ a 2000;
#X obj 785 91 lop~ 0.1;
#X obj 785 113 *~ 0.4;
#X obj 785 135 +~ 0.3;
#X obj 768 157 sig~ 1;
#X obj 768 179 -~;
#X obj 186 314 tgl 15 0 empty empty empty 17 7 0 10 -262144 -1 -1 0
1;
#X obj 356 314 tgl 15 0 empty empty empty 17 7 0 10 -262144 -1 -1 0
1;
#X obj 929 126 clip~ 0.35 0.6;
#X obj 929 148 -~ 0.35;
#X obj 929 170 *~ 2;
#X obj 929 192 -~ 0.25;
#X obj 929 214 cos~;
#X obj 929 236 lop~ 0.5;
#X obj 929 258 *~ 200;
#X obj 929 280 +~ 30;
#X obj 929 302 osc~;
#X obj 851 247 r~ white;
#X obj 851 269 bp~ 400 40;
#X obj 851 291 *~;
#X obj 851 313 *~ 2;
#X obj 851 335 *~;
#X obj 908 333 tgl 15 0 empty empty empty 17 7 0 10 -262144 -1 -1 0
1;
#X obj 1087 173 *~ 2;
#X obj 1087 195 -~ 0.25;
#X obj 1087 217 cos~;
#X obj 1087 305 osc~;
#X obj 1009 250 r~ white;
#X obj 1009 294 *~;
#X obj 1009 316 *~ 2;
#X obj 1009 338 *~;
#X obj 1066 336 tgl 15 0 empty empty empty 17 7 0 10 -262144 -1 -1
0 1;
#X obj 1087 129 clip~ 0.25 0.5;
#X obj 1087 151 -~ 0.25;
#X obj 1087 261 *~ 100;
#X obj 1087 283 +~ 20;
#X obj 1009 272 bp~ 200 40;
#X obj 929 104 vd~ a 100;
#X obj 1087 107 vd~ a 300;
#X obj 1087 239 lop~ 0.1;
#X msg 186 333 on \$1;
#X msg 566 331 azimuth \$1;
#X floatatom 565 297 5 0 0 0 - - -, f 5;
#X msg 356 334 on \$1;
#X obj 627 288 tgl 15 0 empty empty empty 17 7 0 10 -262144 -1 -1 0
1;
#X msg 627 308 on \$1;
#X obj 63 354 rm_fir-binaural 1 0 0;
#X obj 437 355 rm_fir-binaural 1 75 0;
#X obj 267 355 rm_fir-binaural 1 45 0;
#X obj 696 357 rm_fir-binaural 1 0 0;
#X obj 851 357 rm_fir-binaural 1 90 0;
#X obj 1009 360 rm_fir-binaural 1 270 0;
#X obj 783 304 tgl 15 0 empty empty empty 17 7 0 10 -262144 -1 -1 0
1;
#X msg 783 324 on \$1;
#X obj 1144 310 tgl 15 0 empty empty empty 17 7 0 10 -262144 -1 -1
0 1;
#X msg 1144 330 on \$1;
#X connect 0 0 1 0;
#X connect 2 0 3 0;
#X connect 3 0 4 0;
#X connect 3 0 11 0;
#X connect 4 0 10 0;
#X connect 5 0 6 0;
#X connect 7 0 8 0;
#X connect 8 0 4 1;
#X connect 9 0 86 0;
#X connect 9 0 86 1;
#X connect 10 0 9 0;
#X connect 11 0 12 0;
#X connect 12 0 10 1;
#X connect 13 0 21 0;
#X connect 14 0 15 0;
#X connect 15 0 88 0;
#X connect 15 0 88 1;
#X connect 16 0 17 0;
#X connect 16 0 19 0;
#X connect 17 0 18 0;
#X connect 17 0 18 1;
#X connect 18 0 14 1;
#X connect 19 0 20 0;
#X connect 20 0 21 1;
#X connect 21 0 14 0;
#X connect 22 0 23 0;
#X connect 23 0 21 2;
#X connect 23 0 28 2;
#X connect 24 0 28 0;
#X connect 25 0 29 0;
#X connect 26 0 27 0;
#X connect 26 0 27 1;
#X connect 26 0 30 0;
#X connect 27 0 25 1;
#X connect 28 0 25 0;
#X connect 29 0 87 0;
#X connect 29 0 87 1;
#X connect 30 0 31 0;
#X connect 31 0 28 1;
#X connect 32 0 33 0;
#X connect 33 0 34 0;
#X connect 34 0 35 0;
#X connect 35 0 36 0;
#X connect 36 0 37 0;
#X connect 37 0 38 0;
#X connect 38 0 39 0;
#X connect 39 0 89 0;
#X connect 39 0 89 1;
#X connect 40 0 41 0;
#X connect 41 0 42 0;
#X connect 41 0 38 1;
#X connect 42 0 43 0;
#X connect 43 0 45 1;
#X connect 44 0 45 0;
#X connect 45 0 33 1;
#X connect 45 0 34 1;
#X connect 45 0 35 1;
#X connect 46 0 80 0;
#X connect 47 0 83 0;
#X connect 48 0 49 0;
#X connect 49 0 50 0;
#X connect 50 0 51 0;
#X connect 51 0 52 0;
#X connect 52 0 53 0;
#X connect 53 0 54 0;
#X connect 53 0 59 1;
#X connect 54 0 55 0;
#X connect 55 0 56 0;
#X connect 56 0 61 1;
#X connect 57 0 58 0;
#X connect 58 0 59 0;
#X connect 59 0 60 0;
#X connect 60 0 61 0;
#X connect 61 0 90 0;
#X connect 61 0 90 1;
#X connect 63 0 64 0;
#X connect 64 0 65 0;
#X connect 65 0 79 0;
#X connect 66 0 70 1;
#X connect 67 0 76 0;
#X connect 68 0 69 0;
#X connect 69 0 70 0;
#X connect 70 0 91 0;
#X connect 70 0 91 1;
#X connect 71 0 91 1;
#X connect 72 0 73 0;
#X connect 73 0 63 0;
#X connect 74 0 75 0;
#X connect 75 0 66 0;
#X connect 76 0 68 0;
#X connect 77 0 48 0;
#X connect 78 0 72 0;
#X connect 79 0 68 1;
#X connect 79 0 74 0;
#X connect 80 0 86 2;
#X connect 81 0 87 2;
#X connect 82 0 81 0;
#X connect 83 0 88 2;
#X connect 84 0 85 0;
#X connect 85 0 87 2;
#X connect 92 0 93 0;
#X connect 93 0 89 2;
#X connect 94 0 95 0;
#X connect 95 0 90 2;
#X connect 95 0 91 2;
#X restore 41 37 pd wind;
#N canvas 0 22 556 418 footsteps 0;
#N canvas 0 22 484 518 splitphase 0;
#X obj 153 73 sig~;
#X obj 153 95 *~ 6;
#X obj 153 117 phasor~;
#X obj 153 189 min~;
#X obj 153 281 *~;
#X obj 153 325 wrap~;
#X obj 153 417 *~;
#X obj 215 95 sig~ 1;
#X obj 215 117 -~;
#X obj 168 234 sig~ 1;
#X obj 168 256 /~;
#X obj 153 303 +~ 1e-05;
#X obj 168 390 r active;
#X obj 266 188 +~ 0.5;
#X obj 266 210 wrap~;
#X obj 266 252 min~;
#X obj 266 334 *~;
#X obj 266 356 +~ 1e-05;
#X obj 266 378 wrap~;
#X obj 251 417 *~;
#X obj 281 289 sig~ 1;
#X obj 281 311 /~;
#X obj 192 75 r bashphase;
#X obj 73 129 > 0;
#X obj 73 181 change;
#X obj 73 203 sel 1;
#X msg 73 225 0;
#X obj 73 247 s bashphase;
#X obj 84 153 s active;
#X obj 153 441 outlet~;
#X obj 251 441 outlet~;
#X obj 153 47 inlet;
#X connect 0 0 1 0;
#X connect 0 0 8 1;
#X connect 1 0 2 0;
#X connect 2 0 3 0;
#X connect 2 0 13 0;
#X connect 3 0 4 0;
#X connect 4 0 11 0;
#X connect 5 0 6 0;
#X connect 6 0 29 0;
#X connect 7 0 8 0;
#X connect 8 0 3 1;
#X connect 8 0 10 1;
#X connect 8 0 21 1;
#X connect 8 0 15 1;
#X connect 9 0 10 0;
#X connect 10 0 4 1;
#X connect 11 0 5 0;
#X connect 12 0 6 1;
#X connect 12 0 19 0;
#X connect 13 0 14 0;
#X connect 14 0 15 0;
#X connect 15 0 16 0;
#X connect 16 0 17 0;
#X connect 17 0 18 0;
#X connect 18 0 19 1;
#X connect 19 0 30 0;
#X connect 20 0 21 0;
#X connect 21 0 16 1;
#X connect 22 0 2 1;
#X connect 23 0 24 0;
#X connect 23 0 28 0;
#X connect 24 0 25 0;
#X connect 25 0 26 0;
#X connect 26 0 27 0;
#X connect 31 0 0 0;
#X connect 31 0 23 0;
#X restore 70 164 pd splitphase;
#N canvas 0 22 502 397 foot 0;
#X obj 181 43 inlet~;
#X obj 181 65 clip~ 0 0.75;
#X obj 181 87 *~ 1.33333;
#X obj 181 129 clip~ 0.125 0.875;
#X obj 181 151 -~ 0.125;
#X obj 181 173 *~ 1.33333;
#N canvas 0 22 378 386 polycurve 0;
#X obj 92 65 inlet~ X;
#X obj 92 87 *~ 1;
#X obj 92 109 *~;
#X obj 92 131 *~;
#X obj 142 183 *~;
#X obj 162 237 *~;
#X obj 162 259 *~ -1.5;
#X obj 162 281 outlet~ P;
#X obj 142 205 -~;
#X obj 126 109 *~;
#X obj 157 65 inlet~ P;
#X obj 177 96 sig~ 1;
#X obj 177 118 -~;
#X connect 0 0 1 0;
#X connect 1 0 2 0;
#X connect 1 0 2 1;
#X connect 1 0 3 1;
#X connect 1 0 9 0;
#X connect 1 0 12 1;
#X connect 2 0 3 0;
#X connect 3 0 4 0;
#X connect 4 0 8 0;
#X connect 5 0 6 0;
#X connect 6 0 7 0;
#X connect 8 0 5 0;
#X connect 9 0 8 1;
#X connect 10 0 9 1;
#X connect 10 0 4 1;
#X connect 11 0 12 0;
#X connect 12 0 5 1;
#X restore 181 225 pd polycurve;
#X obj 181 297 outlet~;
#X obj 250 201 r~ n2;
#N canvas 0 22 378 386 polycurve 0;
#X obj 92 65 inlet~ X;
#X obj 92 87 *~ 1;
#X obj 92 109 *~;
#X obj 92 131 *~;
#X obj 142 183 *~;
#X obj 162 237 *~;
#X obj 162 259 *~ -1.5;
#X obj 162 281 outlet~ P;
#X obj 142 205 -~;
#X obj 126 109 *~;
#X obj 157 65 inlet~ P;
#X obj 177 96 sig~ 1;
#X obj 177 118 -~;
#X connect 0 0 1 0;
#X connect 1 0 2 0;
#X connect 1 0 2 1;
#X connect 1 0 3 1;
#X connect 1 0 9 0;
#X connect 1 0 12 1;
#X connect 2 0 3 0;
#X connect 3 0 4 0;
#X connect 4 0 8 0;
#X connect 5 0 6 0;
#X connect 6 0 7 0;
#X connect 8 0 5 0;
#X connect 9 0 8 1;
#X connect 10 0 9 1;
#X connect 10 0 4 1;
#X connect 11 0 12 0;
#X connect 12 0 5 1;
#X restore 61 225 pd polycurve;
#X obj 130 201 r~ n1;
#N canvas 0 22 378 386 polycurve 0;
#X obj 92 65 inlet~ X;
#X obj 92 87 *~ 1;
#X obj 92 109 *~;
#X obj 92 131 *~;
#X obj 142 183 *~;
#X obj 162 237 *~;
#X obj 162 259 *~ -1.5;
#X obj 162 281 outlet~ P;
#X obj 142 205 -~;
#X obj 126 109 *~;
#X obj 157 65 inlet~ P;
#X obj 177 96 sig~ 1;
#X obj 177 118 -~;
#X connect 0 0 1 0;
#X connect 1 0 2 0;
#X connect 1 0 2 1;
#X connect 1 0 3 1;
#X connect 1 0 9 0;
#X connect 1 0 12 1;
#X connect 2 0 3 0;
#X connect 3 0 4 0;
#X connect 4 0 8 0;
#X connect 5 0 6 0;
#X connect 6 0 7 0;
#X connect 8 0 5 0;
#X connect 9 0 8 1;
#X connect 10 0 9 1;
#X connect 10 0 4 1;
#X connect 11 0 12 0;
#X connect 12 0 5 1;
#X restore 301 225 pd polycurve;
#X obj 370 201 r~ n3;
#X obj 61 129 clip~ 0 0.33333;
#X obj 61 151 *~ 3;
#X obj 301 173 *~ 3;
#X obj 301 151 -~ 0.666666;
#X obj 301 129 clip~ 0.666666 1;
#X connect 0 0 1 0;
#X connect 1 0 2 0;
#X connect 2 0 3 0;
#X connect 2 0 13 0;
#X connect 2 0 17 0;
#X connect 3 0 4 0;
#X connect 4 0 5 0;
#X connect 5 0 6 0;
#X connect 6 0 7 0;
#X connect 8 0 6 1;
#X connect 9 0 7 0;
#X connect 10 0 9 1;
#X connect 11 0 7 0;
#X connect 12 0 11 1;
#X connect 13 0 14 0;
#X connect 14 0 9 0;
#X connect 15 0 11 0;
#X connect 16 0 15 0;
#X connect 17 0 16 0;
#X restore 70 216 pd foot;
#N canvas 0 22 502 397 foot 0;
#X obj 181 43 inlet~;
#X obj 181 65 clip~ 0 0.75;
#X obj 181 87 *~ 1.33333;
#X obj 181 129 clip~ 0.125 0.875;
#X obj 181 151 -~ 0.125;
#X obj 181 173 *~ 1.33333;
#N canvas 0 22 378 386 polycurve 0;
#X obj 92 65 inlet~ X;
#X obj 92 87 *~ 1;
#X obj 92 109 *~;
#X obj 92 131 *~;
#X obj 142 183 *~;
#X obj 162 237 *~;
#X obj 162 259 *~ -1.5;
#X obj 162 281 outlet~ P;
#X obj 142 205 -~;
#X obj 126 109 *~;
#X obj 157 65 inlet~ P;
#X obj 177 96 sig~ 1;
#X obj 177 118 -~;
#X connect 0 0 1 0;
#X connect 1 0 2 0;
#X connect 1 0 2 1;
#X connect 1 0 3 1;
#X connect 1 0 9 0;
#X connect 1 0 12 1;
#X connect 2 0 3 0;
#X connect 3 0 4 0;
#X connect 4 0 8 0;
#X connect 5 0 6 0;
#X connect 6 0 7 0;
#X connect 8 0 5 0;
#X connect 9 0 8 1;
#X connect 10 0 9 1;
#X connect 10 0 4 1;
#X connect 11 0 12 0;
#X connect 12 0 5 1;
#X restore 181 225 pd polycurve;
#X obj 181 297 outlet~;
#X obj 250 201 r~ n2;
#N canvas 0 22 378 386 polycurve 0;
#X obj 92 65 inlet~ X;
#X obj 92 87 *~ 1;
#X obj 92 109 *~;
#X obj 92 131 *~;
#X obj 142 183 *~;
#X obj 162 237 *~;
#X obj 162 259 *~ -1.5;
#X obj 162 281 outlet~ P;
#X obj 142 205 -~;
#X obj 126 109 *~;
#X obj 157 65 inlet~ P;
#X obj 177 96 sig~ 1;
#X obj 177 118 -~;
#X connect 0 0 1 0;
#X connect 1 0 2 0;
#X connect 1 0 2 1;
#X connect 1 0 3 1;
#X connect 1 0 9 0;
#X connect 1 0 12 1;
#X connect 2 0 3 0;
#X connect 3 0 4 0;
#X connect 4 0 8 0;
#X connect 5 0 6 0;
#X connect 6 0 7 0;
#X connect 8 0 5 0;
#X connect 9 0 8 1;
#X connect 10 0 9 1;
#X connect 10 0 4 1;
#X connect 11 0 12 0;
#X connect 12 0 5 1;
#X restore 61 225 pd polycurve;
#X obj 130 201 r~ n1;
#N canvas 0 22 378 386 polycurve 0;
#X obj 92 65 inlet~ X;
#X obj 92 87 *~ 1;
#X obj 92 109 *~;
#X obj 92 131 *~;
#X obj 142 183 *~;
#X obj 162 237 *~;
#X obj 162 259 *~ -1.5;
#X obj 162 281 outlet~ P;
#X obj 142 205 -~;
#X obj 126 109 *~;
#X obj 157 65 inlet~ P;
#X obj 177 96 sig~ 1;
#X obj 177 118 -~;
#X connect 0 0 1 0;
#X connect 1 0 2 0;
#X connect 1 0 2 1;
#X connect 1 0 3 1;
#X connect 1 0 9 0;
#X connect 1 0 12 1;
#X connect 2 0 3 0;
#X connect 3 0 4 0;
#X connect 4 0 8 0;
#X connect 5 0 6 0;
#X connect 6 0 7 0;
#X connect 8 0 5 0;
#X connect 9 0 8 1;
#X connect 10 0 9 1;
#X connect 10 0 4 1;
#X connect 11 0 12 0;
#X connect 12 0 5 1;
#X restore 301 225 pd polycurve;
#X obj 370 201 r~ n3;
#X obj 61 129 clip~ 0 0.33333;
#X obj 61 151 *~ 3;
#X obj 301 173 *~ 3;
#X obj 301 151 -~ 0.666666;
#X obj 301 129 clip~ 0.666666 1;
#X connect 0 0 1 0;
#X connect 1 0 2 0;
#X connect 2 0 3 0;
#X connect 2 0 13 0;
#X connect 2 0 17 0;
#X connect 3 0 4 0;
#X connect 4 0 5 0;
#X connect 5 0 6 0;
#X connect 6 0 7 0;
#X connect 8 0 6 1;
#X connect 9 0 7 0;
#X connect 10 0 9 1;
#X connect 11 0 7 0;
#X connect 12 0 11 1;
#X connect 13 0 14 0;
#X connect 14 0 9 0;
#X connect 15 0 11 0;
#X connect 16 0 15 0;
#X connect 17 0 16 0;
#X restore 145 216 pd foot;
#X obj 70 335 +~;
#X obj 300 213 hsl 128 15 0 1 0 0 \$0-ball empty Ball -2 -8 0 10 -262144
-1 -1 2159 1;
#X obj 301 271 r \$0-heel;
#X obj 301 315 sig~;
#X obj 301 337 s~ n1;
#X obj 301 293 * 3;
#X obj 351 315 sig~;
#X obj 351 293 * 3;
#X obj 401 315 sig~;
#X obj 401 293 * 3;
#X obj 451 315 sig~;
#X obj 451 293 * 3;
#X obj 351 251 r \$0-roll;
#X obj 401 271 r \$0-ball;
#X obj 451 251 r \$0-amp;
#X obj 351 337 s~ n2;
#X obj 401 337 s~ n3;
#X obj 451 337 s~ a1;
#X obj 300 183 hsl 128 15 0 1 0 0 \$0-roll empty Roll -2 -8 0 10 -262144
-1 -1 1651 1;
#X obj 300 153 hsl 128 15 0 1 0 0 \$0-heel empty Heel -2 -8 0 10 -262144
-1 -1 2540 1;
#X obj 300 123 hsl 128 15 0 0.393 0 0 \$0-walkspeed empty Walkspeed
-2 -8 0 10 -262144 -1 -1 0 1;
#X obj 70 137 r \$0-walkspeed;
#X msg 200 135 grass;
#X msg 190 115 snow;
#X msg 210 155 dirt;
#X msg 220 175 gravel;
#X msg 230 195 wood;
#X obj 203 238 t a;
#X obj 70 263 textures;
#X obj 130 295 textures;
#X obj 190 46 loadbang;
#X msg 333 83 0.2;
#X msg 363 83 0.13;
#X msg 398 83 0.17;
#X obj 70 357 throw~ l;
#X obj 80 377 throw~ r;
#X msg 298 83 0.1;
#X connect 0 0 1 0;
#X connect 0 1 2 0;
#X connect 1 0 31 0;
#X connect 2 0 32 0;
#X connect 3 0 37 0;
#X connect 3 0 38 0;
#X connect 5 0 8 0;
#X connect 6 0 7 0;
#X connect 8 0 6 0;
#X connect 9 0 18 0;
#X connect 10 0 9 0;
#X connect 11 0 19 0;
#X connect 12 0 11 0;
#X connect 13 0 20 0;
#X connect 14 0 13 0;
#X connect 15 0 10 0;
#X connect 16 0 12 0;
#X connect 17 0 14 0;
#X connect 24 0 0 0;
#X connect 25 0 30 0;
#X connect 26 0 30 0;
#X connect 27 0 30 0;
#X connect 28 0 30 0;
#X connect 29 0 30 0;
#X connect 30 0 31 1;
#X connect 30 0 32 1;
#X connect 31 0 3 0;
#X connect 32 0 3 1;
#X connect 33 0 26 0;
#X connect 33 0 39 0;
#X connect 33 0 34 0;
#X connect 33 0 35 0;
#X connect 33 0 36 0;
#X connect 34 0 22 0;
#X connect 35 0 21 0;
#X connect 36 0 4 0;
#X connect 39 0 23 0;
#X restore 41 58 pd footsteps;
#X text 432 244 y1;
#X text 239 245 x1;
#X obj 240 19 grid grid1 200 0 0.99 200 0 0.99 1 0.01 0.01 10 10 400
114;
#X floatatom 240 228 5 0 0 0 - - -, f 5;
#X floatatom 433 228 5 0 0 0 - - -, f 5;
#X obj 269 255 s listener-x;
#X obj 349 255 s listener-y;
#X obj 137 337 3d-pos 0.75 0.75;
#X obj 137 312 catch~ note-1;
#X obj 247 312 catch~ note-2;
#X obj 247 337 3d-pos 0.7 0.73;
#X obj 357 337 3d-pos 0.75 0.75;
#X obj 357 312 catch~ note-1;
#X obj 467 312 catch~ note-2;
#X obj 467 337 3d-pos 0.7 0.73;
#X connect 0 0 2 0;
#X connect 1 0 2 1;
#X connect 7 0 8 0;
#X connect 7 0 10 0;
#X connect 7 1 9 0;
#X connect 7 1 11 0;
#X connect 13 0 12 0;
#X connect 14 0 15 0;
#X connect 17 0 16 0;
#X connect 18 0 19 0;
