#N canvas 765 195 533 323 10;
#X declare -path abs;
#X obj 41 175 dac~;
#X text 386 127 y1;
#X text 306 128 x1;
#X floatatom 307 111 5 0 0 0 - - -;
#X floatatom 387 111 5 0 0 0 - - -;
#X obj 307 145 s listener-x;
#X obj 387 145 s listener-y;
#N canvas 0 22 450 300 init 0;
#X obj 64 41 declare -path abs;
#X restore 46 19 pd init;
#X obj 177 85 loadbang;
#N canvas 683 219 819 667 melody 0;
#X obj 259 106 f;
#X obj 284 106 + 1;
#X obj 259 60 tgl 15 0 empty empty empty 17 7 0 10 -262144 -1 -1 1
1;
#X floatatom 315 63 5 0 0 0 - - -;
#N canvas 0 22 450 278 (subpatch) 0;
#X array scale 3 float 3;
#A 0 0 7 10;
#X coords 0 12 3 0 200 140 1 0 0;
#X restore 606 57 graph;
#X obj 348 167 mod 8;
#X obj 348 196 sel 0 1 2 3 4 5 6 7;
#X msg 348 227 0;
#X msg 378 227 3;
#X msg 408 227 1;
#X msg 438 227 2;
#X obj 259 83 metro 115;
#X msg 89 479 \; scale 0 0 7 10 \;;
#X msg 88 433 0;
#X obj 88 455 s transpose;
#X msg 119 433 3;
#X msg 150 433 5;
#X msg 181 433 7;
#X obj 259 169 mod 4;
#X obj 259 213 s kick;
#X obj 259 191 sel 0 2;
#X obj 269 233 s hh;
#X obj 348 257 s note-0;
#X obj 358 277 s note-1;
#X obj 368 297 s note-2;
#X obj 378 317 s note-3;
#X obj 259 36 loadbang;
#X obj 36 206 outlet~;
#X obj 166 206 outlet~;
#X obj 36 105 sine-voice 0;
#X obj 126 105 sine-voice 1;
#X obj 36 145 sine-voice 2;
#X obj 126 145 sine-voice 3;
#X obj 36 173 3d-pos c;
#X obj 126 173 3d-pos d;
#X connect 0 0 1 0;
#X connect 0 0 5 0;
#X connect 0 0 18 0;
#X connect 1 0 0 1;
#X connect 2 0 11 0;
#X connect 3 0 11 1;
#X connect 5 0 6 0;
#X connect 6 0 7 0;
#X connect 6 1 7 0;
#X connect 6 2 8 0;
#X connect 6 3 8 0;
#X connect 6 4 9 0;
#X connect 6 5 9 0;
#X connect 6 6 10 0;
#X connect 6 7 10 0;
#X connect 7 0 22 0;
#X connect 8 0 25 0;
#X connect 9 0 23 0;
#X connect 10 0 24 0;
#X connect 11 0 0 0;
#X connect 13 0 14 0;
#X connect 15 0 14 0;
#X connect 16 0 14 0;
#X connect 17 0 14 0;
#X connect 18 0 20 0;
#X connect 20 0 19 0;
#X connect 20 1 21 0;
#X connect 26 0 2 0;
#X connect 29 0 33 0;
#X connect 30 0 34 0;
#X connect 31 0 33 0;
#X connect 32 0 34 0;
#X connect 33 0 27 0;
#X connect 33 1 28 0;
#X connect 34 0 27 0;
#X connect 34 1 28 0;
#X restore 41 108 pd melody;
#X obj 177 250 s positions;
#X msg 177 138 object-c 24 7;
#X msg 187 158 object-d 25 8;
#X msg 197 178 object-e 24 9;
#X msg 207 198 object-f 23 8;
#X msg 217 218 object-g 21 5;
#X msg 339 96 24;
#X msg 368 96 7;
#X obj 329 247 s listener-direction;
#X floatatom 329 183 5 0 0 0 - - -;
#X obj 329 224 mod 360;
#X obj 329 202 + 1080;
#X obj 177 109 del 10;
#X obj 339 74 del 100;
#X obj 324 43 loadbang;
#N canvas 654 488 316 189 drums 0;
#N canvas 0 22 292 331 bd 0;
#X obj 111 219 *~;
#X obj 129 190 osc~;
#X obj 128 168 +~ 50;
#X obj 127 143 *~ 150;
#X obj 111 56 inlet;
#X obj 111 245 outlet~;
#X obj 111 86 c_ead-hv 1 200;
#X connect 0 0 5 0;
#X connect 1 0 0 1;
#X connect 2 0 1 0;
#X connect 3 0 2 0;
#X connect 4 0 6 0;
#X connect 6 0 3 0;
#X connect 6 0 0 0;
#X restore 42 83 pd bd;
#X obj 42 34 r kick;
#X msg 42 60 200;
#N canvas 0 22 993 683 hh 0;
#X obj 348 270 clip~ -1 1;
#X obj 348 193 bp~ 8906 1.437;
#X obj 348 215 bp~ 8906 1.437;
#X obj 348 173 hip~ 8000;
#X floatatom 348 101 5 0 0 0 - - -;
#X obj 64 424 *~;
#X obj 452 322 *~;
#X obj 452 350 *~;
#X obj 349 304 *~;
#X msg 396 374 0;
#X obj 348 415 *~ 0.1;
#X msg 428 375 0.1;
#N canvas 0 22 744 501 squarebattery 0;
#X obj 346 142 *~ 0.7;
#X obj 105 124 *~ 0.9;
#X obj 105 79 * 210;
#X obj 345 94 * 540;
#X obj 462 104 * 550;
#X obj 569 103 * 800;
#X obj 269 92 * 380;
#X obj 187 91 * 320;
#X obj 105 404 outlet~;
#X obj 105 11 inlet;
#X text 151 13 tuning;
#N canvas 0 22 438 462 square 0;
#X obj 132 215 -~ 0.5;
#X obj 42 197 wrap~;
#X obj 42 220 -~ 0.5;
#X obj 42 175 -~ 0.5;
#X obj 42 289 -~;
#X obj 42 317 outlet~;
#X obj 42 94 phasor~;
#X obj 42 64 inlet;
#X connect 0 0 4 1;
#X connect 1 0 2 0;
#X connect 2 0 4 0;
#X connect 3 0 1 0;
#X connect 4 0 5 0;
#X connect 6 0 3 0;
#X connect 6 0 0 0;
#X connect 7 0 6 0;
#X restore 345 114 pd square;
#N canvas 0 22 438 462 square 0;
#X obj 132 215 -~ 0.5;
#X obj 42 197 wrap~;
#X obj 42 220 -~ 0.5;
#X obj 42 175 -~ 0.5;
#X obj 42 289 -~;
#X obj 42 317 outlet~;
#X obj 42 94 phasor~;
#X obj 42 64 inlet;
#X connect 0 0 4 1;
#X connect 1 0 2 0;
#X connect 2 0 4 0;
#X connect 3 0 1 0;
#X connect 4 0 5 0;
#X connect 6 0 3 0;
#X connect 6 0 0 0;
#X connect 7 0 6 0;
#X restore 462 128 pd square;
#N canvas 0 22 438 462 square 0;
#X obj 132 215 -~ 0.5;
#X obj 42 197 wrap~;
#X obj 42 220 -~ 0.5;
#X obj 42 175 -~ 0.5;
#X obj 42 289 -~;
#X obj 42 317 outlet~;
#X obj 42 94 phasor~;
#X obj 42 64 inlet;
#X connect 0 0 4 1;
#X connect 1 0 2 0;
#X connect 2 0 4 0;
#X connect 3 0 1 0;
#X connect 4 0 5 0;
#X connect 6 0 3 0;
#X connect 6 0 0 0;
#X connect 7 0 6 0;
#X restore 569 128 pd square;
#N canvas 0 22 438 462 square 0;
#X obj 132 215 -~ 0.5;
#X obj 42 197 wrap~;
#X obj 42 220 -~ 0.5;
#X obj 42 175 -~ 0.5;
#X obj 42 289 -~;
#X obj 42 317 outlet~;
#X obj 42 94 phasor~;
#X obj 42 64 inlet;
#X connect 0 0 4 1;
#X connect 1 0 2 0;
#X connect 2 0 4 0;
#X connect 3 0 1 0;
#X connect 4 0 5 0;
#X connect 6 0 3 0;
#X connect 6 0 0 0;
#X connect 7 0 6 0;
#X restore 269 115 pd square;
#N canvas 0 22 438 462 square 0;
#X obj 132 215 -~ 0.5;
#X obj 42 197 wrap~;
#X obj 42 220 -~ 0.5;
#X obj 42 175 -~ 0.5;
#X obj 42 289 -~;
#X obj 42 317 outlet~;
#X obj 42 94 phasor~;
#X obj 42 64 inlet;
#X connect 0 0 4 1;
#X connect 1 0 2 0;
#X connect 2 0 4 0;
#X connect 3 0 1 0;
#X connect 4 0 5 0;
#X connect 6 0 3 0;
#X connect 6 0 0 0;
#X connect 7 0 6 0;
#X restore 187 119 pd square;
#N canvas 0 22 438 462 square 0;
#X obj 132 215 -~ 0.5;
#X obj 42 197 wrap~;
#X obj 42 220 -~ 0.5;
#X obj 42 175 -~ 0.5;
#X obj 42 289 -~;
#X obj 42 317 outlet~;
#X obj 42 94 phasor~;
#X obj 42 64 inlet;
#X connect 0 0 4 1;
#X connect 1 0 2 0;
#X connect 2 0 4 0;
#X connect 3 0 1 0;
#X connect 4 0 5 0;
#X connect 6 0 3 0;
#X connect 6 0 0 0;
#X connect 7 0 6 0;
#X restore 105 101 pd square;
#X connect 0 0 8 0;
#X connect 1 0 8 0;
#X connect 2 0 16 0;
#X connect 3 0 11 0;
#X connect 4 0 12 0;
#X connect 5 0 13 0;
#X connect 6 0 14 0;
#X connect 7 0 15 0;
#X connect 9 0 2 0;
#X connect 9 0 3 0;
#X connect 9 0 4 0;
#X connect 9 0 5 0;
#X connect 9 0 6 0;
#X connect 9 0 7 0;
#X connect 11 0 0 0;
#X connect 12 0 8 0;
#X connect 13 0 8 0;
#X connect 14 0 8 0;
#X connect 15 0 8 0;
#X connect 16 0 1 0;
#X restore 348 144 pd squarebattery;
#X msg 394 120 1;
#X obj 394 100 loadbang;
#X obj 64 515 outlet~;
#X obj 65 50 inlet;
#X obj 65 153 route float;
#X msg 139 178 100;
#X obj 65 222 t b a;
#X obj 199 103 route float;
#X obj 199 172 t b b a;
#X msg 273 128 1500;
#X obj 348 247 *~ 150;
#X obj 187 525 outlet;
#X obj 65 99 route hh oh hhtune;
#X obj 65 248 c_ead-hv 3 100;
#X obj 451 299 c_ead-hv 25 1500;
#X connect 0 0 5 1;
#X connect 0 0 8 0;
#X connect 1 0 2 0;
#X connect 2 0 23 0;
#X connect 3 0 1 0;
#X connect 4 0 12 0;
#X connect 5 0 15 0;
#X connect 6 0 7 0;
#X connect 6 0 7 1;
#X connect 6 0 8 1;
#X connect 7 0 8 1;
#X connect 8 0 10 0;
#X connect 9 0 10 1;
#X connect 10 0 15 0;
#X connect 11 0 10 1;
#X connect 12 0 3 0;
#X connect 13 0 12 0;
#X connect 14 0 13 0;
#X connect 16 0 25 0;
#X connect 17 0 19 0;
#X connect 17 1 18 0;
#X connect 18 0 19 0;
#X connect 19 0 26 0;
#X connect 19 1 26 2;
#X connect 20 0 21 0;
#X connect 20 1 22 0;
#X connect 21 0 18 0;
#X connect 21 1 27 0;
#X connect 21 2 27 2;
#X connect 22 0 21 0;
#X connect 23 0 0 0;
#X connect 25 0 17 0;
#X connect 25 0 9 0;
#X connect 25 1 20 0;
#X connect 25 1 11 0;
#X connect 25 2 12 0;
#X connect 25 3 24 0;
#X connect 26 0 5 0;
#X connect 27 0 6 0;
#X connect 27 0 6 1;
#X restore 126 82 pd hh;
#X obj 126 34 r hh;
#X msg 126 59 oh;
#X obj 42 105 3d-pos g;
#X obj 42 127 outlet~;
#X obj 102 127 outlet~;
#X connect 0 0 6 0;
#X connect 1 0 2 0;
#X connect 2 0 0 0;
#X connect 3 0 6 0;
#X connect 4 0 5 0;
#X connect 5 0 3 0;
#X connect 6 0 7 0;
#X connect 6 1 8 0;
#X restore 102 108 pd drums;
#X connect 3 0 5 0;
#X connect 4 0 6 0;
#X connect 8 0 22 0;
#X connect 9 0 0 0;
#X connect 9 1 0 1;
#X connect 11 0 10 0;
#X connect 12 0 10 0;
#X connect 13 0 10 0;
#X connect 14 0 10 0;
#X connect 15 0 10 0;
#X connect 16 0 5 0;
#X connect 17 0 6 0;
#X connect 19 0 21 0;
#X connect 20 0 18 0;
#X connect 21 0 20 0;
#X connect 22 0 11 0;
#X connect 22 0 12 0;
#X connect 22 0 13 0;
#X connect 22 0 14 0;
#X connect 22 0 15 0;
#X connect 23 0 16 0;
#X connect 23 0 17 0;
#X connect 24 0 23 0;
#X connect 25 0 0 0;
#X connect 25 1 0 1;
