#N canvas 237 106 638 503 10;
#X obj 41 83 catch~ l;
#X obj 98 83 catch~ r;
#X obj 41 105 dac~;
#X text 432 244 y1;
#X text 239 245 x1;
#X floatatom 240 228 5 0 0 0 - - -, f 5;
#X floatatom 433 228 5 0 0 0 - - -, f 5;
#X obj 269 255 s listener-x;
#X obj 349 255 s listener-y;
#X obj 137 312 catch~ note-1;
#X obj 247 312 catch~ note-2;
#X obj 357 312 catch~ note-3;
#X obj 467 312 catch~ note-4;
#X obj 247 337 3d-pos 0.7 0.73;
#X obj 299 432 s listener-direction;
#X obj 137 337 3d-pos 0.75 0.75;
#X obj 357 337 3d-pos 0.65 0.65;
#X obj 467 337 3d-pos 0.56 0.63;
#X floatatom 299 368 5 0 0 0 - - -, f 5;
#X obj 299 409 mod 360;
#X obj 240 19 grid grid1 200 0 0.99 200 0 0.99 1 0.01 0.01 10 10 324
142;
#X obj 299 387 + 1080;
#X connect 0 0 2 0;
#X connect 1 0 2 1;
#X connect 9 0 15 0;
#X connect 10 0 13 0;
#X connect 11 0 16 0;
#X connect 12 0 17 0;
#X connect 18 0 21 0;
#X connect 19 0 14 0;
#X connect 21 0 19 0;
