#N canvas 1254 184 533 323 10;
#X declare -path abs;
#X obj 41 83 catch~ l;
#X obj 98 83 catch~ r;
#X obj 41 175 dac~;
#X text 386 127 y1;
#X text 306 128 x1;
#X floatatom 307 111 5 0 0 0 - - -;
#X floatatom 387 111 5 0 0 0 - - -;
#X obj 307 145 s listener-x;
#X obj 387 145 s listener-y;
#N canvas 0 22 450 300 init 0;
#X obj 64 41 declare -path abs;
#X restore 46 19 pd init;
#X obj 177 85 loadbang;
#N canvas 683 219 819 667 melody 1;
#X obj 259 106 f;
#X obj 284 106 + 1;
#X obj 259 60 tgl 15 0 empty empty empty 17 7 0 10 -262144 -1 -1 1
1;
#X floatatom 315 63 5 0 0 0 - - -;
#N canvas 0 22 450 278 (subpatch) 0;
#X array scale 3 float 3;
#A 0 0 7 10;
#X coords 0 12 3 0 200 140 1 0 0;
#X restore 606 57 graph;
#X obj 348 167 mod 8;
#X obj 348 196 sel 0 1 2 3 4 5 6 7;
#X msg 348 227 0;
#X msg 378 227 3;
#X msg 408 227 1;
#X msg 438 227 2;
#X obj 259 83 metro 115;
#X msg 89 479 \; scale 0 0 7 10 \;;
#X msg 88 433 0;
#X obj 88 455 s transpose;
#X msg 119 433 3;
#X msg 150 433 5;
#X msg 181 433 7;
#X obj 259 169 mod 4;
#X obj 259 213 s kick;
#X obj 259 191 sel 0 2;
#X obj 269 233 s hh;
#X obj 348 257 s note-0;
#X obj 358 277 s note-1;
#X obj 368 297 s note-2;
#X obj 378 317 s note-3;
#X obj 259 36 loadbang;
#X obj 77 157 sine-voice 0 c;
#X obj 77 179 sine-voice 1 d;
#X connect 0 0 1 0;
#X connect 0 0 5 0;
#X connect 0 0 18 0;
#X connect 1 0 0 1;
#X connect 2 0 11 0;
#X connect 3 0 11 1;
#X connect 5 0 6 0;
#X connect 6 0 7 0;
#X connect 6 1 7 0;
#X connect 6 2 8 0;
#X connect 6 3 8 0;
#X connect 6 4 9 0;
#X connect 6 5 9 0;
#X connect 6 6 10 0;
#X connect 6 7 10 0;
#X connect 7 0 22 0;
#X connect 8 0 25 0;
#X connect 9 0 23 0;
#X connect 10 0 24 0;
#X connect 11 0 0 0;
#X connect 13 0 14 0;
#X connect 15 0 14 0;
#X connect 16 0 14 0;
#X connect 17 0 14 0;
#X connect 18 0 20 0;
#X connect 20 0 19 0;
#X connect 20 1 21 0;
#X connect 26 0 2 0;
#X restore 41 212 pd melody;
#X obj 177 250 s positions;
#X msg 177 138 object-c 24 7;
#X msg 187 158 object-d 25 8;
#X msg 197 178 object-e 24 9;
#X msg 207 198 object-f 23 8;
#X msg 217 218 object-g 21 5;
#X msg 339 96 24;
#X msg 368 96 7;
#X obj 329 247 s listener-direction;
#X floatatom 329 183 5 0 0 0 - - -;
#X obj 329 224 mod 360;
#X obj 329 202 + 1080;
#X obj 177 109 del 10;
#X obj 339 74 del 100;
#X obj 324 43 loadbang;
#X connect 0 0 2 0;
#X connect 1 0 2 1;
#X connect 5 0 7 0;
#X connect 6 0 8 0;
#X connect 10 0 24 0;
#X connect 13 0 12 0;
#X connect 14 0 12 0;
#X connect 15 0 12 0;
#X connect 16 0 12 0;
#X connect 17 0 12 0;
#X connect 18 0 7 0;
#X connect 19 0 8 0;
#X connect 21 0 23 0;
#X connect 22 0 20 0;
#X connect 23 0 22 0;
#X connect 24 0 13 0;
#X connect 24 0 14 0;
#X connect 24 0 15 0;
#X connect 24 0 16 0;
#X connect 24 0 17 0;
#X connect 25 0 18 0;
#X connect 25 0 19 0;
#X connect 26 0 25 0;
