#N canvas 120 166 950 540 10;
#X declare -path abs;
#X obj 41 275 dac~;
#X text 815 133 y1;
#X text 735 134 x1;
#X floatatom 736 117 5 0 0 0 - - -, f 5;
#X floatatom 816 117 5 0 0 0 - - -, f 5;
#X obj 736 151 s listener-x;
#X obj 816 151 s listener-y;
#N canvas 0 22 450 300 init 0;
#X obj 64 41 declare -path abs;
#X restore 41 40 pd init;
#X obj 546 87 loadbang;
#X obj 546 342 s positions;
#X msg 724 95 24;
#X msg 753 95 7;
#X obj 758 253 s listener-direction;
#X floatatom 758 189 5 0 0 0 - - -, f 5;
#X obj 758 230 mod 360;
#X obj 758 208 + 1080;
#X obj 546 111 del 10;
#X obj 724 73 del 100;
#X obj 724 51 loadbang;
#N canvas 456 191 769 564 i-feel-love 0;
#N canvas 0 22 450 278 (subpatch) 0;
#X array scale 3 float 3;
#A 0 0 7 10;
#X coords 0 12 3 0 200 140 1 0 0;
#X restore 36 194 graph;
#X obj 482 163 mod 8;
#X msg 482 223 0;
#X msg 512 223 1;
#X msg 542 223 2;
#X msg 35 511 \; scale 0 0 7 10 \;;
#X msg 35 469 0;
#X obj 35 491 s transpose;
#X msg 66 469 3;
#X msg 97 469 5;
#X msg 128 469 7;
#X obj 409 133 mod 4;
#X obj 409 177 s kick;
#X obj 409 155 sel 0 2;
#X obj 419 197 s hh;
#X obj 38 148 outlet~;
#X obj 138 148 outlet~;
#X obj 38 47 sine-voice 0;
#X obj 482 273 s voice-0;
#X obj 582 273 s voice-1;
#X obj 482 192 sel 0 2 4 6;
#X msg 582 223 0;
#X msg 612 223 1;
#X msg 642 223 2;
#X obj 582 192 sel 0 2 4 6;
#X obj 582 163 - 1;
#N canvas 0 22 292 331 bd 0;
#X obj 111 219 *~;
#X obj 129 190 osc~;
#X obj 128 168 +~ 50;
#X obj 127 143 *~ 150;
#X obj 111 56 inlet;
#X obj 111 245 outlet~;
#X obj 111 86 c_ead-hv 1 200;
#X connect 0 0 5 0;
#X connect 1 0 0 1;
#X connect 2 0 1 0;
#X connect 3 0 2 0;
#X connect 4 0 6 0;
#X connect 6 0 3 0;
#X connect 6 0 0 0;
#X restore 234 85 pd bd;
#X obj 234 36 r kick;
#X msg 234 62 200;
#N canvas 0 22 606 600 hh 0;
#X obj 348 270 clip~ -1 1;
#X obj 348 193 bp~ 8906 1.437;
#X obj 348 215 bp~ 8906 1.437;
#X obj 348 173 hip~ 8000;
#X floatatom 348 101 5 0 0 0 - - -, f 5;
#X obj 64 424 *~;
#X obj 452 322 *~;
#X obj 452 350 *~;
#X obj 349 304 *~;
#X msg 396 374 0;
#X obj 348 415 *~ 0.1;
#X msg 428 375 0.1;
#N canvas 0 22 744 501 squarebattery 0;
#X obj 346 142 *~ 0.7;
#X obj 105 124 *~ 0.9;
#X obj 105 79 * 210;
#X obj 345 94 * 540;
#X obj 462 104 * 550;
#X obj 569 103 * 800;
#X obj 269 92 * 380;
#X obj 187 91 * 320;
#X obj 105 404 outlet~;
#X obj 105 11 inlet;
#X text 151 13 tuning;
#N canvas 0 22 438 462 square 0;
#X obj 132 215 -~ 0.5;
#X obj 42 197 wrap~;
#X obj 42 220 -~ 0.5;
#X obj 42 175 -~ 0.5;
#X obj 42 289 -~;
#X obj 42 317 outlet~;
#X obj 42 94 phasor~;
#X obj 42 64 inlet;
#X connect 0 0 4 1;
#X connect 1 0 2 0;
#X connect 2 0 4 0;
#X connect 3 0 1 0;
#X connect 4 0 5 0;
#X connect 6 0 3 0;
#X connect 6 0 0 0;
#X connect 7 0 6 0;
#X restore 345 114 pd square;
#N canvas 0 22 438 462 square 0;
#X obj 132 215 -~ 0.5;
#X obj 42 197 wrap~;
#X obj 42 220 -~ 0.5;
#X obj 42 175 -~ 0.5;
#X obj 42 289 -~;
#X obj 42 317 outlet~;
#X obj 42 94 phasor~;
#X obj 42 64 inlet;
#X connect 0 0 4 1;
#X connect 1 0 2 0;
#X connect 2 0 4 0;
#X connect 3 0 1 0;
#X connect 4 0 5 0;
#X connect 6 0 3 0;
#X connect 6 0 0 0;
#X connect 7 0 6 0;
#X restore 462 128 pd square;
#N canvas 0 22 438 462 square 0;
#X obj 132 215 -~ 0.5;
#X obj 42 197 wrap~;
#X obj 42 220 -~ 0.5;
#X obj 42 175 -~ 0.5;
#X obj 42 289 -~;
#X obj 42 317 outlet~;
#X obj 42 94 phasor~;
#X obj 42 64 inlet;
#X connect 0 0 4 1;
#X connect 1 0 2 0;
#X connect 2 0 4 0;
#X connect 3 0 1 0;
#X connect 4 0 5 0;
#X connect 6 0 3 0;
#X connect 6 0 0 0;
#X connect 7 0 6 0;
#X restore 569 128 pd square;
#N canvas 0 22 438 462 square 0;
#X obj 132 215 -~ 0.5;
#X obj 42 197 wrap~;
#X obj 42 220 -~ 0.5;
#X obj 42 175 -~ 0.5;
#X obj 42 289 -~;
#X obj 42 317 outlet~;
#X obj 42 94 phasor~;
#X obj 42 64 inlet;
#X connect 0 0 4 1;
#X connect 1 0 2 0;
#X connect 2 0 4 0;
#X connect 3 0 1 0;
#X connect 4 0 5 0;
#X connect 6 0 3 0;
#X connect 6 0 0 0;
#X connect 7 0 6 0;
#X restore 269 115 pd square;
#N canvas 0 22 438 462 square 0;
#X obj 132 215 -~ 0.5;
#X obj 42 197 wrap~;
#X obj 42 220 -~ 0.5;
#X obj 42 175 -~ 0.5;
#X obj 42 289 -~;
#X obj 42 317 outlet~;
#X obj 42 94 phasor~;
#X obj 42 64 inlet;
#X connect 0 0 4 1;
#X connect 1 0 2 0;
#X connect 2 0 4 0;
#X connect 3 0 1 0;
#X connect 4 0 5 0;
#X connect 6 0 3 0;
#X connect 6 0 0 0;
#X connect 7 0 6 0;
#X restore 187 119 pd square;
#N canvas 0 22 438 462 square 0;
#X obj 132 215 -~ 0.5;
#X obj 42 197 wrap~;
#X obj 42 220 -~ 0.5;
#X obj 42 175 -~ 0.5;
#X obj 42 289 -~;
#X obj 42 317 outlet~;
#X obj 42 94 phasor~;
#X obj 42 64 inlet;
#X connect 0 0 4 1;
#X connect 1 0 2 0;
#X connect 2 0 4 0;
#X connect 3 0 1 0;
#X connect 4 0 5 0;
#X connect 6 0 3 0;
#X connect 6 0 0 0;
#X connect 7 0 6 0;
#X restore 105 101 pd square;
#X connect 0 0 8 0;
#X connect 1 0 8 0;
#X connect 2 0 16 0;
#X connect 3 0 11 0;
#X connect 4 0 12 0;
#X connect 5 0 13 0;
#X connect 6 0 14 0;
#X connect 7 0 15 0;
#X connect 9 0 2 0;
#X connect 9 0 3 0;
#X connect 9 0 4 0;
#X connect 9 0 5 0;
#X connect 9 0 6 0;
#X connect 9 0 7 0;
#X connect 11 0 0 0;
#X connect 12 0 8 0;
#X connect 13 0 8 0;
#X connect 14 0 8 0;
#X connect 15 0 8 0;
#X connect 16 0 1 0;
#X restore 348 144 pd squarebattery;
#X msg 394 120 1;
#X obj 394 100 loadbang;
#X obj 64 515 outlet~;
#X obj 65 50 inlet;
#X msg 142 209 100;
#X obj 65 262 t b a;
#X obj 199 172 t b b a;
#X obj 348 247 *~ 150;
#X obj 187 525 outlet;
#X obj 65 99 route hh oh hhtune;
#X obj 65 288 c_ead-hv 3 100;
#X obj 451 299 c_ead-hv 25 1500;
#X connect 0 0 5 1;
#X connect 0 0 8 0;
#X connect 1 0 2 0;
#X connect 2 0 20 0;
#X connect 3 0 1 0;
#X connect 4 0 12 0;
#X connect 5 0 15 0;
#X connect 6 0 7 0;
#X connect 6 0 7 1;
#X connect 6 0 8 1;
#X connect 7 0 8 1;
#X connect 8 0 10 0;
#X connect 9 0 10 1;
#X connect 10 0 15 0;
#X connect 11 0 10 1;
#X connect 12 0 3 0;
#X connect 13 0 12 0;
#X connect 14 0 13 0;
#X connect 16 0 22 0;
#X connect 17 0 18 0;
#X connect 18 0 23 0;
#X connect 18 1 23 2;
#X connect 19 0 17 0;
#X connect 19 1 24 0;
#X connect 19 2 24 2;
#X connect 20 0 0 0;
#X connect 22 0 9 0;
#X connect 22 0 18 0;
#X connect 22 1 11 0;
#X connect 22 1 19 0;
#X connect 22 2 12 0;
#X connect 22 3 21 0;
#X connect 23 0 5 0;
#X connect 24 0 6 0;
#X connect 24 0 6 1;
#X restore 293 84 pd hh;
#X obj 293 36 r hh;
#X msg 293 61 oh;
#X obj 138 46 sine-voice 1;
#X obj 374 335 r 0-vol;
#X obj 374 410 +;
#X obj 424 335 r 1-vol;
#X obj 424 359 t b f;
#X obj 374 387 f;
#X obj 474 359 t b f;
#X obj 374 432 +;
#X obj 374 454 +;
#X obj 374 476 +;
#X obj 474 335 r 2-vol;
#X obj 524 359 t b f;
#X obj 574 359 t b f;
#X obj 624 359 t b f;
#X obj 524 335 r 3-vol;
#X obj 574 335 r 4-vol;
#X obj 624 335 r 5-vol;
#X obj 374 498 s total-above-0;
#X obj 95 148 outlet;
#X obj 195 148 outlet;
#X obj 409 110 f;
#X obj 434 110 + 1;
#X obj 409 64 tgl 15 0 empty empty empty 17 7 0 10 -262144 -1 -1 1
1;
#X obj 409 87 metro 115;
#X obj 409 40 loadbang;
#X msg 512 468 1;
#X obj 38 115 3d-pos 0 f;
#X obj 138 114 3d-pos 1 d;
#X connect 1 0 20 0;
#X connect 1 0 25 0;
#X connect 2 0 18 0;
#X connect 3 0 18 0;
#X connect 4 0 18 0;
#X connect 6 0 7 0;
#X connect 8 0 7 0;
#X connect 9 0 7 0;
#X connect 10 0 7 0;
#X connect 11 0 13 0;
#X connect 13 0 12 0;
#X connect 13 1 14 0;
#X connect 17 0 58 0;
#X connect 20 0 2 0;
#X connect 20 1 2 0;
#X connect 20 2 3 0;
#X connect 20 3 4 0;
#X connect 21 0 19 0;
#X connect 22 0 19 0;
#X connect 23 0 19 0;
#X connect 24 0 21 0;
#X connect 24 1 21 0;
#X connect 24 2 22 0;
#X connect 24 3 23 0;
#X connect 25 0 24 0;
#X connect 26 0 58 0;
#X connect 27 0 28 0;
#X connect 28 0 26 0;
#X connect 29 0 59 0;
#X connect 30 0 31 0;
#X connect 31 0 29 0;
#X connect 32 0 59 0;
#X connect 33 0 37 0;
#X connect 34 0 39 0;
#X connect 35 0 36 0;
#X connect 36 0 37 0;
#X connect 36 1 34 1;
#X connect 37 0 34 0;
#X connect 38 0 37 0;
#X connect 39 0 40 0;
#X connect 40 0 41 0;
#X connect 41 0 49 0;
#X connect 42 0 38 0;
#X connect 43 0 37 0;
#X connect 43 1 39 1;
#X connect 44 0 37 0;
#X connect 44 1 40 1;
#X connect 45 0 37 0;
#X connect 45 1 41 1;
#X connect 46 0 43 0;
#X connect 47 0 44 0;
#X connect 48 0 45 0;
#X connect 52 0 53 0;
#X connect 52 0 1 0;
#X connect 52 0 11 0;
#X connect 53 0 52 1;
#X connect 54 0 55 0;
#X connect 55 0 52 0;
#X connect 56 0 54 0;
#X connect 57 0 49 0;
#X connect 58 0 15 0;
#X connect 58 1 50 0;
#X connect 59 0 16 0;
#X connect 59 1 51 0;
#X restore 122 14 pd i-feel-love;
#N canvas 275 195 549 532 wind 0;
#N canvas 0 22 450 300 windspeed 0;
#X obj 123 67 osc~ 0.1;
#X obj 123 89 +~ 1;
#X obj 123 111 *~ 0.25;
#X obj 123 193 +~;
#X obj 123 215 clip~ 0 1;
#X obj 123 237 outlet~;
#N canvas 0 22 450 300 gust 0;
#X obj 147 76 noise~;
#X obj 147 98 lop~ 0.5;
#X obj 147 120 lop~ 0.5;
#X obj 147 142 hip~ 0;
#X obj 147 164 *~ 50;
#X obj 147 186 *~;
#X obj 147 208 outlet~;
#X obj 220 78 inlet~;
#X obj 220 100 +~ 0.5;
#X obj 220 122 *~;
#X obj 220 144 -~ 0.125;
#X connect 0 0 1 0;
#X connect 1 0 2 0;
#X connect 2 0 3 0;
#X connect 3 0 4 0;
#X connect 4 0 5 0;
#X connect 5 0 6 0;
#X connect 7 0 8 0;
#X connect 8 0 9 0;
#X connect 8 0 9 1;
#X connect 9 0 10 0;
#X connect 10 0 5 1;
#X restore 143 138 pd gust;
#X obj 143 160 +~;
#N canvas 0 22 450 300 squall 0;
#X obj 129 66 inlet~;
#X obj 129 88 max~ 0.4;
#X obj 129 110 -~ 0.4;
#X obj 129 132 *~ 8;
#X obj 129 154 *~;
#X obj 129 176 *~;
#X obj 129 198 outlet~;
#X obj 213 89 lop~ 3;
#X obj 213 111 lop~ 3;
#X obj 213 133 hip~ 0;
#X obj 213 155 *~ 20;
#X obj 213 67 noise~;
#X connect 0 0 1 0;
#X connect 1 0 2 0;
#X connect 2 0 3 0;
#X connect 3 0 4 0;
#X connect 3 0 4 1;
#X connect 4 0 5 0;
#X connect 5 0 6 0;
#X connect 7 0 8 0;
#X connect 8 0 9 0;
#X connect 9 0 10 0;
#X connect 10 0 5 1;
#X connect 11 0 7 0;
#X restore 200 138 pd squall;
#X connect 0 0 1 0;
#X connect 1 0 2 0;
#X connect 2 0 3 0;
#X connect 2 0 6 0;
#X connect 2 0 8 0;
#X connect 3 0 4 0;
#X connect 4 0 5 0;
#X connect 6 0 7 0;
#X connect 7 0 3 1;
#X connect 8 0 7 1;
#X restore 38 33 pd windspeed;
#X obj 38 55 delwrite~ a 3000;
#X obj 55 350 *~;
#X obj 70 149 vd~ a 100;
#X obj 70 306 +~ 0.12;
#X obj 70 328 *~;
#X obj 86 172 *~ 400;
#X obj 86 194 +~ 600;
#X obj 161 119 loadbang;
#X msg 161 141 60;
#X obj 225 350 *~;
#X obj 240 149 vd~ a 100;
#X obj 240 174 *~;
#X obj 256 196 *~ 1000;
#X obj 256 218 +~ 1000;
#X obj 55 109 noise~;
#X obj 55 278 bp~ 1000 60;
#X obj 225 278 bp~ 1000 60;
#X obj 86 256 snapshot~;
#X obj 256 256 snapshot~;
#X obj 55 443 outlet~;
#X obj 225 443 outlet~;
#X obj 118 443 outlet;
#X obj 288 443 outlet;
#X obj 55 411 3d-pos-wind -1 x;
#X obj 315 229 r tick-1;
#X obj 225 412 3d-pos-wind -1 y;
#X obj 55 379 *~ 2;
#X obj 225 379 *~ 3;
#X connect 0 0 1 0;
#X connect 2 0 27 0;
#X connect 3 0 4 0;
#X connect 3 0 6 0;
#X connect 4 0 5 0;
#X connect 4 0 5 1;
#X connect 5 0 2 1;
#X connect 6 0 7 0;
#X connect 7 0 18 0;
#X connect 8 0 9 0;
#X connect 9 0 16 2;
#X connect 9 0 17 2;
#X connect 10 0 28 0;
#X connect 11 0 12 0;
#X connect 11 0 12 1;
#X connect 11 0 13 0;
#X connect 12 0 10 1;
#X connect 13 0 14 0;
#X connect 14 0 19 0;
#X connect 15 0 16 0;
#X connect 15 0 17 0;
#X connect 16 0 2 0;
#X connect 17 0 10 0;
#X connect 18 0 16 1;
#X connect 19 0 17 1;
#X connect 24 0 20 0;
#X connect 24 1 22 0;
#X connect 25 0 19 0;
#X connect 25 0 18 0;
#X connect 26 0 21 0;
#X connect 26 1 23 0;
#X connect 27 0 24 0;
#X connect 28 0 26 0;
#X restore 184 108 pd wind;
#X msg 626 300 object-x 15.5 15.5;
#X msg 636 320 object-y 16.5 16.5;
#N canvas 0 22 450 300 timebase 0;
#X obj 75 83 metro 1;
#X obj 75 61 loadbang;
#X obj 75 105 s tick-1;
#X connect 0 0 2 0;
#X connect 1 0 0 0;
#X restore 41 61 pd timebase;
#N canvas 413 178 285 375 footsteps 0;
#X obj 52 292 +~;
#X obj 52 314 outlet~;
#X obj 52 63 r walkspeed;
#N canvas 0 22 655 393 foot 0;
#X obj 181 43 inlet~;
#X obj 181 65 clip~ 0 0.75;
#X obj 181 87 *~ 1.33333;
#X obj 181 129 clip~ 0.125 0.875;
#X obj 181 151 -~ 0.125;
#X obj 181 173 *~ 1.33333;
#N canvas 0 22 378 386 polycurve 0;
#X obj 92 65 inlet~ X;
#X obj 92 87 *~ 1;
#X obj 92 109 *~;
#X obj 92 131 *~;
#X obj 142 183 *~;
#X obj 162 237 *~;
#X obj 162 259 *~ -1.5;
#X obj 162 281 outlet~ P;
#X obj 142 205 -~;
#X obj 126 109 *~;
#X obj 157 65 inlet~ P;
#X obj 177 96 sig~ 1;
#X obj 177 118 -~;
#X connect 0 0 1 0;
#X connect 1 0 2 0;
#X connect 1 0 2 1;
#X connect 1 0 3 1;
#X connect 1 0 9 0;
#X connect 1 0 12 1;
#X connect 2 0 3 0;
#X connect 3 0 4 0;
#X connect 4 0 8 0;
#X connect 5 0 6 0;
#X connect 6 0 7 0;
#X connect 8 0 5 0;
#X connect 9 0 8 1;
#X connect 10 0 9 1;
#X connect 10 0 4 1;
#X connect 11 0 12 0;
#X connect 12 0 5 1;
#X restore 181 255 pd polycurve;
#X obj 181 327 outlet~;
#N canvas 0 22 378 386 polycurve 0;
#X obj 92 65 inlet~ X;
#X obj 92 87 *~ 1;
#X obj 92 109 *~;
#X obj 92 131 *~;
#X obj 142 183 *~;
#X obj 162 237 *~;
#X obj 162 259 *~ -1.5;
#X obj 162 281 outlet~ P;
#X obj 142 205 -~;
#X obj 126 109 *~;
#X obj 157 65 inlet~ P;
#X obj 177 96 sig~ 1;
#X obj 177 118 -~;
#X connect 0 0 1 0;
#X connect 1 0 2 0;
#X connect 1 0 2 1;
#X connect 1 0 3 1;
#X connect 1 0 9 0;
#X connect 1 0 12 1;
#X connect 2 0 3 0;
#X connect 3 0 4 0;
#X connect 4 0 8 0;
#X connect 5 0 6 0;
#X connect 6 0 7 0;
#X connect 8 0 5 0;
#X connect 9 0 8 1;
#X connect 10 0 9 1;
#X connect 10 0 4 1;
#X connect 11 0 12 0;
#X connect 12 0 5 1;
#X restore 61 255 pd polycurve;
#N canvas 0 22 378 386 polycurve 0;
#X obj 92 65 inlet~ X;
#X obj 92 87 *~ 1;
#X obj 92 109 *~;
#X obj 92 131 *~;
#X obj 142 183 *~;
#X obj 162 237 *~;
#X obj 162 259 *~ -1.5;
#X obj 162 281 outlet~ P;
#X obj 142 205 -~;
#X obj 126 109 *~;
#X obj 157 65 inlet~ P;
#X obj 177 96 sig~ 1;
#X obj 177 118 -~;
#X connect 0 0 1 0;
#X connect 1 0 2 0;
#X connect 1 0 2 1;
#X connect 1 0 3 1;
#X connect 1 0 9 0;
#X connect 1 0 12 1;
#X connect 2 0 3 0;
#X connect 3 0 4 0;
#X connect 4 0 8 0;
#X connect 5 0 6 0;
#X connect 6 0 7 0;
#X connect 8 0 5 0;
#X connect 9 0 8 1;
#X connect 10 0 9 1;
#X connect 10 0 4 1;
#X connect 11 0 12 0;
#X connect 12 0 5 1;
#X restore 301 255 pd polycurve;
#X obj 61 129 clip~ 0 0.33333;
#X obj 61 151 *~ 3;
#X obj 301 173 *~ 3;
#X obj 301 151 -~ 0.666666;
#X obj 301 129 clip~ 0.666666 1;
#X obj 346 209 inlet~;
#X obj 466 209 inlet~;
#X obj 586 209 inlet~;
#X connect 0 0 1 0;
#X connect 1 0 2 0;
#X connect 2 0 3 0;
#X connect 2 0 10 0;
#X connect 2 0 14 0;
#X connect 3 0 4 0;
#X connect 4 0 5 0;
#X connect 5 0 6 0;
#X connect 6 0 7 0;
#X connect 8 0 7 0;
#X connect 9 0 7 0;
#X connect 10 0 11 0;
#X connect 11 0 8 0;
#X connect 12 0 9 0;
#X connect 13 0 12 0;
#X connect 14 0 13 0;
#X connect 15 0 8 1;
#X connect 16 0 6 1;
#X connect 17 0 9 1;
#X restore 52 244 pd foot;
#X obj 84 209 sig~;
#X obj 84 187 * 3;
#X obj 134 209 sig~;
#X obj 134 187 * 3;
#X obj 184 209 sig~;
#X obj 184 187 * 3;
#X obj 84 141 loadbang;
#X msg 84 163 0.2;
#X msg 114 163 0.13;
#X msg 149 163 0.17;
#N canvas 0 22 655 393 foot 0;
#X obj 181 43 inlet~;
#X obj 181 65 clip~ 0 0.75;
#X obj 181 87 *~ 1.33333;
#X obj 181 129 clip~ 0.125 0.875;
#X obj 181 151 -~ 0.125;
#X obj 181 173 *~ 1.33333;
#N canvas 0 22 378 386 polycurve 0;
#X obj 92 65 inlet~ X;
#X obj 92 87 *~ 1;
#X obj 92 109 *~;
#X obj 92 131 *~;
#X obj 142 183 *~;
#X obj 162 237 *~;
#X obj 162 259 *~ -1.5;
#X obj 162 281 outlet~ P;
#X obj 142 205 -~;
#X obj 126 109 *~;
#X obj 157 65 inlet~ P;
#X obj 177 96 sig~ 1;
#X obj 177 118 -~;
#X connect 0 0 1 0;
#X connect 1 0 2 0;
#X connect 1 0 2 1;
#X connect 1 0 3 1;
#X connect 1 0 9 0;
#X connect 1 0 12 1;
#X connect 2 0 3 0;
#X connect 3 0 4 0;
#X connect 4 0 8 0;
#X connect 5 0 6 0;
#X connect 6 0 7 0;
#X connect 8 0 5 0;
#X connect 9 0 8 1;
#X connect 10 0 9 1;
#X connect 10 0 4 1;
#X connect 11 0 12 0;
#X connect 12 0 5 1;
#X restore 181 255 pd polycurve;
#X obj 181 327 outlet~;
#N canvas 0 22 378 386 polycurve 0;
#X obj 92 65 inlet~ X;
#X obj 92 87 *~ 1;
#X obj 92 109 *~;
#X obj 92 131 *~;
#X obj 142 183 *~;
#X obj 162 237 *~;
#X obj 162 259 *~ -1.5;
#X obj 162 281 outlet~ P;
#X obj 142 205 -~;
#X obj 126 109 *~;
#X obj 157 65 inlet~ P;
#X obj 177 96 sig~ 1;
#X obj 177 118 -~;
#X connect 0 0 1 0;
#X connect 1 0 2 0;
#X connect 1 0 2 1;
#X connect 1 0 3 1;
#X connect 1 0 9 0;
#X connect 1 0 12 1;
#X connect 2 0 3 0;
#X connect 3 0 4 0;
#X connect 4 0 8 0;
#X connect 5 0 6 0;
#X connect 6 0 7 0;
#X connect 8 0 5 0;
#X connect 9 0 8 1;
#X connect 10 0 9 1;
#X connect 10 0 4 1;
#X connect 11 0 12 0;
#X connect 12 0 5 1;
#X restore 61 255 pd polycurve;
#N canvas 0 22 378 386 polycurve 0;
#X obj 92 65 inlet~ X;
#X obj 92 87 *~ 1;
#X obj 92 109 *~;
#X obj 92 131 *~;
#X obj 142 183 *~;
#X obj 162 237 *~;
#X obj 162 259 *~ -1.5;
#X obj 162 281 outlet~ P;
#X obj 142 205 -~;
#X obj 126 109 *~;
#X obj 157 65 inlet~ P;
#X obj 177 96 sig~ 1;
#X obj 177 118 -~;
#X connect 0 0 1 0;
#X connect 1 0 2 0;
#X connect 1 0 2 1;
#X connect 1 0 3 1;
#X connect 1 0 9 0;
#X connect 1 0 12 1;
#X connect 2 0 3 0;
#X connect 3 0 4 0;
#X connect 4 0 8 0;
#X connect 5 0 6 0;
#X connect 6 0 7 0;
#X connect 8 0 5 0;
#X connect 9 0 8 1;
#X connect 10 0 9 1;
#X connect 10 0 4 1;
#X connect 11 0 12 0;
#X connect 12 0 5 1;
#X restore 301 255 pd polycurve;
#X obj 61 129 clip~ 0 0.33333;
#X obj 61 151 *~ 3;
#X obj 301 173 *~ 3;
#X obj 301 151 -~ 0.666666;
#X obj 301 129 clip~ 0.666666 1;
#X obj 346 209 inlet~;
#X obj 466 209 inlet~;
#X obj 586 209 inlet~;
#X connect 0 0 1 0;
#X connect 1 0 2 0;
#X connect 2 0 3 0;
#X connect 2 0 10 0;
#X connect 2 0 14 0;
#X connect 3 0 4 0;
#X connect 4 0 5 0;
#X connect 5 0 6 0;
#X connect 6 0 7 0;
#X connect 8 0 7 0;
#X connect 9 0 7 0;
#X connect 10 0 11 0;
#X connect 11 0 8 0;
#X connect 12 0 9 0;
#X connect 13 0 12 0;
#X connect 14 0 13 0;
#X connect 15 0 8 1;
#X connect 16 0 6 1;
#X connect 17 0 9 1;
#X restore 127 244 pd foot;
#X obj 127 266 snow;
#N canvas 0 22 484 518 splitphase 0;
#X obj 153 73 sig~;
#X obj 153 95 *~ 6;
#X obj 153 117 phasor~;
#X obj 153 189 min~;
#X obj 153 281 *~;
#X obj 153 325 wrap~;
#X obj 153 417 *~;
#X obj 215 95 sig~ 1;
#X obj 215 117 -~;
#X obj 168 234 sig~ 1;
#X obj 168 256 /~;
#X obj 153 303 +~ 1e-05;
#X obj 168 390 r active;
#X obj 266 188 +~ 0.5;
#X obj 266 210 wrap~;
#X obj 266 252 min~;
#X obj 266 334 *~;
#X obj 266 356 +~ 1e-05;
#X obj 266 378 wrap~;
#X obj 251 417 *~;
#X obj 281 289 sig~ 1;
#X obj 281 311 /~;
#X obj 73 129 > 0;
#X obj 73 181 change;
#X obj 73 203 sel 1;
#X msg 73 225 0;
#X obj 73 247 s bashphase;
#X obj 84 153 s active;
#X obj 153 441 outlet~;
#X obj 251 441 outlet~;
#X obj 153 47 inlet;
#X obj 192 73 r bashphase;
#X connect 0 0 1 0;
#X connect 0 0 8 1;
#X connect 1 0 2 0;
#X connect 2 0 3 0;
#X connect 2 0 13 0;
#X connect 3 0 4 0;
#X connect 4 0 11 0;
#X connect 5 0 6 0;
#X connect 6 0 28 0;
#X connect 7 0 8 0;
#X connect 8 0 3 1;
#X connect 8 0 10 1;
#X connect 8 0 21 1;
#X connect 8 0 15 1;
#X connect 9 0 10 0;
#X connect 10 0 4 1;
#X connect 11 0 5 0;
#X connect 12 0 6 1;
#X connect 12 0 19 1;
#X connect 13 0 14 0;
#X connect 14 0 15 0;
#X connect 15 0 16 0;
#X connect 16 0 17 0;
#X connect 17 0 18 0;
#X connect 18 0 19 0;
#X connect 19 0 29 0;
#X connect 20 0 21 0;
#X connect 21 0 16 1;
#X connect 22 0 23 0;
#X connect 22 0 27 0;
#X connect 23 0 24 0;
#X connect 24 0 25 0;
#X connect 25 0 26 0;
#X connect 30 0 0 0;
#X connect 30 0 22 0;
#X connect 31 0 2 1;
#X restore 52 100 pd splitphase;
#X obj 52 266 snow;
#X connect 0 0 1 0;
#X connect 2 0 16 0;
#X connect 3 0 17 0;
#X connect 4 0 3 1;
#X connect 4 0 14 1;
#X connect 5 0 4 0;
#X connect 6 0 3 2;
#X connect 6 0 14 2;
#X connect 7 0 6 0;
#X connect 8 0 3 3;
#X connect 8 0 14 3;
#X connect 9 0 8 0;
#X connect 10 0 11 0;
#X connect 10 0 12 0;
#X connect 10 0 13 0;
#X connect 11 0 5 0;
#X connect 12 0 7 0;
#X connect 13 0 9 0;
#X connect 14 0 15 0;
#X connect 15 0 0 1;
#X connect 16 0 3 0;
#X connect 16 1 14 0;
#X connect 17 0 0 0;
#X restore 55 223 pd footsteps;
#N canvas 0 22 422 325 deep-note 0;
#X obj 57 252 outlet~;
#X obj 167 252 outlet~;
#X obj 167 172 lop~ 3826;
#X obj 57 172 lop~ 3826;
#X obj 57 194 *~ 0.08;
#X obj 167 194 *~ 0.08;
#X obj 117 32 voice;
#X obj 117 72 voice;
#X obj 117 52 voice;
#X obj 57 32 voice;
#X obj 57 52 voice;
#X obj 57 72 voice;
#X obj 57 92 voice;
#X obj 57 112 voice;
#X obj 117 112 voice;
#X obj 117 92 voice;
#X obj 114 252 outlet;
#X obj 224 252 outlet;
#X obj 277 32 voice;
#X obj 277 72 voice;
#X obj 277 52 voice;
#X obj 277 112 voice;
#X obj 277 92 voice;
#X obj 277 252 outlet~;
#X obj 277 172 lop~ 3826;
#X obj 334 252 outlet;
#X obj 277 194 *~ 0.05;
#X obj 167 230 3d-pos 4 o;
#X obj 57 230 3d-pos 3 i;
#X obj 277 230 3d-pos 5 p;
#X connect 2 0 5 0;
#X connect 3 0 4 0;
#X connect 4 0 28 0;
#X connect 5 0 27 0;
#X connect 6 0 3 0;
#X connect 6 1 2 0;
#X connect 7 0 3 0;
#X connect 7 1 2 0;
#X connect 8 0 3 0;
#X connect 8 1 2 0;
#X connect 9 0 3 0;
#X connect 9 1 2 0;
#X connect 10 0 3 0;
#X connect 10 1 2 0;
#X connect 11 0 3 0;
#X connect 11 1 2 0;
#X connect 12 0 3 0;
#X connect 12 1 2 0;
#X connect 13 0 3 0;
#X connect 13 1 2 0;
#X connect 14 0 3 0;
#X connect 14 1 2 0;
#X connect 15 0 3 0;
#X connect 15 1 2 0;
#X connect 18 0 24 0;
#X connect 18 1 24 0;
#X connect 19 0 24 0;
#X connect 19 1 24 0;
#X connect 20 0 24 0;
#X connect 20 1 24 0;
#X connect 21 0 24 0;
#X connect 21 1 24 0;
#X connect 22 0 24 0;
#X connect 22 1 24 0;
#X connect 24 0 26 0;
#X connect 27 0 1 0;
#X connect 27 1 17 0;
#X connect 28 0 0 0;
#X connect 28 1 16 0;
#X connect 29 0 23 0;
#X connect 29 1 25 0;
#X restore 135 55 pd deep-note;
#X msg 244 56 azimuth \$1;
#X floatatom 243 28 5 0 0 0 - - -, f 5;
#X obj 43 305 r 0-vol;
#X obj 43 380 +;
#X obj 93 305 r 1-vol;
#X obj 93 329 t b f;
#X obj 43 357 f;
#X obj 143 329 t b f;
#X obj 43 402 +;
#X obj 43 424 +;
#X obj 43 446 +;
#X obj 143 305 r 2-vol;
#X obj 193 329 t b f;
#X obj 243 329 t b f;
#X obj 293 329 t b f;
#X obj 193 305 r 3-vol;
#X obj 243 305 r 4-vol;
#X obj 293 305 r 5-vol;
#X obj 43 468 s total-above-0;
#X msg 181 438 1;
#X msg 546 140 object-c 24 7 2.5;
#X msg 556 160 object-d 25 8 2.5;
#X msg 566 180 object-e 24 9 2.5;
#X msg 616 270 object-o 6 6 2.5;
#X msg 605 250 object-i 4 6 2.5;
#X msg 586 220 object-g 21 5 2.5;
#X msg 576 200 object-f 23 8 2.5;
#X obj 611 105 bng 15 250 50 0 empty empty empty 17 7 0 10 -262144
-1 -1;
#X obj 164 160 rm_fir-binaural-hv2;
#N canvas 98 119 240 572 ir-tables 0;
#X obj 73 494 ir-tables T345;
#X obj 73 114 ir-tables T060;
#X obj 73 354 ir-tables T240;
#X obj 73 34 ir-tables T000;
#X obj 73 54 ir-tables T015;
#X obj 73 74 ir-tables T030;
#X obj 73 94 ir-tables T045;
#X obj 73 134 ir-tables T075;
#X obj 73 154 ir-tables T090;
#X obj 73 194 ir-tables T120;
#X obj 73 174 ir-tables T105;
#X obj 73 214 ir-tables T135;
#X obj 73 234 ir-tables T150;
#X obj 73 254 ir-tables T165;
#X obj 73 274 ir-tables T180;
#X obj 73 294 ir-tables T195;
#X obj 73 314 ir-tables T210;
#X obj 73 334 ir-tables T225;
#X obj 73 374 ir-tables T255;
#X obj 73 394 ir-tables T270;
#X obj 73 414 ir-tables T285;
#X obj 73 434 ir-tables T300;
#X obj 73 454 ir-tables T315;
#X obj 73 474 ir-tables T330;
#X restore 340 85 pd ir-tables;
#X obj 41 160 rm_fir-binaural-hv2;
#X obj 376 274 r test;
#X obj 376 296 print toTest;
#N canvas 852 53 471 495 dyn 0;
#X obj 118 49 loadbang;
#X obj 118 94 f \$1;
#N canvas 691 140 887 513 \$0-fill-subpatch 1;
#N canvas 0 22 498 196 clear 0;
#X obj 97 62 inlet;
#X msg 97 104 clear;
#X obj 97 126 outlet;
#X obj 159 125 value \$0-objcount;
#X msg 159 101 0;
#X connect 0 0 1 0;
#X connect 0 0 4 0;
#X connect 1 0 2 0;
#X connect 4 0 3 0;
#X restore 469 274 pd clear;
#N canvas 0 22 727 332 fake-inout 0;
#X obj 101 62 inlet;
#X text 149 108 fake in/outlets;
#X obj 102 281 outlet;
#X obj 536 57 inlet;
#X obj 524 128 until;
#X obj 524 108 max;
#X obj 524 150 f;
#X obj 550 149 + 1;
#X msg 557 114 0;
#X obj 524 86 t f b b b b b b;
#X msg 514 194 add2 \$1;
#X msg 598 47 5;
#X obj 101 84 t b b;
#X msg 102 171 obj 30 600 outlet left \, obj 650 600 outlet right \,
;
#X msg 518 238 obj 100 20 sel 0 1 2 3 4 5 6 7 8 9 10 11 12 13 14 15
16 17 18 19 20 21 22 23 24 25 26 27 28 29 30 31 32 33 34 35 36 37 38
39 40 41 42 43 44 45 46 47 48 49 50 51 52 53 54 55 56 57 58 59 60 61
62 63 64 65 66 67 68 69 70 71 72 73 74 75 76 77 78 79 80 81 82 83 84
85 86 87 88 89 90 91 92 93 94 95 96 97 98 99 100 101 102 103 104 105
106 107 108 109 110 111 112 113 114 115 116 117 118 119 120 121 122
123 124 125 126 127 128 129 130 131 132 133 134 135 136 137 138 139
140 141 142 143 144 145 146 147 148 149 150 151 152 153 154 155 156
157 158 159 160 161 162 163 164 165 166 167;
#X msg 562 204 set obj 100 20 sel;
#X connect 0 0 12 0;
#X connect 3 0 9 0;
#X connect 4 0 6 0;
#X connect 5 0 4 0;
#X connect 6 0 7 0;
#X connect 6 0 10 0;
#X connect 7 0 6 1;
#X connect 8 0 6 1;
#X connect 9 0 5 0;
#X connect 9 1 8 0;
#X connect 9 2 15 0;
#X connect 10 0 14 0;
#X connect 11 0 9 0;
#X connect 12 0 13 0;
#X connect 12 1 14 0;
#X connect 13 0 2 0;
#X connect 14 0 2 0;
#X connect 15 0 14 0;
#X restore 364 274 pd fake-inout;
#X msg 469 229 bang;
#X msg 364 230 bang;
#N canvas 996 59 1034 735 make-one-object 1;
#X obj 48 23 inlet;
#X obj 48 695 outlet;
#X obj 136 21 inlet;
#X msg 136 46 0;
#X obj 48 81 f 0;
#X obj 48 49 t b a;
#X obj 48 192 * 30;
#X obj 48 240 t a a;
#X obj 80 80 + 1;
#X obj 48 463 t b a;
#X obj 48 491 value \$0-objcount;
#X text 729 527 throw right;
#X obj 241 204 int;
#X obj 241 278 * 15;
#X obj 241 227 moses 4;
#X obj 280 254 + 17;
#X obj 196 228 * 15;
#X obj 241 181 mod 7;
#X obj 196 192 div 7;
#N canvas 0 22 462 385 pad-zeros 0;
#X obj 80 135 moses 100;
#X obj 35 114 moses 10;
#X msg 35 158 T00\$1;
#X msg 80 158 T0\$1;
#X msg 131 165 T\$1;
#X obj 221 153 moses 100;
#X obj 176 132 moses 10;
#X obj 176 107 change -1;
#X obj 35 88 change -1;
#X obj 35 23 inlet;
#X obj 35 45 unpack f f;
#X obj 35 230 symbol;
#X obj 35 312 outlet;
#X obj 176 311 outlet;
#X obj 176 229 symbol;
#X obj 232 268 print asdgsdf;
#X msg 176 176 P00\$1;
#X msg 221 176 P0\$1;
#X msg 272 183 P\$1;
#X connect 0 0 3 0;
#X connect 0 1 4 0;
#X connect 1 0 2 0;
#X connect 1 1 0 0;
#X connect 2 0 11 0;
#X connect 3 0 11 0;
#X connect 4 0 11 0;
#X connect 5 0 17 0;
#X connect 5 1 18 0;
#X connect 6 0 16 0;
#X connect 6 1 5 0;
#X connect 7 0 6 0;
#X connect 8 0 1 0;
#X connect 9 0 10 0;
#X connect 10 0 8 0;
#X connect 10 1 7 0;
#X connect 11 0 12 0;
#X connect 14 0 13 0;
#X connect 14 0 15 0;
#X connect 16 0 14 0;
#X connect 17 0 14 0;
#X connect 18 0 14 0;
#X restore 196 339 pd pad-zeros;
#X obj 196 313 pack f f;
#X obj 196 138 t f f;
#X floatatom 199 28 5 0 0 0 - - -, f 5;
#X obj 48 159 t a a a;
#X msg 48 620 connect \$1 0 1 0;
#X obj 48 103 t f f;
#X obj 48 515 + 2;
#X msg 388 92 add2 \$1;
#X obj 48 216 + 150;
#X floatatom 135 559 5 0 0 0 - - -, f 5;
#X obj 73 592 pack f f;
#X obj 70 543 t f f;
#X msg 68 649 connect 0 \$2 \$1 0;
#X obj 96 567 - 3;
#X obj 48 265 swap 100;
#X msg 48 437 msg \$1 \$2 \$3_\$4-1;
#X obj 48 406 pack 0 0 s s;
#X connect 0 0 5 0;
#X connect 2 0 3 0;
#X connect 3 0 4 1;
#X connect 4 0 8 0;
#X connect 4 0 25 0;
#X connect 5 0 4 0;
#X connect 6 0 28 0;
#X connect 7 0 34 0;
#X connect 8 0 4 1;
#X connect 9 0 10 0;
#X connect 9 1 1 0;
#X connect 10 0 26 0;
#X connect 12 0 14 0;
#X connect 13 0 20 1;
#X connect 14 0 13 0;
#X connect 14 1 15 0;
#X connect 15 0 13 0;
#X connect 16 0 20 0;
#X connect 17 0 12 0;
#X connect 18 0 16 0;
#X connect 19 0 36 2;
#X connect 19 1 36 3;
#X connect 20 0 19 0;
#X connect 21 0 18 0;
#X connect 21 1 17 0;
#X connect 22 0 4 0;
#X connect 23 0 6 0;
#X connect 23 1 21 0;
#X connect 24 0 1 0;
#X connect 25 1 23 0;
#X connect 26 0 24 0;
#X connect 26 0 31 0;
#X connect 28 0 7 0;
#X connect 30 0 32 0;
#X connect 31 0 30 0;
#X connect 31 1 33 0;
#X connect 32 0 1 0;
#X connect 33 0 30 1;
#X connect 34 0 36 0;
#X connect 34 1 36 1;
#X connect 35 0 9 0;
#X connect 36 0 35 0;
#X restore 151 265 pd make-one-object;
#X msg 274 241 bang;
#X obj 151 213 until;
#X obj 151 193 max;
#X obj 330 402 outlet;
#X obj 151 243 list;
#X text 187 244 obj+args;
#X obj 151 171 f;
#X obj 83 34 inlet;
#X text 83 13 object count;
#X obj 355 50 inlet;
#X text 355 29 object names and arguments;
#X obj 83 57 t b f;
#X msg 83 264 loadbang;
#X msg 242 51 polyob x y z;
#X msg 128 35 10;
#X obj 621 76 value \$0-objcount;
#X floatatom 621 99 5 0 0 0 - - -, f 5;
#X msg 621 55 bang;
#N canvas 0 22 450 300 make-sel 0;
#X obj 78 43 inlet;
#X obj 192 41 inlet;
#X restore 545 222 pd make-sel;
#X obj 147 82 t f b f b f b;
#X connect 0 0 8 0;
#X connect 1 0 8 0;
#X connect 2 0 0 0;
#X connect 3 0 1 0;
#X connect 4 0 8 0;
#X connect 5 0 4 1;
#X connect 6 0 9 0;
#X connect 7 0 6 0;
#X connect 9 0 4 0;
#X connect 11 0 7 0;
#X connect 12 0 16 0;
#X connect 14 0 9 1;
#X connect 16 0 17 0;
#X connect 16 1 24 0;
#X connect 17 0 8 0;
#X connect 18 0 9 1;
#X connect 19 0 16 0;
#X connect 20 0 21 0;
#X connect 22 0 20 0;
#X connect 24 0 11 0;
#X connect 24 1 5 0;
#X connect 24 3 3 0;
#X connect 24 4 1 1;
#X connect 24 5 2 0;
#X restore 118 203 pd \$0-fill-subpatch;
#X obj 118 121 t a b;
#X obj 248 177 list append \$2 \$3 \$4 \$5 \$6;
#X obj 229 277 value \$0-objcount;
#X obj 229 318 value \$0-objcount;
#X obj 229 297 + 1;
#X obj 229 256 b;
#X obj 118 233 s pd-sub;
#X obj 189 73 bng 15 250 50 0 empty empty empty 17 7 0 10 -262144 -1
-1;
#X floatatom 236 349 5 0 0 0 - - -, f 5;
#X obj 229 234 route msg;
#X obj 242 44 key;
#X floatatom 307 80 5 0 0 0 - - -, f 5;
#X obj 242 66 sel 167;
#X msg 183 105 168;
#X connect 0 0 1 0;
#X connect 1 0 3 0;
#X connect 2 0 9 0;
#X connect 2 0 12 0;
#X connect 3 0 2 0;
#X connect 3 1 4 0;
#X connect 4 0 2 1;
#X connect 5 0 7 0;
#X connect 7 0 6 0;
#X connect 7 0 11 0;
#X connect 8 0 5 0;
#X connect 10 0 1 0;
#X connect 12 0 8 0;
#X connect 13 0 14 0;
#X connect 13 0 15 0;
#X connect 15 0 16 0;
#X connect 16 0 1 0;
#X restore 400 382 pd dyn;
#X connect 3 0 5 0;
#X connect 4 0 6 0;
#X connect 8 0 16 0;
#X connect 10 0 5 0;
#X connect 11 0 6 0;
#X connect 13 0 15 0;
#X connect 14 0 12 0;
#X connect 15 0 14 0;
#X connect 16 0 46 0;
#X connect 16 0 47 0;
#X connect 16 0 48 0;
#X connect 16 0 52 0;
#X connect 16 0 51 0;
#X connect 16 0 21 0;
#X connect 16 0 22 0;
#X connect 16 0 50 0;
#X connect 17 0 10 0;
#X connect 17 0 11 0;
#X connect 18 0 17 0;
#X connect 19 0 56 0;
#X connect 19 1 56 1;
#X connect 19 2 54 0;
#X connect 19 3 54 1;
#X connect 20 0 56 0;
#X connect 20 1 56 1;
#X connect 20 2 54 0;
#X connect 20 3 54 1;
#X connect 21 0 9 0;
#X connect 22 0 9 0;
#X connect 24 0 0 0;
#X connect 24 0 0 1;
#X connect 25 0 56 0;
#X connect 25 1 56 1;
#X connect 25 2 54 0;
#X connect 25 3 54 1;
#X connect 26 0 54 1;
#X connect 26 0 56 1;
#X connect 27 0 26 0;
#X connect 28 0 32 0;
#X connect 29 0 34 0;
#X connect 30 0 31 0;
#X connect 31 0 32 0;
#X connect 31 1 29 1;
#X connect 32 0 29 0;
#X connect 33 0 32 0;
#X connect 34 0 35 0;
#X connect 35 0 36 0;
#X connect 36 0 44 0;
#X connect 37 0 33 0;
#X connect 38 0 32 0;
#X connect 38 1 34 1;
#X connect 39 0 32 0;
#X connect 39 1 35 1;
#X connect 40 0 32 0;
#X connect 40 1 36 1;
#X connect 41 0 38 0;
#X connect 42 0 39 0;
#X connect 43 0 40 0;
#X connect 45 0 44 0;
#X connect 46 0 9 0;
#X connect 47 0 9 0;
#X connect 48 0 9 0;
#X connect 49 0 9 0;
#X connect 50 0 9 0;
#X connect 51 0 9 0;
#X connect 52 0 9 0;
#X connect 53 0 16 0;
#X connect 54 0 0 0;
#X connect 54 1 0 1;
#X connect 56 0 0 0;
#X connect 56 1 0 1;
#X connect 57 0 58 0;
