#N canvas 0 22 926 517 10;
#X obj 73 33 grid grid1 200 0 31.99 200 0 31.99 1 1 1 32 32 93 193
;
#X msg 313 135 \; positions object-a 22 23 \; positions object-b 25
27 \; positions object-c 24 7 \; positions object-d 25 8 \; positions
object-e 24 9 \; positions object-f 23 8 \; positions object-g 21 5
\; positions object-h 27 5 \; positions object-i 4 6 \; positions object-j
4 7 \; positions object-k 4 8 \; positions object-l 4 9 \; positions
object-m 4 10 \; positions object-n 4 11 \; positions object-o 6 6
\; positions object-p 6 7 \; positions object-q 6 8 \; positions object-r
6 9 \; positions object-s 6 10 \; positions object-t 6 11 \; positions
object-u 5 23 \; ba 0 \;;
#X obj 571 248 moses 100;
#X obj 526 227 moses 10;
#X obj 526 155 int;
#X obj 526 179 * 15;
#X msg 526 271 T00\$1;
#X msg 571 271 T0\$1;
#X msg 622 278 T\$1;
#X obj 667 124 int;
#X obj 712 266 moses 100;
#X obj 667 245 moses 10;
#X msg 667 289 P00\$1;
#X msg 712 289 P0\$1;
#X msg 763 296 P\$1;
#X obj 667 342 symbol;
#X obj 667 198 * 15;
#X obj 667 147 moses 4;
#X obj 667 366 t b a;
#X obj 706 174 + 17;
#X obj 599 130 \$2;
#X obj 626 130 \$3;
#X obj 599 108 t b b;
#X obj 599 86 loadbang;
#X obj 667 220 change -1;
#X obj 526 201 change -1;
#X obj 526 129 change;
#X obj 526 105 int;
#X obj 526 84 / 15.65;
#X text 527 470 soundfiler;
#X text 523 430 read IRC_1018_C/IRC_1018_C_R0195_\$1_\$2.wav \$3-leftIR
\$3-rightIR;
#X obj 734 352 loadbang;
#X obj 734 374 \$0;
#X obj 526 405 pack s s f;
#N canvas 654 488 316 189 drums 0;
#N canvas 0 22 292 331 bd 0;
#X obj 111 219 *~;
#X obj 129 190 osc~;
#X obj 128 168 +~ 50;
#X obj 127 143 *~ 150;
#X obj 111 56 inlet;
#X obj 111 245 outlet~;
#X obj 111 86 c_ead-hv 1 200;
#X connect 0 0 5 0;
#X connect 1 0 0 1;
#X connect 2 0 1 0;
#X connect 3 0 2 0;
#X connect 4 0 6 0;
#X connect 6 0 3 0;
#X connect 6 0 0 0;
#X restore 42 83 pd bd;
#X obj 42 34 r kick;
#X msg 42 60 200;
#N canvas 0 22 993 683 hh 0;
#X obj 348 270 clip~ -1 1;
#X obj 348 193 bp~ 8906 1.437;
#X obj 348 215 bp~ 8906 1.437;
#X obj 348 173 hip~ 8000;
#X floatatom 348 101 5 0 0 0 - - -;
#X obj 64 424 *~;
#X obj 452 322 *~;
#X obj 452 350 *~;
#X obj 349 304 *~;
#X msg 396 374 0;
#X obj 348 415 *~ 0.1;
#X msg 428 375 0.1;
#N canvas 0 22 744 501 squarebattery 0;
#X obj 346 142 *~ 0.7;
#X obj 105 124 *~ 0.9;
#X obj 105 79 * 210;
#X obj 345 94 * 540;
#X obj 462 104 * 550;
#X obj 569 103 * 800;
#X obj 269 92 * 380;
#X obj 187 91 * 320;
#X obj 105 404 outlet~;
#X obj 105 11 inlet;
#X text 151 13 tuning;
#N canvas 0 22 438 462 square 0;
#X obj 132 215 -~ 0.5;
#X obj 42 197 wrap~;
#X obj 42 220 -~ 0.5;
#X obj 42 175 -~ 0.5;
#X obj 42 289 -~;
#X obj 42 317 outlet~;
#X obj 42 94 phasor~;
#X obj 42 64 inlet;
#X connect 0 0 4 1;
#X connect 1 0 2 0;
#X connect 2 0 4 0;
#X connect 3 0 1 0;
#X connect 4 0 5 0;
#X connect 6 0 3 0;
#X connect 6 0 0 0;
#X connect 7 0 6 0;
#X restore 345 114 pd square;
#N canvas 0 22 438 462 square 0;
#X obj 132 215 -~ 0.5;
#X obj 42 197 wrap~;
#X obj 42 220 -~ 0.5;
#X obj 42 175 -~ 0.5;
#X obj 42 289 -~;
#X obj 42 317 outlet~;
#X obj 42 94 phasor~;
#X obj 42 64 inlet;
#X connect 0 0 4 1;
#X connect 1 0 2 0;
#X connect 2 0 4 0;
#X connect 3 0 1 0;
#X connect 4 0 5 0;
#X connect 6 0 3 0;
#X connect 6 0 0 0;
#X connect 7 0 6 0;
#X restore 462 128 pd square;
#N canvas 0 22 438 462 square 0;
#X obj 132 215 -~ 0.5;
#X obj 42 197 wrap~;
#X obj 42 220 -~ 0.5;
#X obj 42 175 -~ 0.5;
#X obj 42 289 -~;
#X obj 42 317 outlet~;
#X obj 42 94 phasor~;
#X obj 42 64 inlet;
#X connect 0 0 4 1;
#X connect 1 0 2 0;
#X connect 2 0 4 0;
#X connect 3 0 1 0;
#X connect 4 0 5 0;
#X connect 6 0 3 0;
#X connect 6 0 0 0;
#X connect 7 0 6 0;
#X restore 569 128 pd square;
#N canvas 0 22 438 462 square 0;
#X obj 132 215 -~ 0.5;
#X obj 42 197 wrap~;
#X obj 42 220 -~ 0.5;
#X obj 42 175 -~ 0.5;
#X obj 42 289 -~;
#X obj 42 317 outlet~;
#X obj 42 94 phasor~;
#X obj 42 64 inlet;
#X connect 0 0 4 1;
#X connect 1 0 2 0;
#X connect 2 0 4 0;
#X connect 3 0 1 0;
#X connect 4 0 5 0;
#X connect 6 0 3 0;
#X connect 6 0 0 0;
#X connect 7 0 6 0;
#X restore 269 115 pd square;
#N canvas 0 22 438 462 square 0;
#X obj 132 215 -~ 0.5;
#X obj 42 197 wrap~;
#X obj 42 220 -~ 0.5;
#X obj 42 175 -~ 0.5;
#X obj 42 289 -~;
#X obj 42 317 outlet~;
#X obj 42 94 phasor~;
#X obj 42 64 inlet;
#X connect 0 0 4 1;
#X connect 1 0 2 0;
#X connect 2 0 4 0;
#X connect 3 0 1 0;
#X connect 4 0 5 0;
#X connect 6 0 3 0;
#X connect 6 0 0 0;
#X connect 7 0 6 0;
#X restore 187 119 pd square;
#N canvas 0 22 438 462 square 0;
#X obj 132 215 -~ 0.5;
#X obj 42 197 wrap~;
#X obj 42 220 -~ 0.5;
#X obj 42 175 -~ 0.5;
#X obj 42 289 -~;
#X obj 42 317 outlet~;
#X obj 42 94 phasor~;
#X obj 42 64 inlet;
#X connect 0 0 4 1;
#X connect 1 0 2 0;
#X connect 2 0 4 0;
#X connect 3 0 1 0;
#X connect 4 0 5 0;
#X connect 6 0 3 0;
#X connect 6 0 0 0;
#X connect 7 0 6 0;
#X restore 105 101 pd square;
#X connect 0 0 8 0;
#X connect 1 0 8 0;
#X connect 2 0 16 0;
#X connect 3 0 11 0;
#X connect 4 0 12 0;
#X connect 5 0 13 0;
#X connect 6 0 14 0;
#X connect 7 0 15 0;
#X connect 9 0 2 0;
#X connect 9 0 3 0;
#X connect 9 0 4 0;
#X connect 9 0 5 0;
#X connect 9 0 6 0;
#X connect 9 0 7 0;
#X connect 11 0 0 0;
#X connect 12 0 8 0;
#X connect 13 0 8 0;
#X connect 14 0 8 0;
#X connect 15 0 8 0;
#X connect 16 0 1 0;
#X restore 348 144 pd squarebattery;
#X msg 394 120 1;
#X obj 394 100 loadbang;
#X obj 64 515 outlet~;
#X obj 65 50 inlet;
#X obj 65 153 route float;
#X msg 139 178 100;
#X obj 65 222 t b a;
#X obj 199 103 route float;
#X obj 199 172 t b b a;
#X msg 273 128 1500;
#X obj 348 247 *~ 150;
#X obj 187 525 outlet;
#X obj 65 99 route hh oh hhtune;
#X obj 65 248 c_ead-hv 3 100;
#X obj 451 299 c_ead-hv 25 1500;
#X connect 0 0 5 1;
#X connect 0 0 8 0;
#X connect 1 0 2 0;
#X connect 2 0 23 0;
#X connect 3 0 1 0;
#X connect 4 0 12 0;
#X connect 5 0 15 0;
#X connect 6 0 7 0;
#X connect 6 0 7 1;
#X connect 6 0 8 1;
#X connect 7 0 8 1;
#X connect 8 0 10 0;
#X connect 9 0 10 1;
#X connect 10 0 15 0;
#X connect 11 0 10 1;
#X connect 12 0 3 0;
#X connect 13 0 12 0;
#X connect 14 0 13 0;
#X connect 16 0 25 0;
#X connect 17 0 19 0;
#X connect 17 1 18 0;
#X connect 18 0 19 0;
#X connect 19 0 26 0;
#X connect 19 1 26 2;
#X connect 20 0 21 0;
#X connect 20 1 22 0;
#X connect 21 0 18 0;
#X connect 21 1 27 0;
#X connect 21 2 27 2;
#X connect 22 0 21 0;
#X connect 23 0 0 0;
#X connect 25 0 17 0;
#X connect 25 0 9 0;
#X connect 25 1 20 0;
#X connect 25 1 11 0;
#X connect 25 2 12 0;
#X connect 25 3 24 0;
#X connect 26 0 5 0;
#X connect 27 0 6 0;
#X connect 27 0 6 1;
#X restore 126 82 pd hh;
#X obj 126 34 r hh;
#X msg 126 59 oh;
#X obj 42 108 3d-pos g;
#X obj 126 108 3d-pos g;
#X connect 0 0 6 0;
#X connect 1 0 2 0;
#X connect 2 0 0 0;
#X connect 3 0 7 0;
#X connect 4 0 5 0;
#X connect 5 0 3 0;
#X restore 83 276 pd drums;
#X obj 863 203 sin;
#X obj 913 203 cos;
#X obj 863 174 t f f;
#X obj 863 43 loadbang;
#X obj 863 65 \$1;
#X obj 863 305 pack f f;
#X obj 863 261 + 0.5;
#X obj 913 261 + 0.5;
#X obj 863 231 * 0.2;
#X obj 913 231 * 0.2;
#X obj 863 139 * 0.0174533;
#X text 936 139 Degrees to radians;
#X obj 863 109 * 25.71;
#X floatatom 927 166 5 0 0 0 - - -;
#X obj 143 536 sqrt;
#X obj 76 394 *;
#X obj 76 369 t f f;
#X obj 143 491 +;
#X obj 143 466 f;
#X obj 143 428 t b f;
#X obj 143 514 abs;
#X obj 143 584 swap 1;
#X obj 143 610 -;
#X obj 143 378 t f f;
#X obj 143 403 *;
#X obj 143 560 * 1.42857;
#X text 184 472 a^2 + b^2;
#X obj 143 639 max 0;
#X obj 143 661 min 1;
#X obj 143 683 pow 3;
#X obj 76 345 / 32;
#X obj 143 354 / 32;
#X connect 2 0 7 0;
#X connect 2 1 8 0;
#X connect 3 0 6 0;
#X connect 3 1 2 0;
#X connect 4 0 5 0;
#X connect 5 0 25 0;
#X connect 6 0 33 0;
#X connect 7 0 33 0;
#X connect 8 0 33 0;
#X connect 9 0 17 0;
#X connect 10 0 13 0;
#X connect 10 1 14 0;
#X connect 11 0 12 0;
#X connect 11 1 10 0;
#X connect 12 0 15 0;
#X connect 13 0 15 0;
#X connect 14 0 15 0;
#X connect 15 0 18 0;
#X connect 16 0 24 0;
#X connect 17 0 16 0;
#X connect 17 1 19 0;
#X connect 18 1 33 1;
#X connect 19 0 16 0;
#X connect 20 0 25 0;
#X connect 21 0 24 0;
#X connect 22 0 20 0;
#X connect 22 1 21 0;
#X connect 23 0 22 0;
#X connect 24 0 11 0;
#X connect 25 0 3 0;
#X connect 26 0 4 0;
#X connect 27 0 26 0;
#X connect 28 0 27 0;
#X connect 31 0 32 0;
#X connect 32 0 33 2;
#X connect 35 0 43 0;
#X connect 36 0 44 0;
#X connect 37 0 35 0;
#X connect 37 1 36 0;
#X connect 38 0 39 0;
#X connect 39 0 47 0;
#X connect 41 0 40 0;
#X connect 42 0 40 1;
#X connect 43 0 41 0;
#X connect 44 0 42 0;
#X connect 45 0 37 0;
#X connect 45 0 48 0;
#X connect 47 0 45 0;
#X connect 49 0 60 0;
#X connect 50 0 53 0;
#X connect 51 0 50 0;
#X connect 51 1 50 1;
#X connect 52 0 55 0;
#X connect 53 0 52 0;
#X connect 54 0 53 0;
#X connect 54 1 52 1;
#X connect 55 0 49 0;
#X connect 56 0 57 0;
#X connect 56 1 57 1;
#X connect 57 0 62 0;
#X connect 58 0 59 0;
#X connect 58 1 59 1;
#X connect 59 0 54 0;
#X connect 60 0 56 0;
#X connect 62 0 63 0;
#X connect 63 0 64 0;
#X connect 65 0 51 0;
#X connect 66 0 58 0;
