#N canvas 0 22 450 300 10;
#X obj 37 43 inlet~;
#X obj 37 130 outlet~;
#N canvas 0 22 422 446 8demux~ 0;
#X obj 85 31 inlet;
#X obj 85 61 route snow grass dirt gravel wood concrete metal;
#X obj 69 193 *~;
#X obj 95 193 *~;
#X obj 122 193 *~;
#X obj 148 193 *~;
#X obj 175 193 *~;
#X obj 201 193 *~;
#X obj 228 193 *~;
#X obj 254 193 *~;
#X obj 37 164 inlet~;
#X obj 69 225 outlet~;
#X obj 95 250 outlet~;
#X obj 123 274 outlet~;
#X obj 149 299 outlet~;
#X obj 176 322 outlet~;
#X obj 202 347 outlet~;
#X obj 227 371 outlet~;
#X obj 253 396 outlet~;
#X msg 85 83 0;
#X msg 118 83 1;
#X msg 155 83 2;
#X msg 188 83 3;
#X msg 225 83 4;
#X msg 258 83 5;
#X msg 298 83 6;
#X obj 85 163 == 0;
#X obj 111 143 == 1;
#X obj 138 163 == 2;
#X obj 164 143 == 3;
#X obj 191 163 == 4;
#X obj 217 143 == 5;
#X obj 244 163 == 6;
#X obj 270 143 == 7;
#X obj 85 105 t f f f f f f f f;
#X connect 0 0 1 0;
#X connect 1 0 19 0;
#X connect 1 1 20 0;
#X connect 1 2 21 0;
#X connect 1 3 22 0;
#X connect 1 4 23 0;
#X connect 1 5 24 0;
#X connect 1 6 25 0;
#X connect 2 0 11 0;
#X connect 3 0 12 0;
#X connect 4 0 13 0;
#X connect 5 0 14 0;
#X connect 6 0 15 0;
#X connect 7 0 16 0;
#X connect 8 0 17 0;
#X connect 9 0 18 0;
#X connect 10 0 2 0;
#X connect 10 0 3 0;
#X connect 10 0 4 0;
#X connect 10 0 5 0;
#X connect 10 0 6 0;
#X connect 10 0 7 0;
#X connect 10 0 8 0;
#X connect 10 0 9 0;
#X connect 19 0 34 0;
#X connect 20 0 34 0;
#X connect 21 0 34 0;
#X connect 22 0 34 0;
#X connect 23 0 34 0;
#X connect 24 0 34 0;
#X connect 25 0 34 0;
#X connect 26 0 2 1;
#X connect 27 0 3 1;
#X connect 28 0 4 1;
#X connect 29 0 5 1;
#X connect 30 0 6 1;
#X connect 31 0 7 1;
#X connect 32 0 8 1;
#X connect 33 0 9 1;
#X connect 34 0 26 0;
#X connect 34 1 27 0;
#X connect 34 2 28 0;
#X connect 34 3 29 0;
#X connect 34 4 30 0;
#X connect 34 5 31 0;
#X connect 34 6 32 0;
#X connect 34 7 33 0;
#X restore 37 70 pd 8demux~;
#N canvas 0 22 726 641 snowtex 0;
#N canvas 0 22 776 658 snow 0;
#X obj 161 453 *~;
#X obj 109 225 noise~;
#X obj 146 412 vcf~ 200 3;
#X obj 241 366 loadbang;
#X obj 102 270 /~;
#X obj 103 343 clip~ -1 1;
#X obj 60 247 lop~ 110;
#X obj 121 246 lop~ 900;
#X obj 166 169 noise~;
#X obj 165 219 /~;
#X obj 123 196 lop~ 50;
#X obj 184 195 lop~ 70;
#X obj 103 290 *~;
#X obj 192 220 lop~ 10;
#X obj 191 241 *~ 17;
#X obj 190 264 *~;
#X obj 103 313 *~;
#X obj 189 286 +~ 0.5;
#X obj 92 127 inlet~;
#X obj 160 507 outlet~;
#X obj 247 154 switch~;
#X obj 247 128 inlet;
#X obj 102 365 hip~ 300;
#X obj 185 389 +~ 700;
#X obj 185 365 *~ 9000;
#X msg 241 386 0.5;
#X obj 162 476 *~ 0.2;
#X connect 0 0 26 0;
#X connect 1 0 6 0;
#X connect 1 0 7 0;
#X connect 2 0 0 0;
#X connect 3 0 25 0;
#X connect 4 0 12 0;
#X connect 5 0 22 0;
#X connect 6 0 4 0;
#X connect 7 0 4 1;
#X connect 8 0 10 0;
#X connect 8 0 11 0;
#X connect 8 0 13 0;
#X connect 9 0 12 1;
#X connect 10 0 9 0;
#X connect 11 0 9 1;
#X connect 12 0 16 0;
#X connect 13 0 14 0;
#X connect 14 0 15 0;
#X connect 14 0 15 1;
#X connect 15 0 17 0;
#X connect 16 0 5 0;
#X connect 17 0 16 1;
#X connect 18 0 0 1;
#X connect 18 0 24 0;
#X connect 21 0 20 0;
#X connect 22 0 2 0;
#X connect 23 0 2 1;
#X connect 24 0 23 0;
#X connect 25 0 2 2;
#X connect 26 0 19 0;
#X restore 158 117 pd snow;
#X obj 202 75 env~;
#X obj 202 96 > 0.5;
#X obj 180 38 inlet~;
#X obj 158 139 outlet~;
#X connect 0 0 4 0;
#X connect 1 0 2 0;
#X connect 2 0 0 1;
#X connect 3 0 1 0;
#X connect 3 0 0 0;
#X restore 37 102 pd snowtex;
#N canvas 0 22 726 641 dirttex 0;
#X obj 202 75 env~;
#X obj 202 96 > 0.5;
#X obj 180 38 inlet~;
#X obj 158 139 outlet~;
#N canvas 0 22 294 514 dirt 0;
#X obj 54 309 *~;
#X obj 72 47 inlet~;
#X obj 76 443 outlet~;
#X obj 138 59 switch~;
#X obj 138 33 inlet;
#X obj 128 221 osc~;
#X obj 127 157 *~;
#X obj 150 82 noise~;
#X obj 150 127 *~ 70;
#X obj 150 104 lop~ 80;
#X obj 100 127 +~ 0.3;
#X obj 128 242 hip~ 200;
#X obj 71 126 *~;
#X obj 70 148 *~;
#X obj 18 250 osc~ 80;
#X obj 18 228 +~ 40;
#X obj 19 202 *~ 500;
#X obj 77 394 +~;
#X obj 127 264 clip~ -1 1;
#X obj 128 179 *~ 70;
#X obj 126 330 *~ 0.04;
#X obj 55 332 *~ 0.5;
#X obj 128 200 +~ 70;
#X connect 0 0 21 0;
#X connect 1 0 10 0;
#X connect 1 0 12 0;
#X connect 1 0 12 1;
#X connect 4 0 3 0;
#X connect 5 0 11 0;
#X connect 6 0 19 0;
#X connect 7 0 9 0;
#X connect 8 0 6 1;
#X connect 9 0 8 0;
#X connect 10 0 6 0;
#X connect 11 0 18 0;
#X connect 12 0 13 0;
#X connect 12 0 13 1;
#X connect 13 0 0 1;
#X connect 13 0 16 0;
#X connect 14 0 0 0;
#X connect 15 0 14 0;
#X connect 16 0 15 0;
#X connect 17 0 2 0;
#X connect 18 0 20 0;
#X connect 19 0 22 0;
#X connect 20 0 17 1;
#X connect 21 0 17 0;
#X connect 22 0 5 0;
#X restore 158 117 pd dirt;
#X connect 0 0 1 0;
#X connect 1 0 4 1;
#X connect 2 0 0 0;
#X connect 2 0 4 0;
#X connect 4 0 3 0;
#X restore 202 101 pd dirttex;
#N canvas 289 251 726 641 grasstex 1;
#X obj 202 75 env~;
#X obj 202 96 > 0.5;
#X obj 180 38 inlet~;
#X obj 158 139 outlet~;
#N canvas 481 83 888 667 grass 1;
#X obj 163 404 *~;
#X obj 181 142 inlet~;
#X obj 401 584 outlet~;
#X obj 238 140 inlet;
#X obj 180 221 *~;
#X obj 179 243 *~;
#X obj 127 345 osc~ 80;
#X obj 401 527 +~;
#X obj 164 427 *~ 0.8;
#X obj 127 323 +~ 30;
#X obj 127 297 *~ 600;
#X obj 127 369 clip~ 0 0.5;
#X obj 238 166 switch~;
#X obj 725 115 noise~;
#X obj 732 286 lop~ 16;
#X obj 627 405 vcf~ 3333 30;
#X obj 627 248 *~;
#X obj 627 272 *~;
#X obj 733 312 *~ 23800;
#X obj 626 176 /~;
#X obj 655 149 lop~ 2000;
#X obj 593 149 lop~ 300;
#X obj 626 315 clip~ -0.9 0.9;
#X obj 733 334 +~ 3400;
#X obj 626 293 *~ 1e-05;
#X obj 626 213 hip~ 2500;
#X obj 611 489 *~;
#X obj 733 359 clip~ 2000 10000;
#X msg 723 386 1;
#X obj 627 435 hip~ 900;
#X obj 627 467 *~ 0.3;
#X obj 771 414 loadbang;
#X obj 401 549 *~ 3;
#X connect 0 0 8 0;
#X connect 1 0 4 0;
#X connect 1 0 4 1;
#X connect 1 0 26 0;
#X connect 3 0 12 0;
#X connect 4 0 5 0;
#X connect 4 0 5 1;
#X connect 5 0 0 1;
#X connect 5 0 10 0;
#X connect 6 0 11 0;
#X connect 7 0 32 0;
#X connect 8 0 7 0;
#X connect 9 0 6 0;
#X connect 10 0 9 0;
#X connect 11 0 0 0;
#X connect 13 0 14 0;
#X connect 13 0 20 0;
#X connect 13 0 21 0;
#X connect 14 0 18 0;
#X connect 15 0 29 0;
#X connect 16 0 17 0;
#X connect 16 0 17 1;
#X connect 17 0 24 0;
#X connect 18 0 23 0;
#X connect 19 0 25 0;
#X connect 20 0 19 1;
#X connect 21 0 19 0;
#X connect 22 0 15 0;
#X connect 23 0 27 0;
#X connect 24 0 22 0;
#X connect 25 0 16 0;
#X connect 25 0 16 1;
#X connect 26 0 7 1;
#X connect 27 0 15 1;
#X connect 28 0 15 2;
#X connect 29 0 30 0;
#X connect 30 0 26 1;
#X connect 31 0 28 0;
#X connect 32 0 2 0;
#X restore 158 117 pd grass;
#X connect 0 0 1 0;
#X connect 1 0 4 1;
#X connect 2 0 0 0;
#X connect 2 0 4 0;
#X connect 4 0 3 0;
#X restore 116 102 pd grasstex;
#N canvas 0 22 726 641 gravtex 0;
#X obj 202 75 env~;
#X obj 202 96 > 0.5;
#X obj 180 38 inlet~;
#X obj 158 139 outlet~;
#N canvas 0 22 888 667 gravel 0;
#X obj 34 69 inlet~;
#X obj 123 434 outlet~;
#X obj 293 69 inlet;
#X obj 293 95 switch~;
#X obj 236 36 noise~;
#X obj 138 326 vcf~ 3333 30;
#X obj 136 160 *~;
#X obj 137 97 /~;
#X obj 166 70 lop~ 2000;
#X obj 104 70 lop~ 300;
#X obj 137 236 clip~ -0.9 0.9;
#X obj 122 410 *~;
#X obj 244 280 clip~ 500 10000;
#X obj 243 207 lop~ 50;
#X obj 137 134 hip~ 400;
#X obj 137 214 *~ 0.01;
#X obj 244 233 *~ 50000;
#X obj 138 356 hip~ 200;
#X obj 138 388 *~ 2;
#X obj 244 255 +~;
#X obj 57 98 *~ 1000;
#X obj 282 324 loadbang;
#X msg 282 346 3;
#X connect 0 0 11 0;
#X connect 0 0 20 0;
#X connect 2 0 3 0;
#X connect 4 0 8 0;
#X connect 4 0 9 0;
#X connect 4 0 13 0;
#X connect 5 0 17 0;
#X connect 6 0 15 0;
#X connect 7 0 14 0;
#X connect 8 0 7 1;
#X connect 9 0 7 0;
#X connect 10 0 5 0;
#X connect 11 0 1 0;
#X connect 12 0 5 1;
#X connect 13 0 16 0;
#X connect 14 0 6 0;
#X connect 14 0 6 1;
#X connect 15 0 10 0;
#X connect 16 0 19 0;
#X connect 17 0 18 0;
#X connect 18 0 11 1;
#X connect 19 0 12 0;
#X connect 20 0 19 1;
#X connect 21 0 22 0;
#X connect 22 0 5 2;
#X restore 158 117 pd gravel;
#X connect 0 0 1 0;
#X connect 1 0 4 1;
#X connect 2 0 0 0;
#X connect 2 0 4 0;
#X connect 4 0 3 0;
#X restore 279 100 pd gravtex;
#N canvas 0 22 726 641 woodtex 0;
#X obj 202 75 env~;
#X obj 202 96 > 0.5;
#X obj 180 38 inlet~;
#X obj 158 139 outlet~;
#N canvas 0 22 1177 818 wood 0;
#X obj 470 445 *~;
#X obj 181 142 inlet~;
#X obj 401 564 outlet~;
#X obj 238 140 inlet;
#X obj 180 221 *~;
#X obj 401 527 +~;
#X obj 237 163 switch~;
#X obj 466 255 noise~;
#X obj 419 322 *~ 6;
#X obj 801 262 noise~;
#X obj 355 423 *~;
#X obj 737 287 bp~ 123 20;
#X obj 180 251 *~ 2;
#X obj 336 293 bp~ 95 90;
#X obj 411 291 bp~ 134 90;
#X obj 489 290 bp~ 139 90;
#X obj 567 290 bp~ 154 90;
#X obj 815 286 bp~ 156 90;
#X obj 893 286 bp~ 189 90;
#X obj 745 318 *~ 8;
#X obj 662 289 bp~ 201 70;
#X obj 243 258 sqrt~;
#X obj 356 449 *~ 0.5;
#X obj 469 469 *~ 0.6;
#X connect 0 0 23 0;
#X connect 1 0 4 0;
#X connect 1 0 4 1;
#X connect 1 0 21 0;
#X connect 3 0 6 0;
#X connect 4 0 12 0;
#X connect 5 0 2 0;
#X connect 7 0 13 0;
#X connect 7 0 14 0;
#X connect 7 0 15 0;
#X connect 7 0 16 0;
#X connect 8 0 10 1;
#X connect 9 0 11 0;
#X connect 9 0 17 0;
#X connect 9 0 18 0;
#X connect 9 0 20 0;
#X connect 10 0 22 0;
#X connect 11 0 19 0;
#X connect 12 0 0 0;
#X connect 13 0 8 0;
#X connect 14 0 8 0;
#X connect 15 0 8 0;
#X connect 16 0 8 0;
#X connect 17 0 19 0;
#X connect 18 0 19 0;
#X connect 19 0 0 1;
#X connect 20 0 19 0;
#X connect 21 0 10 0;
#X connect 22 0 5 0;
#X connect 23 0 5 0;
#X restore 158 117 pd wood;
#X connect 0 0 1 0;
#X connect 1 0 4 1;
#X connect 2 0 0 0;
#X connect 2 0 4 0;
#X connect 4 0 3 0;
#X restore 361 99 pd woodtex;
#X obj 111 35 inlet;
#X connect 0 0 2 0;
#X connect 2 0 3 0;
#X connect 2 1 5 0;
#X connect 2 2 4 0;
#X connect 2 3 6 0;
#X connect 2 4 7 0;
#X connect 3 0 1 0;
#X connect 4 0 1 0;
#X connect 5 0 1 0;
#X connect 6 0 1 0;
#X connect 7 0 1 0;
#X connect 8 0 2 1;
